<svg width="24" height="24" viewBox="0 0 24 24" fill="none" xmlns="http://www.w3.org/2000/svg">
  <path
    d="M7 3.5C6.44772 3.5 6 3.94772 6 4.5C6 5.05228 6.44772 5.5 7 5.5H17C17.5523 5.5 18 5.05228 18 4.5C18 3.94772 17.5523 3.5 17 3.5H7Z"
    fill="currentColor" />
  <path fill-rule="evenodd" clip-rule="evenodd"
    d="M4.46875 9C4.46875 7.89543 5.36418 7 6.46875 7H17.4688C18.5733 7 19.4688 7.89543 19.4688 9V17C19.4688 18.1046 18.5733 19 17.4688 19H6.46875C5.36418 19 4.46875 18.1046 4.46875 17V9ZM13.6056 12.5528C13.9741 12.737 13.9741 13.263 13.6056 13.4472L11.2236 14.6382C10.8912 14.8044 10.5 14.5627 10.5 14.191V11.809C10.5 11.4373 10.8912 11.1956 11.2236 11.3618L13.6056 12.5528Z"
    fill="currentColor" />
</svg>