<svg width="16" height="16" viewBox="0 0 16 16" fill="none" xmlns="http://www.w3.org/2000/svg">
  <path
    d="M4.02031 5.38406C4.30213 3.44565 5.95862 2 7.91741 2C9.86512 2 11.5174 3.42952 11.8003 5.35659C11.9591 6.43908 12.1159 7.5014 12.1997 8.0539C12.2625 8.46771 12.5337 8.89485 12.8844 9.29112C13.3915 9.86408 13.037 11 12.2719 11H3.52474C2.77577 11 2.41557 9.91934 2.90094 9.34892C3.2518 8.93658 3.53276 8.4879 3.60957 8.0539C3.70652 7.50608 3.86431 6.45702 4.02031 5.38406Z"
    fill="currentColor" />
  <path
    d="M7 12C6.44772 12 6 12.4477 6 13C6 13.5523 6.44772 14 7 14H9C9.55228 14 10 13.5523 10 13C10 12.4477 9.55228 12 9 12H7Z"
    fill="currentColor" />
</svg>