<svg width="24" height="24" viewBox="0 0 24 24" fill="none" xmlns="http://www.w3.org/2000/svg">
  <path
    d="M10.9441 2.74833C11.3574 2.33503 12.0275 2.33503 12.4408 2.74833L17.308 7.61556C17.7213 8.02886 17.7213 8.69895 17.308 9.11225C17.0978 9.32247 16.8089 9.43457 16.5119 9.42114L16.3016 9.41163C15.8706 9.39213 15.4513 9.55481 15.1463 9.85986L13.4602 11.546L17.3492 15.4351C17.7397 15.8256 17.7397 16.4587 17.3492 16.8493C16.9587 17.2398 16.3255 17.2398 15.935 16.8493L12.046 12.9603L10.36 14.6462C10.055 14.9513 9.8923 15.3706 9.9118 15.8015L9.92131 16.0118C9.93474 16.3088 9.82264 16.5977 9.61241 16.808C9.19912 17.2213 8.52903 17.2213 8.11573 16.808L3.24846 11.9409C2.83515 11.5276 2.83515 10.8575 3.24845 10.4442C3.45866 10.234 3.74761 10.1219 4.0446 10.1353L4.25489 10.1448C4.68585 10.1643 5.10513 10.0016 5.41018 9.6966L7.8034 7.30345L10.1965 4.91006C10.5015 4.60501 10.6642 4.18573 10.6447 3.75478L10.6352 3.54449C10.6218 3.2475 10.7339 2.95855 10.9441 2.74833Z"
    fill="currentColor" />
  <path
    d="M6.00006 18.5C5.44777 18.5 5.00006 18.9477 5.00006 19.5C5.00006 20.0523 5.44777 20.5 6.00006 20.5H18.0001C18.5523 20.5 19.0001 20.0523 19.0001 19.5C19.0001 18.9477 18.5523 18.5 18.0001 18.5H6.00006Z"
    fill="currentColor" />
</svg>