<svg width="16" height="16" viewBox="0 0 16 16" fill="none" xmlns="http://www.w3.org/2000/svg">
  <path
    d="M3.83621 4.98264C3.59099 3.41272 4.84997 2 6.49426 2C8.13855 2 9.39752 3.41272 9.1523 4.98264L8.88746 6.67823C8.7768 7.38671 8.34395 7.98077 7.74575 8.33012L10.8675 10.1515C11.3954 10.4594 11.7537 10.9785 11.8449 11.5675L11.9845 12.4695C12.1093 13.2754 11.4628 14 10.6188 14H2.38118C1.53334 14 0.885736 13.2691 1.01694 12.4603L1.16371 11.5556C1.25813 10.9735 1.61355 10.4613 2.13512 10.1555L5.24584 8.33191C4.64605 7.98281 4.21191 7.38792 4.10106 6.67823L3.83621 4.98264Z"
    fill="currentColor" />
  <path
    d="M14.6184 14H13.164C13.443 13.4895 13.5664 12.8838 13.4667 12.24L13.327 11.338C13.1646 10.2893 12.53 9.38489 11.6232 8.85586L10.0532 7.93983C10.204 7.62049 10.3122 7.27516 10.3693 6.90972L10.6341 5.21413C10.8189 4.03107 10.4764 2.92732 9.80469 2.08569C10.024 2.02985 10.2549 2 10.4939 2C12.1382 2 13.3971 3.41272 13.1519 4.98264L12.8871 6.67823C12.7764 7.38671 12.3436 7.98077 11.7454 8.33012L14.8671 10.1515C15.395 10.4594 15.7533 10.9785 15.8445 11.5675L15.9841 12.4695C16.1089 13.2754 15.4624 14 14.6184 14Z"
    fill="currentColor" />
</svg>