<svg width="24" height="24" viewBox="0 0 24 24" fill="none" xmlns="http://www.w3.org/2000/svg">
  <path
    d="M18.2477 6.55088C17.0825 6.0387 15.8367 5.66646 14.5342 5.45453C14.3742 5.72624 14.1873 6.09168 14.0585 6.38241C12.6739 6.18678 11.302 6.18678 9.94286 6.38241C9.81404 6.09168 9.62288 5.72624 9.46153 5.45453C8.1576 5.66646 6.91031 6.04006 5.74515 6.55359C3.39498 9.89017 2.75789 13.1439 3.07644 16.3514C4.63519 17.445 6.1458 18.1093 7.63093 18.5441C7.99762 18.07 8.32466 17.566 8.6064 17.0347C8.06982 16.8432 7.5559 16.6068 7.07029 16.3324C7.19913 16.2427 7.32513 16.149 7.44689 16.0525C10.4087 17.354 13.6267 17.354 16.5531 16.0525C16.6762 16.149 16.8022 16.2427 16.9296 16.3324C16.4426 16.6081 15.9273 16.8445 15.3907 17.0361C15.6725 17.566 15.9981 18.0713 16.3662 18.5454C17.8527 18.1107 19.3647 17.4464 20.9235 16.3514C21.2973 12.6331 20.285 9.40925 18.2477 6.55088ZM9.00988 14.3788C8.12079 14.3788 7.39167 13.599 7.39167 12.6494C7.39167 11.6998 8.10521 10.9186 9.00988 10.9186C9.91456 10.9186 10.6437 11.6984 10.6281 12.6494C10.6295 13.599 9.91456 14.3788 9.00988 14.3788ZM14.9901 14.3788C14.101 14.3788 13.3718 13.599 13.3718 12.6494C13.3718 11.6998 14.0854 10.9186 14.9901 10.9186C15.8947 10.9186 16.6238 11.6984 16.6083 12.6494C16.6083 13.599 15.8947 14.3788 14.9901 14.3788Z"
    fill="currentColor" />
</svg>