<svg width="24" height="24" viewBox="0 0 24 24" fill="none" xmlns="http://www.w3.org/2000/svg">
  <path fill-rule="evenodd" clip-rule="evenodd"
    d="M12 4C7.58172 4 4 7.58172 4 12C4 16.4183 7.58172 20 12 20C16.4183 20 20 16.4183 20 12C20 7.58172 16.4183 4 12 4ZM15.2191 9.41317C15.3494 9.02229 14.9775 8.65042 14.5867 8.78071L11.1807 9.91602C10.5835 10.1151 10.1149 10.5837 9.91582 11.1809L8.78051 14.5869C8.65021 14.9777 9.02208 15.3496 9.41296 15.2193L12.8189 14.084C13.4161 13.8849 13.8847 13.4163 14.0838 12.8191L15.2191 9.41317Z"
    fill="currentColor" />
</svg>