<svg width="16" height="16" viewBox="0 0 16 16" fill="none" xmlns="http://www.w3.org/2000/svg">
  <path fill-rule="evenodd" clip-rule="evenodd"
    d="M1.5 8C1.5 4.41015 4.41015 1.5 8 1.5C11.5899 1.5 14.5 4.41015 14.5 8C14.5 11.5899 11.5899 14.5 8 14.5C4.41015 14.5 1.5 11.5899 1.5 8ZM10.4266 5.92663C10.5372 5.65801 10.2686 5.38939 10 5.5L7.30035 6.61161C6.97801 6.74435 6.72203 7.00033 6.5893 7.32267L5.47768 10.0223C5.36707 10.2909 5.63569 10.5596 5.90431 10.4489L8.60396 9.33733C8.9263 9.2046 9.18228 8.94862 9.31501 8.62628L10.4266 5.92663Z"
    fill="currentColor" />
</svg>