<svg width="24" height="24" viewBox="0 0 24 24" fill="none" xmlns="http://www.w3.org/2000/svg">
  <path fill-rule="evenodd" clip-rule="evenodd"
    d="M12 4C7.58172 4 4 7.58172 4 12C4 16.4183 7.58172 20 12 20C16.4183 20 20 16.4183 20 12C20 7.58172 16.4183 4 12 4ZM15.7214 10.6925C16.1039 10.2941 16.0909 9.66109 15.6925 9.27861C15.2941 8.89614 14.6611 8.90906 14.2786 9.30747L11.1188 12.599L9.67941 11.2662C9.27416 10.891 8.64147 10.9153 8.26624 11.3206C7.89101 11.7258 7.91535 12.3585 8.32059 12.7338L10.4806 14.7338C10.8807 15.1042 11.5038 15.0859 11.8814 14.6925L15.7214 10.6925Z"
    fill="currentColor" />
</svg>