<svg width="16" height="16" viewBox="0 0 16 16" fill="none" xmlns="http://www.w3.org/2000/svg">
  <path
    d="M11.1387 3.63852C10.553 3.05273 9.60321 3.05273 9.01743 3.63852L2.02369 10.6323C1.75564 10.9003 1.59903 11.2599 1.58533 11.6387L1.53778 12.9541C1.51718 13.5238 1.97641 13.9955 2.54655 13.9901L2.84054 13.9874C2.89245 13.9957 2.9457 14 2.99996 14L12 14C12.5522 14 13 13.5523 13 13C13 12.4477 12.5522 12 12 12L6.50022 12L11.9396 6.56066C12.5254 5.97487 12.5254 5.02513 11.9396 4.43934L11.1387 3.63852Z"
    fill="currentColor" />
</svg>