<svg width="16" height="16" viewBox="0 0 16 16" fill="none" xmlns="http://www.w3.org/2000/svg">
  <path fill-rule="evenodd" clip-rule="evenodd"
    d="M3.125 2C2.22754 2 1.5 2.73262 1.5 3.63636V12.3636C1.5 13.2674 2.22754 14 3.125 14H12.875C13.7725 14 14.5 13.2674 14.5 12.3636V3.63636C14.5 2.73263 13.7725 2 12.875 2H3.125ZM3.82523 11.5V4.5H5.32523V11.5H3.82523ZM7.55783 4.48119H6.80783V5.23119V10.7688V11.5188H7.55783H8.78901C10.7324 11.5188 12.3078 9.94339 12.3078 8C12.3078 6.05661 10.7324 4.48119 8.78901 4.48119H7.55783ZM8.30783 10.0188V5.98119H8.78901C9.90397 5.98119 10.8078 6.88504 10.8078 8C10.8078 9.11496 9.90397 10.0188 8.78901 10.0188H8.30783Z"
    fill="currentColor" />
</svg>