<svg width="16" height="16" viewBox="0 0 16 16" fill="none" xmlns="http://www.w3.org/2000/svg">
  <path fill-rule="evenodd" clip-rule="evenodd"
    d="M8 1.5C4.41015 1.5 1.5 4.41015 1.5 8C1.5 11.5899 4.41015 14.5 8 14.5C11.5899 14.5 14.5 11.5899 14.5 8C14.5 4.41015 11.5899 1.5 8 1.5ZM4.75 8C4.75 7.58579 5.08579 7.25 5.5 7.25H7.25V5.5C7.25 5.08579 7.58579 4.75 8 4.75C8.41421 4.75 8.75 5.08579 8.75 5.5V7.25H10.5C10.9142 7.25 11.25 7.58579 11.25 8C11.25 8.41421 10.9142 8.75 10.5 8.75H8.75V10.5C8.75 10.9142 8.41421 11.25 8 11.25C7.58579 11.25 7.25 10.9142 7.25 10.5V8.75H5.5C5.08579 8.75 4.75 8.41421 4.75 8Z"
    fill="currentColor" />
</svg>