<svg width="16" height="16" viewBox="0 0 16 16" fill="none" xmlns="http://www.w3.org/2000/svg">
  <path fill-rule="evenodd" clip-rule="evenodd"
    d="M2.5 3.5C2.5 2.67157 3.17157 2 4 2H12C12.8284 2 13.5 2.67157 13.5 3.5V12.5C13.5 13.3284 12.8284 14 12 14H4C3.17157 14 2.5 13.3284 2.5 12.5V3.5ZM5.2496 9.5C5.2496 9.08579 5.58539 8.75 5.9996 8.75H7.9996C8.41382 8.75 8.7496 9.08579 8.7496 9.5C8.7496 9.91421 8.41382 10.25 7.9996 10.25H5.9996C5.58539 10.25 5.2496 9.91421 5.2496 9.5ZM6 4.75C5.58579 4.75 5.25 5.08579 5.25 5.5C5.25 5.91421 5.58579 6.25 6 6.25H10C10.4142 6.25 10.75 5.91421 10.75 5.5C10.75 5.08579 10.4142 4.75 10 4.75H6Z"
    fill="currentColor" />
</svg>