<svg width="24" height="24" viewBox="0 0 24 24" fill="none" xmlns="http://www.w3.org/2000/svg">
  <path
    d="M20.5811 4.76305L17.5996 6.11374C17.5126 6.16234 17.44 6.23393 17.3895 6.32101C17.3389 6.40809 17.3122 6.50747 17.3121 6.60872V17.4982C17.3118 17.6005 17.3392 17.701 17.3914 17.7883C17.4436 17.8757 17.5185 17.9466 17.6078 17.9931L20.5893 19.3103C20.6318 19.334 20.6796 19.3459 20.728 19.3449C20.7764 19.3439 20.8237 19.33 20.8652 19.3046C20.9067 19.2791 20.941 19.243 20.9646 19.1999C20.9883 19.1567 21.0005 19.108 21 19.0586V5.01473C20.9984 4.96521 20.9846 4.9169 20.9599 4.87429C20.9351 4.83168 20.9002 4.79616 20.8584 4.77104C20.8166 4.74592 20.7693 4.73201 20.7208 4.73061C20.6723 4.72922 20.6242 4.74038 20.5811 4.76305ZM6.30186 6.09697L3.41069 4.75466C3.36821 4.73096 3.32039 4.71902 3.27199 4.72002C3.2236 4.72102 3.17629 4.73493 3.13478 4.76037C3.09327 4.78581 3.059 4.82189 3.03536 4.86504C3.01172 4.90819 2.99953 4.9569 3.00001 5.00634L3.00001 19.0502C3.00005 19.1011 3.01338 19.1511 3.03864 19.195C3.06389 19.2388 3.10015 19.275 3.14368 19.2998C3.1872 19.3246 3.23642 19.3371 3.28624 19.336C3.33607 19.3349 3.3847 19.3202 3.42712 19.2935L6.33471 17.7247C6.41502 17.6747 6.48138 17.6045 6.52741 17.5207C6.57344 17.437 6.5976 17.3425 6.59754 17.2465L6.59754 6.59194C6.59441 6.49035 6.56551 6.39134 6.51368 6.30458C6.46185 6.21782 6.38886 6.14628 6.30186 6.09697ZM15.3696 9.81347L12.2567 7.99297C12.1731 7.94347 12.0782 7.9174 11.9815 7.9174C11.8849 7.9174 11.79 7.94347 11.7064 7.99297L8.53594 9.79669C8.45112 9.8471 8.38071 9.91932 8.33172 10.0062C8.28272 10.093 8.25685 10.1914 8.25668 10.2917V13.983C8.25668 14.1869 8.36346 14.3756 8.53594 14.478L11.7064 16.3404C11.8764 16.4411 12.0867 16.4411 12.2567 16.3404L15.3696 14.4948C15.4544 14.4443 15.5248 14.3721 15.5738 14.2853C15.6228 14.1984 15.6487 14.1 15.6489 13.9998L15.6489 10.3084C15.6497 10.208 15.6243 10.1092 15.5752 10.0221C15.5261 9.93513 15.4551 9.86308 15.3696 9.81347Z"
    fill="currentColor" />
</svg>