<svg width="24" height="24" viewBox="0 0 24 24" fill="none" xmlns="http://www.w3.org/2000/svg">
  <path fill-rule="evenodd" clip-rule="evenodd"
    d="M11.9916 3C9.59995 3 7.76872 5.00135 8.1254 7.22541L8.51063 9.62749C8.67186 10.6329 9.30335 11.4757 10.1758 11.9702L5.65109 14.5536C4.89244 14.9868 4.37547 15.7125 4.23812 16.5371L4.02464 17.8188C3.8338 18.9646 4.77577 20 6.009 20H11.1168H12.8645H17.991C19.2186 20 20.159 18.9735 19.9775 17.8318L19.7743 16.554C19.6417 15.7196 19.1206 14.9842 18.3528 14.5479L13.812 11.9677C14.6821 11.4728 15.3117 10.6312 15.4727 9.62749L15.8579 7.22541C16.2146 5.00135 14.3833 3 11.9916 3Z"
    fill="currentColor" />
</svg>