<svg width="24" height="24" viewBox="0 0 24 24" fill="none" xmlns="http://www.w3.org/2000/svg">
  <path fill-rule="evenodd" clip-rule="evenodd"
    d="M4 6.5C4 5.39543 4.89543 4.5 6 4.5H18C19.1046 4.5 20 5.39543 20 6.5V9.54107C14.5077 9.99418 10.0641 14.146 9.16592 19.5H6C4.89543 19.5 4 18.6046 4 17.5V6.5ZM11 10C11 10.8284 10.3284 11.5 9.5 11.5C8.67157 11.5 8 10.8284 8 10C8 9.17157 8.67157 8.5 9.5 8.5C10.3284 8.5 11 9.17157 11 10Z"
    fill="currentColor" />
  <path d="M20 11.5494V17.5C20 18.6046 19.1046 19.5 18 19.5H11.2C12.0619 15.2539 15.6142 11.9848 20 11.5494Z"
    fill="currentColor" />
</svg>