<svg width="24" height="24" viewBox="0 0 24 24" fill="none" xmlns="http://www.w3.org/2000/svg">
  <path
    d="M20.9999 12.1068C20.9999 11.4911 20.7635 10.9006 20.3425 10.4652C19.9216 10.0298 19.3507 9.78526 18.7554 9.78526C18.2662 9.79051 17.7926 9.96362 17.4087 10.2774C16.0203 9.44082 14.461 8.9541 12.8569 8.85665L13.4136 5.56007C13.4202 5.50591 13.4457 5.45614 13.4855 5.4202C13.5252 5.38425 13.5763 5.36463 13.629 5.36506H13.6919L16.511 6.25653C16.5528 6.68535 16.7375 7.08577 17.0335 7.38916C17.3295 7.69255 17.7183 7.88002 18.1332 7.91944C18.5482 7.95887 18.9635 7.84779 19.3079 7.60524C19.6524 7.3627 19.9046 7.00379 20.0212 6.59003C20.1379 6.17626 20.1118 5.73341 19.9474 5.33736C19.7831 4.94131 19.4906 4.61672 19.1202 4.41923C18.7499 4.22173 18.3246 4.16363 17.9174 4.25487C17.5101 4.34611 17.1462 4.58101 16.888 4.91933L14.051 4.065C13.9075 4.02458 13.7598 4.00274 13.6111 4C13.2417 4.00089 12.8845 4.13635 12.6021 4.38259C12.3197 4.62883 12.1302 4.97011 12.0669 5.34649L11.4923 8.85665C9.78466 8.90807 8.11594 9.39619 6.63521 10.2774C6.25141 9.96362 5.77773 9.79051 5.28852 9.78526C4.80989 9.77352 4.34026 9.92102 3.94876 10.206C3.55726 10.4911 3.26458 10.8986 3.11378 11.3686C2.96299 11.8386 2.96206 12.3462 3.11112 12.8168C3.26019 13.2874 3.55138 13.696 3.94183 13.9826C3.93293 14.131 3.93293 14.2799 3.94183 14.4283C3.94183 17.502 7.533 20 12.022 20C16.511 20 20.1021 17.502 20.1021 14.4283C20.111 14.2799 20.111 14.131 20.1021 13.9826C20.3833 13.7645 20.6111 13.4811 20.767 13.1553C20.923 12.8295 21.0027 12.4703 20.9999 12.1068ZM7.533 13.0354C7.533 12.7599 7.61199 12.4906 7.75996 12.2615C7.90794 12.0325 8.11826 11.8539 8.36434 11.7485C8.61042 11.6431 8.88119 11.6155 9.14242 11.6692C9.40366 11.723 9.64361 11.8557 9.83195 12.0505C10.0203 12.2453 10.1486 12.4935 10.2005 12.7637C10.2525 13.0339 10.2258 13.3139 10.1239 13.5684C10.022 13.823 9.84934 14.0405 9.62788 14.1936C9.40642 14.3466 9.14605 14.4283 8.8797 14.4283C8.52253 14.4283 8.18 14.2816 7.92744 14.0203C7.67489 13.7591 7.533 13.4048 7.533 13.0354ZM14.9039 17.1584C14.8882 17.2212 14.8601 17.28 14.8215 17.3311C14.7829 17.3822 14.7345 17.4246 14.6795 17.4556C13.8616 17.9068 12.9489 18.1428 12.022 18.1428C11.0951 18.1428 10.1824 17.9068 9.36451 17.4556C9.30941 17.4246 9.26106 17.3822 9.22246 17.3311C9.18385 17.28 9.1558 17.2212 9.14006 17.1584C9.12721 17.0947 9.12694 17.029 9.13929 16.9651C9.15163 16.9013 9.17632 16.8407 9.21188 16.787L9.47224 16.4063C9.53692 16.3166 9.63127 16.2547 9.73726 16.2325C9.84325 16.2102 9.95346 16.2291 10.0468 16.2855C10.663 16.5925 11.3381 16.7519 12.022 16.7519C12.7059 16.7519 13.381 16.5925 13.9971 16.2855C14.0936 16.2319 14.2059 16.2174 14.3122 16.2448C14.4185 16.2723 14.511 16.3398 14.5717 16.4341L14.8321 16.8149C14.8969 16.916 14.9225 17.0386 14.9039 17.1584ZM15.1643 14.4283C14.8979 14.4283 14.6375 14.3466 14.4161 14.1936C14.1946 14.0405 14.022 13.823 13.9201 13.5684C13.8182 13.3139 13.7915 13.0339 13.8434 12.7637C13.8954 12.4935 14.0237 12.2453 14.212 12.0505C14.4003 11.8557 14.6403 11.723 14.9015 11.6692C15.1628 11.6155 15.4335 11.6431 15.6796 11.7485C15.9257 11.8539 16.136 12.0325 16.284 12.2615C16.432 12.4906 16.511 12.7599 16.511 13.0354C16.511 13.4048 16.3691 13.7591 16.1165 14.0203C15.864 14.2816 15.5214 14.4283 15.1643 14.4283Z"
    fill="currentColor" />
</svg>