<svg width="16" height="16" viewBox="0 0 16 16" fill="none" xmlns="http://www.w3.org/2000/svg">
  <path fill-rule="evenodd" clip-rule="evenodd"
    d="M3.8136 2.60972C4.12845 2.0769 4.70132 1.75 5.32022 1.75H10.679C11.2979 1.75 11.8707 2.0769 12.1856 2.60972L14.8447 7.10972C15.1692 7.65889 15.1692 8.34112 14.8447 8.89028L12.1856 13.3903C11.8707 13.9231 11.2979 14.25 10.679 14.25H5.32022C4.70132 14.25 4.12845 13.9231 3.8136 13.3903L1.15451 8.89028C0.830006 8.34111 0.830007 7.65888 1.15451 7.10972L3.8136 2.60972ZM9.5 8C9.5 8.82843 8.82843 9.5 8 9.5C7.17157 9.5 6.5 8.82843 6.5 8C6.5 7.17157 7.17157 6.5 8 6.5C8.82843 6.5 9.5 7.17157 9.5 8Z"
    fill="currentColor" />
</svg>