<svg width="16" height="16" viewBox="0 0 16 16" fill="none" xmlns="http://www.w3.org/2000/svg">
  <path
    d="M1.5 1.5C0.947715 1.5 0.5 1.94772 0.5 2.5C0.5 3.05228 0.947715 3.5 1.5 3.5H2.98974C3.01151 3.5 3.03285 3.5021 3.05353 3.50612L3.75151 10.1052C3.80532 10.6139 4.2344 11 4.74596 11H10C12.2091 11 14 9.20914 14 7C14 4.79086 12.2091 3 10 3H5.16956C4.83145 2.11447 3.97516 1.5 2.98974 1.5H1.5Z"
    fill="currentColor" />
  <path
    d="M5.5 14.5C6.32843 14.5 7 13.8284 7 13C7 12.1716 6.32843 11.5 5.5 11.5C4.67157 11.5 4 12.1716 4 13C4 13.8284 4.67157 14.5 5.5 14.5Z"
    fill="currentColor" />
  <path
    d="M11.5 14.5C12.3284 14.5 13 13.8284 13 13C13 12.1716 12.3284 11.5 11.5 11.5C10.6716 11.5 10 12.1716 10 13C10 13.8284 10.6716 14.5 11.5 14.5Z"
    fill="currentColor" />
</svg>