<svg width="24" height="24" viewBox="0 0 24 24" fill="none" xmlns="http://www.w3.org/2000/svg">
  <rect x="10" y="1" width="4" height="22" rx="2" fill="currentColor" />
  <path
    d="M4.5 7.25C4.5 6.2835 5.2835 5.5 6.25 5.5V5.5C7.2165 5.5 8 6.2835 8 7.25V16.75C8 17.7165 7.2165 18.5 6.25 18.5V18.5C5.2835 18.5 4.5 17.7165 4.5 16.75V7.25Z"
    fill="currentColor" />
  <path
    d="M16 7.25C16 6.2835 16.7835 5.5 17.75 5.5V5.5C18.7165 5.5 19.5 6.2835 19.5 7.25V16.75C19.5 17.7165 18.7165 18.5 17.75 18.5V18.5C16.7835 18.5 16 17.7165 16 16.75V7.25Z"
    fill="currentColor" />
  <path
    d="M0.5 10C0.5 9.44772 0.947715 9 1.5 9V9C2.05228 9 2.5 9.44772 2.5 10V14C2.5 14.5523 2.05228 15 1.5 15V15C0.947715 15 0.5 14.5523 0.5 14V10Z"
    fill="currentColor" />
  <path
    d="M21.5 10C21.5 9.44772 21.9477 9 22.5 9V9C23.0523 9 23.5 9.44772 23.5 10V14C23.5 14.5523 23.0523 15 22.5 15V15C21.9477 15 21.5 14.5523 21.5 14V10Z"
    fill="currentColor" />
</svg>