<svg width="24" height="24" viewBox="0 0 24 24" fill="none" xmlns="http://www.w3.org/2000/svg">
  <path
    d="M13 3.5C13 4.05228 12.5523 4.5 12 4.5C11.4477 4.5 11 4.05228 11 3.5C11 2.94772 11.4477 2.5 12 2.5C12.5523 2.5 13 2.94772 13 3.5Z"
    fill="currentColor" />
  <path
    d="M18.7175 6.6967C18.327 7.08722 17.6938 7.08722 17.3033 6.6967C16.9128 6.30617 16.9128 5.67301 17.3033 5.28249C17.6938 4.89196 18.327 4.89196 18.7175 5.28249C19.108 5.67301 19.108 6.30617 18.7175 6.6967Z"
    fill="currentColor" />
  <path
    d="M20.5 13C19.9477 13 19.5 12.5523 19.5 12C19.5 11.4477 19.9477 11 20.5 11C21.0523 11 21.5 11.4477 21.5 12C21.5 12.5523 21.0523 13 20.5 13Z"
    fill="currentColor" />
  <path
    d="M17.3033 18.7175C16.9128 18.327 16.9128 17.6938 17.3033 17.3033C17.6938 16.9128 18.327 16.9128 18.7175 17.3033C19.108 17.6938 19.108 18.327 18.7175 18.7175C18.327 19.108 17.6938 19.108 17.3033 18.7175Z"
    fill="currentColor" />
  <path
    d="M11.0001 20.5C11.0001 19.9477 11.4478 19.5 12.0001 19.5C12.5524 19.5 13.0001 19.9477 13.0001 20.5C13.0001 21.0523 12.5524 21.5 12.0001 21.5C11.4478 21.5 11.0001 21.0523 11.0001 20.5Z"
    fill="currentColor" />
  <path
    d="M5.28249 17.3033C5.67301 16.9128 6.30618 16.9128 6.6967 17.3033C7.08722 17.6938 7.08722 18.327 6.6967 18.7175C6.30618 19.108 5.67301 19.108 5.28249 18.7175C4.89196 18.327 4.89196 17.6938 5.28249 17.3033Z"
    fill="currentColor" />
  <path
    d="M3.5 11C4.05228 11 4.5 11.4477 4.5 12C4.5 12.5523 4.05228 13 3.5 13C2.94772 13 2.5 12.5523 2.5 12C2.5 11.4477 2.94772 11 3.5 11Z"
    fill="currentColor" />
  <path
    d="M6.6967 5.28249C7.08722 5.67301 7.08722 6.30617 6.6967 6.6967C6.30617 7.08722 5.67301 7.08722 5.28249 6.6967C4.89196 6.30617 4.89196 5.67301 5.28249 5.28249C5.67301 4.89196 6.30617 4.89196 6.6967 5.28249Z"
    fill="currentColor" />
  <path
    d="M19 12C19 15.866 15.866 19 12 19C8.13401 19 5 15.866 5 12C5 8.13401 8.13401 5 12 5C15.866 5 19 8.13401 19 12Z"
    fill="currentColor" />
</svg>