<svg width="24" height="24" viewBox="0 0 24 24" fill="none" xmlns="http://www.w3.org/2000/svg">
  <path
    d="M19.4738 4.65911C19.4738 4.65911 21.1388 4.00982 20.9995 5.58653C20.9537 6.23582 20.5375 8.50852 20.2135 10.9664L19.1036 18.2478C19.1036 18.2478 19.011 19.3145 18.1783 19.5C17.346 19.6852 16.0972 18.8508 15.8658 18.6652C15.6806 18.5259 12.3969 16.4388 11.2407 15.4188C10.9167 15.1402 10.5464 14.5839 11.287 13.9346L16.143 9.29666C16.698 8.74038 17.253 7.44181 14.9405 9.01852L8.46486 13.4242C8.46486 13.4242 7.72473 13.8884 6.33746 13.4709L3.33065 12.5431C3.33065 12.5431 2.22066 11.8475 4.11707 11.1519C8.74257 8.97223 14.4326 6.74624 19.4738 4.65911Z"
    fill="currentColor" />
</svg>