<svg width="16" height="16" viewBox="0 0 16 16" fill="none" xmlns="http://www.w3.org/2000/svg">
  <path fill-rule="evenodd" clip-rule="evenodd"
    d="M8 1.5C4.41015 1.5 1.5 4.41015 1.5 8C1.5 11.5899 4.41015 14.5 8 14.5C11.5899 14.5 14.5 11.5899 14.5 8C14.5 4.41015 11.5899 1.5 8 1.5ZM8.75 5C8.75 4.58579 8.41421 4.25 8 4.25C7.58579 4.25 7.25 4.58579 7.25 5V8C7.25 8.28408 7.4105 8.54378 7.66459 8.67082L9.66459 9.67082C10.0351 9.85606 10.4856 9.70589 10.6708 9.33541C10.8561 8.96493 10.7059 8.51442 10.3354 8.32918L8.75 7.53647V5Z"
    fill="currentColor" />
</svg>