<svg width="16" height="16" viewBox="0 0 16 16" fill="none" xmlns="http://www.w3.org/2000/svg">
  <path
    d="M9 3C9 2.44772 8.55228 2 8 2C7.44772 2 7 2.44772 7 3H3.5C2.94772 3 2.5 3.44772 2.5 4C2.5 4.55228 2.94772 5 3.5 5H12.5C13.0523 5 13.5 4.55228 13.5 4C13.5 3.44772 13.0523 3 12.5 3H9Z"
    fill="currentColor" />
  <path
    d="M11.6642 12.6861L12.5 6H3.5L4.33576 12.6861C4.42959 13.4367 5.06769 14 5.82417 14H10.1758C10.9323 14 11.5704 13.4367 11.6642 12.6861Z"
    fill="currentColor" />
</svg>