<svg width="24" height="24" viewBox="0 0 24 24" fill="none" xmlns="http://www.w3.org/2000/svg">
  <path
    d="M8.64991 20C6.57026 20 4.63168 19.3864 3 18.3276C4.38535 18.4185 6.83019 18.2007 8.35087 16.7292C6.06326 16.6227 5.0316 14.8428 4.89703 14.0822C5.0914 14.1582 6.01841 14.2495 6.54172 14.0365C3.91022 13.3671 3.50652 11.0243 3.59624 10.3093C4.08964 10.6592 4.92694 10.7809 5.25587 10.7505C2.8038 8.97059 3.68595 6.2931 4.11954 5.71501C5.87924 8.18826 8.51649 9.57733 11.7791 9.65459C11.7176 9.38089 11.6851 9.09593 11.6851 8.80325C11.6851 6.70277 13.3586 5 15.423 5C16.5016 5 17.4735 5.46484 18.1558 6.20837C18.8766 6.03703 19.9613 5.63591 20.4916 5.28905C20.2243 6.26268 19.3922 7.07488 18.8888 7.37592C18.893 7.38616 18.8847 7.36563 18.8888 7.37592C19.331 7.30807 20.5274 7.07481 21 6.74949C20.7663 7.29647 19.884 8.20591 19.16 8.71506C19.2947 14.7422 14.7492 20 8.64991 20Z"
    fill="currentColor" />
</svg>