<svg width="16" height="16" viewBox="0 0 16 16" fill="none" xmlns="http://www.w3.org/2000/svg">
  <path
    d="M7.40143 1.24217C5.2007 1.4347 3.57273 3.37484 3.76527 5.57557L3.89023 7.00378C3.11305 7.06 2.5 7.70832 2.5 8.49983V12.4998C2.5 13.3283 3.17157 13.9998 4 13.9998H12C12.8284 13.9998 13.5 13.3283 13.5 12.4998V8.49983C13.5 7.6714 12.8284 6.99983 12 6.99983H5.89752L5.75766 5.40126C5.66139 4.30089 6.47537 3.33082 7.57574 3.23456L8.07384 3.19098C8.89911 3.11878 9.62666 3.72926 9.69886 4.55454L11.6913 4.38022C11.5228 2.45458 9.82517 1.03012 7.89953 1.19859L7.40143 1.24217Z"
    fill="currentColor" />
</svg>