<svg width="16" height="16" viewBox="0 0 16 16" fill="none" xmlns="http://www.w3.org/2000/svg">
  <path fill-rule="evenodd" clip-rule="evenodd"
    d="M10.3721 8.65118C10.6058 8.51765 10.75 8.26914 10.75 8C10.75 7.73086 10.6058 7.48235 10.3721 7.34882L6.8721 5.34882C6.63998 5.21617 6.35479 5.21713 6.12356 5.35132C5.89232 5.48551 5.75 5.73265 5.75 6V10C5.75 10.2674 5.89232 10.5145 6.12355 10.6487C6.35479 10.7829 6.63998 10.7838 6.8721 10.6512L10.3721 8.65118ZM7.25 8.70761V7.29238L8.48833 8L7.25 8.70761Z"
    fill="currentColor" />
  <path fill-rule="evenodd" clip-rule="evenodd"
    d="M3.84375 2.25C2.60111 2.25 1.59375 3.25736 1.59375 4.5V11.5C1.59375 12.7426 2.60111 13.75 3.84375 13.75H11.8438C13.0864 13.75 14.0938 12.7426 14.0938 11.5V4.5C14.0938 3.25736 13.0864 2.25 11.8438 2.25H3.84375ZM3.09375 4.5C3.09375 4.08579 3.42954 3.75 3.84375 3.75H11.8438C12.258 3.75 12.5938 4.08579 12.5938 4.5V11.5C12.5938 11.9142 12.258 12.25 11.8438 12.25H3.84375C3.42954 12.25 3.09375 11.9142 3.09375 11.5V4.5Z"
    fill="currentColor" />
</svg>