<svg width="24" height="24" viewBox="0 0 24 24" fill="none" xmlns="http://www.w3.org/2000/svg">
  <path
    d="M6.25 4.5C6.25 4.08579 6.58579 3.75 7 3.75H17C17.4142 3.75 17.75 4.08579 17.75 4.5C17.75 4.91421 17.4142 5.25 17 5.25H7C6.58579 5.25 6.25 4.91421 6.25 4.5Z"
    fill="currentColor" />
  <path fill-rule="evenodd" clip-rule="evenodd"
    d="M11.559 15.309L13.941 14.118C14.8623 13.6574 14.8623 12.3426 13.941 11.882L11.559 10.691C10.7279 10.2754 9.75 10.8798 9.75 11.809V14.191C9.75 15.1202 10.7279 15.7246 11.559 15.309ZM11.25 12.2135L12.8229 13L11.25 13.7865V12.2135Z"
    fill="currentColor" />
  <path fill-rule="evenodd" clip-rule="evenodd"
    d="M4.25 8.5C4.25 7.25736 5.25736 6.25 6.5 6.25H17.5C18.7426 6.25 19.75 7.25736 19.75 8.5V17.5C19.75 18.7426 18.7426 19.75 17.5 19.75H6.5C5.25736 19.75 4.25 18.7426 4.25 17.5V8.5ZM6.5 7.75C6.08579 7.75 5.75 8.08579 5.75 8.5V17.5C5.75 17.9142 6.08579 18.25 6.5 18.25H17.5C17.9142 18.25 18.25 17.9142 18.25 17.5V8.5C18.25 8.08579 17.9142 7.75 17.5 7.75H6.5Z"
    fill="currentColor" />
</svg>