<svg width="24" height="24" viewBox="0 0 24 24" fill="none" xmlns="http://www.w3.org/2000/svg">
  <path fill-rule="evenodd" clip-rule="evenodd"
    d="M16.1393 5.63602C15.0654 4.56208 13.3241 4.56208 12.2502 5.63602L7.12368 10.7625C5.36632 12.5199 5.36632 15.3691 7.12368 17.1265C8.88104 18.8839 11.7303 18.8839 13.4876 17.1265L18.6142 12C18.9071 11.7071 19.3819 11.7071 19.6748 12C19.9677 12.2929 19.9677 12.7678 19.6748 13.0606L14.5483 18.1872C12.2052 20.5303 8.40617 20.5303 6.06302 18.1872C3.71988 15.844 3.71988 12.045 6.06302 9.70189L11.1895 4.57536C12.8493 2.91563 15.5402 2.91563 17.2 4.57536C18.8597 6.23509 18.8597 8.92604 17.2 10.5858L12.0734 15.7123C11.0971 16.6886 9.51421 16.6886 8.5379 15.7123C7.56159 14.736 7.56159 13.1531 8.5379 12.1768L13.6644 7.05024C13.9573 6.75734 14.4322 6.75734 14.7251 7.05024C15.018 7.34313 15.018 7.818 14.7251 8.1109L9.59856 13.2374C9.20803 13.6279 9.20803 14.2611 9.59856 14.6516C9.98908 15.0422 10.6222 15.0422 11.0128 14.6516L16.1393 9.52511C17.2132 8.45117 17.2132 6.70996 16.1393 5.63602Z"
    fill="currentColor" />
</svg>