<svg width="16" height="16" viewBox="0 0 16 16" fill="none" xmlns="http://www.w3.org/2000/svg">
  <path fill-rule="evenodd" clip-rule="evenodd"
    d="M7.92413 1.75C5.72784 1.75 3.87306 3.36322 3.54338 5.5269C3.40484 6.43616 3.26932 7.2941 3.18598 7.74489C3.16114 7.87926 3.06881 8.07768 2.87421 8.33035C2.45288 8.87742 2.44018 9.58673 2.63066 10.1208C2.8217 10.6564 3.3164 11.25 4.11962 11.25H11.6675C12.4947 11.25 12.9859 10.6218 13.1692 10.0789C13.3528 9.53483 13.3348 8.81106 12.9057 8.26003C12.7275 8.03128 12.6567 7.86415 12.6408 7.76385C12.5668 7.29699 12.431 6.41651 12.2903 5.49957C11.9597 3.34395 10.1061 1.75 7.92413 1.75ZM5.02627 5.75285C5.24546 4.31432 6.47664 3.25 7.92413 3.25C9.36435 3.25 10.5891 4.30225 10.8077 5.72699C10.9482 6.64319 11.0846 7.52744 11.1593 7.99863C11.2317 8.45589 11.4716 8.85992 11.7223 9.18174C11.7419 9.20694 11.7673 9.25726 11.7766 9.34003C11.786 9.42314 11.776 9.51605 11.7479 9.59922C11.7193 9.68402 11.682 9.73024 11.6627 9.74744L11.6597 9.75H4.12499L4.12178 9.74738C4.10457 9.73262 4.07034 9.69217 4.04349 9.61687C4.01707 9.54281 4.00717 9.46016 4.01488 9.3864C4.0225 9.31349 4.04474 9.26883 4.06261 9.24561C4.32362 8.90671 4.57434 8.48622 4.66098 8.01759C4.74939 7.53941 4.88841 6.65761 5.02627 5.75285Z"
    fill="currentColor" />
  <path
    d="M7.00001 12.25C6.5858 12.25 6.25001 12.5858 6.25001 13C6.25001 13.4142 6.5858 13.75 7.00001 13.75H9.00001C9.41422 13.75 9.75001 13.4142 9.75001 13C9.75001 12.5858 9.41422 12.25 9.00001 12.25H7.00001Z"
    fill="currentColor" />
</svg>