<svg width="24" height="24" viewBox="0 0 24 24" fill="none" xmlns="http://www.w3.org/2000/svg">
  <path fill-rule="evenodd" clip-rule="evenodd"
    d="M11.8941 4.25C8.99937 4.25 6.5557 6.38451 6.13751 9.24187C5.93784 10.6061 5.73844 11.922 5.61699 12.604C5.55799 12.9354 5.3307 13.3514 4.94861 13.8144C4.42563 14.4482 4.39829 15.2941 4.63067 15.9382C4.86412 16.5852 5.45284 17.25 6.36624 17.25H17.3626C18.3018 17.25 18.8892 16.5478 19.1141 15.888C19.3386 15.2293 19.3027 14.362 18.7598 13.7254C18.3856 13.2866 18.185 12.9091 18.1412 12.6224C18.0345 11.923 17.8351 10.58 17.6321 9.20539C17.2119 6.36022 14.7713 4.25 11.8941 4.25ZM7.62169 9.4591C7.93308 7.33152 9.75083 5.75 11.8941 5.75C14.0264 5.75 15.8365 7.31407 16.1482 9.42454C16.351 10.7983 16.551 12.145 16.6584 12.8487C16.765 13.5472 17.18 14.1845 17.6185 14.6987C17.735 14.8353 17.7939 15.112 17.6943 15.404C17.5952 15.6948 17.4396 15.75 17.3626 15.75H6.36624C6.28478 15.75 6.13735 15.6944 6.04164 15.4291C5.94487 15.1609 5.99539 14.9027 6.10558 14.7691C6.54762 14.2334 6.96749 13.5761 7.09376 12.867C7.22001 12.158 7.42274 10.8184 7.62169 9.4591Z"
    fill="currentColor" />
  <path
    d="M10.9998 18.25C10.5856 18.25 10.2498 18.5858 10.2498 19C10.2498 19.4142 10.5856 19.75 10.9998 19.75H12.9998C13.414 19.75 13.7498 19.4142 13.7498 19C13.7498 18.5858 13.414 18.25 12.9998 18.25H10.9998Z"
    fill="currentColor" />
</svg>