<svg width="16" height="16" viewBox="0 0 16 16" fill="none" xmlns="http://www.w3.org/2000/svg">
  <path fill-rule="evenodd" clip-rule="evenodd"
    d="M7.74995 1.99193C8.33125 1.41063 9.27373 1.41063 9.85504 1.99193L13.3461 5.48302C13.9274 6.06432 13.9274 7.0068 13.3461 7.58811C13.1383 7.7959 12.8737 7.93755 12.5855 7.99518L12.2378 8.06471C12.0134 8.10961 11.8072 8.21993 11.6453 8.38178C11.6453 8.38179 11.6454 8.38176 11.6453 8.38178L10.544 9.48332L13.7052 12.6445C13.9981 12.9374 13.9981 13.4123 13.7052 13.7052C13.4123 13.9981 12.9374 13.9981 12.6445 13.7052L9.48341 10.5441L8.38158 11.6461C8.2197 11.808 8.10932 12.0142 8.06442 12.2387L7.99489 12.5863C7.93726 12.8745 7.79561 13.1391 7.58782 13.3469C7.00652 13.9282 6.06403 13.9283 5.48273 13.3469L1.99164 9.85586C1.41034 9.27456 1.41034 8.33208 1.99164 7.75077C2.19944 7.54297 2.4641 7.40133 2.75226 7.3437L3.09994 7.27417C3.3244 7.22927 3.53055 7.11895 3.69242 6.9571C3.69243 6.95709 3.6924 6.95712 3.69242 6.9571L6.95619 3.69279C7.11806 3.53092 7.22845 3.32471 7.27334 3.10023L7.34288 2.75255C7.40051 2.46439 7.54215 2.19973 7.74995 1.99193ZM8.80954 3.06776L8.74421 3.3944C8.64124 3.90925 8.38819 4.3821 8.01694 4.75337C8.01692 4.75338 8.01695 4.75335 8.01694 4.75337L4.75316 8.01767C4.38189 8.38895 3.90898 8.64206 3.39411 8.74504L3.06747 8.81037L6.52822 12.2711L6.59355 11.9445C6.69652 11.4296 6.94958 10.9568 7.32083 10.5855C7.32084 10.5855 7.32081 10.5855 7.32083 10.5855L10.5846 7.3212C10.9559 6.94993 11.4288 6.69682 11.9437 6.59384L12.2703 6.52851L8.80954 3.06776Z"
    fill="currentColor" />
</svg>