<svg width="24" height="24" viewBox="0 0 24 24" fill="none" xmlns="http://www.w3.org/2000/svg">
  <path
    d="M9 5.25C8.58579 5.25 8.25 5.58579 8.25 6C8.25 6.41421 8.58579 6.75 9 6.75L9 5.25ZM18.5 6.75C18.9142 6.75 19.25 6.41421 19.25 6C19.25 5.58579 18.9142 5.25 18.5 5.25L18.5 6.75ZM9 6.75L18.5 6.75L18.5 5.25L9 5.25L9 6.75Z"
    fill="currentColor" />
  <path
    d="M5.5 6.75C5.91421 6.75 6.25 6.41421 6.25 6C6.25 5.58579 5.91421 5.25 5.5 5.25V6.75ZM5.37372 5.25C4.95951 5.25 4.62372 5.58579 4.62372 6C4.62372 6.41421 4.95951 6.75 5.37372 6.75V5.25ZM5.5 5.25H5.37372V6.75H5.5V5.25Z"
    fill="currentColor" />
  <path
    d="M5.5 12.75C5.91421 12.75 6.25 12.4142 6.25 12C6.25 11.5858 5.91421 11.25 5.5 11.25V12.75ZM5.37372 11.25C4.95951 11.25 4.62372 11.5858 4.62372 12C4.62372 12.4142 4.95951 12.75 5.37372 12.75V11.25ZM5.5 11.25H5.37372V12.75H5.5V11.25Z"
    fill="currentColor" />
  <path
    d="M5.5 18.75C5.91421 18.75 6.25 18.4142 6.25 18C6.25 17.5858 5.91421 17.25 5.5 17.25V18.75ZM5.37372 17.25C4.95951 17.25 4.62372 17.5858 4.62372 18C4.62372 18.4142 4.95951 18.75 5.37372 18.75V17.25ZM5.5 17.25H5.37372V18.75H5.5V17.25Z"
    fill="currentColor" />
  <path
    d="M9 11.25C8.58579 11.25 8.25 11.5858 8.25 12C8.25 12.4142 8.58579 12.75 9 12.75L9 11.25ZM18.5 12.75C18.9142 12.75 19.25 12.4142 19.25 12C19.25 11.5858 18.9142 11.25 18.5 11.25L18.5 12.75ZM9 12.75L18.5 12.75L18.5 11.25L9 11.25L9 12.75Z"
    fill="currentColor" />
  <path
    d="M9 17.25C8.58579 17.25 8.25 17.5858 8.25 18C8.25 18.4142 8.58579 18.75 9 18.75L9 17.25ZM18.5 18.75C18.9142 18.75 19.25 18.4142 19.25 18C19.25 17.5858 18.9142 17.25 18.5 17.25L18.5 18.75ZM9 18.75L18.5 18.75L18.5 17.25L9 17.25L9 18.75Z"
    fill="currentColor" />
</svg>