<svg width="24" height="24" viewBox="0 0 24 24" fill="none" xmlns="http://www.w3.org/2000/svg">
  <path fill-rule="evenodd" clip-rule="evenodd"
    d="M18.56 5.49895C18.8355 5.18969 18.8082 4.71561 18.4989 4.44005C18.1897 4.16449 17.7156 4.19181 17.44 4.50106L10.849 11.8981L7.5389 8.47839C7.25082 8.18076 6.77601 8.17302 6.47838 8.46111C6.18075 8.74919 6.17302 9.224 6.4611 9.52163L10.3328 13.5216C10.4778 13.6715 10.6787 13.7542 10.8872 13.7498C11.0957 13.7455 11.2929 13.6546 11.4317 13.499L18.56 5.49895ZM6.75 14.5C6.75 14.0858 6.41421 13.75 6 13.75C5.58579 13.75 5.25 14.0858 5.25 14.5V17.5C5.25 18.4665 6.0335 19.25 7 19.25H12.5V17.75H7C6.86193 17.75 6.75 17.6381 6.75 17.5V14.5Z"
    fill="currentColor" />
  <path fill-rule="evenodd" clip-rule="evenodd"
    d="M14.4697 13.9697C14.7626 13.6768 15.2374 13.6768 15.5303 13.9697L17 15.4393L18.4697 13.9697C18.7626 13.6768 19.2374 13.6768 19.5303 13.9697C19.8232 14.2626 19.8232 14.7374 19.5303 15.0303L18.0607 16.5L19.5303 17.9697C19.8232 18.2626 19.8232 18.7374 19.5303 19.0303C19.2374 19.3232 18.7626 19.3232 18.4697 19.0303L17 17.5607L15.5303 19.0303C15.2374 19.3232 14.7626 19.3232 14.4697 19.0303C14.1768 18.7374 14.1768 18.2626 14.4697 17.9697L15.9393 16.5L14.4697 15.0303C14.1768 14.7374 14.1768 14.2626 14.4697 13.9697Z"
    fill="currentColor" />
</svg>