<svg width="24" height="24" viewBox="0 0 24 24" fill="none" xmlns="http://www.w3.org/2000/svg">
  <path
    d="M18.7466 5.66527C19.114 5.25293 19.0776 4.62081 18.6653 4.2534C18.2529 3.88599 17.6208 3.92241 17.2534 4.33475L10.8414 11.5309L7.71854 8.30452C7.33443 7.90768 6.70135 7.89737 6.30451 8.28147C5.90767 8.66558 5.89736 9.29866 6.28146 9.6955L10.1532 13.6955C10.3465 13.8953 10.6144 14.0055 10.8923 13.9998C11.1703 13.9941 11.4334 13.8729 11.6183 13.6653L18.7466 5.66527Z"
    fill="currentColor" />
  <path
    d="M7 14.5C7 13.9477 6.55228 13.5 6 13.5C5.44772 13.5 5 13.9477 5 14.5V17.5C5 18.6046 5.89543 19.5 7 19.5H17C18.1046 19.5 19 18.6046 19 17.5V14.5C19 13.9477 18.5523 13.5 18 13.5C17.4477 13.5 17 13.9477 17 14.5V17.5H7V14.5Z"
    fill="currentColor" />
</svg>