<svg width="16" height="16" viewBox="0 0 16 16" fill="none" xmlns="http://www.w3.org/2000/svg">
  <path
    d="M13.0675 2.49034C13.3383 2.17692 13.3038 1.7033 12.9903 1.43249C12.6769 1.16168 12.2033 1.19623 11.9325 1.50965L7.29273 6.87953L5.04685 4.48672C4.76338 4.1847 4.28874 4.16967 3.98672 4.45314C3.68471 4.73662 3.66967 5.21125 3.95315 5.51327L6.76894 8.51327C6.91438 8.66823 7.11874 8.75421 7.33122 8.74984C7.5437 8.74547 7.74435 8.65115 7.88329 8.49034L13.0675 2.49034Z"
    fill="currentColor" />
  <path
    d="M3.75 9C3.75 8.58578 3.41421 8.25 3 8.25C2.58579 8.25 2.25 8.58578 2.25 9V12C2.25 12.9665 3.0335 13.75 4 13.75H12C12.9665 13.75 13.75 12.9665 13.75 12V9C13.75 8.58578 13.4142 8.25 13 8.25C12.5858 8.25 12.25 8.58578 12.25 9V12C12.25 12.1381 12.1381 12.25 12 12.25H4C3.86193 12.25 3.75 12.1381 3.75 12V9Z"
    fill="currentColor" />
</svg>