<svg width="16" height="16" viewBox="0 0 16 16" fill="none" xmlns="http://www.w3.org/2000/svg">
  <path
    d="M3.09832 10.4976L3.82277 10.6918C3.87079 10.5125 3.85067 10.3218 3.76629 10.1566L3.09832 10.4976ZM2.3789 13.1826L1.65445 12.9885L1.65445 12.9885L2.3789 13.1826ZM2.99127 13.795L2.79715 13.0705H2.79715L2.99127 13.795ZM5.79989 13.0424L6.10016 12.3551C5.94434 12.287 5.77002 12.2739 5.60578 12.3179L5.79989 13.0424ZM12.7498 8C12.7498 10.6234 10.6232 12.75 7.99982 12.75V14.25C11.4516 14.25 14.2498 11.4518 14.2498 8H12.7498ZM7.99982 3.25C10.6232 3.25 12.7498 5.37665 12.7498 8H14.2498C14.2498 4.54822 11.4516 1.75 7.99982 1.75V3.25ZM3.24982 8C3.24982 5.37665 5.37646 3.25 7.99982 3.25V1.75C4.54804 1.75 1.74982 4.54822 1.74982 8H3.24982ZM3.76629 10.1566C3.43628 9.51025 3.24982 8.77799 3.24982 8H1.74982C1.74982 9.02057 1.99501 9.98605 2.43035 10.8387L3.76629 10.1566ZM3.10334 13.3767L3.82277 10.6918L2.37388 10.3035L1.65445 12.9885L3.10334 13.3767ZM2.79715 13.0705C2.98305 13.0207 3.15315 13.1908 3.10334 13.3767L1.65445 12.9885C1.4054 13.9179 2.25592 14.7684 3.18538 14.5194L2.79715 13.0705ZM5.60578 12.3179L2.79715 13.0705L3.18538 14.5194L5.994 13.7668L5.60578 12.3179ZM7.99982 12.75C7.32291 12.75 6.68094 12.6089 6.10016 12.3551L5.49962 13.7297C6.26622 14.0646 7.11235 14.25 7.99982 14.25V12.75Z"
    fill="currentColor" />
  <path
    d="M7 8C7 8.41421 6.66421 8.75 6.25 8.75C5.83579 8.75 5.5 8.41421 5.5 8C5.5 7.58579 5.83579 7.25 6.25 7.25C6.66421 7.25 7 7.58579 7 8Z"
    fill="currentColor" />
  <path
    d="M10.5 8C10.5 8.41421 10.1642 8.75 9.75 8.75C9.33579 8.75 9 8.41421 9 8C9 7.58579 9.33579 7.25 9.75 7.25C10.1642 7.25 10.5 7.58579 10.5 8Z"
    fill="currentColor" />
</svg>