<svg width="24" height="24" viewBox="0 0 24 24" fill="none" xmlns="http://www.w3.org/2000/svg">
  <path
    d="M5.87148 15.3853L6.583 15.6225C6.64935 15.4234 6.62928 15.2056 6.52765 15.0221L5.87148 15.3853ZM5.01105 17.9666L4.29954 17.7294H4.29954L5.01105 17.9666ZM6.27596 19.2315L6.51313 19.943H6.51313L6.27596 19.2315ZM8.99639 18.3247L9.31859 17.6474C9.14356 17.5642 8.9431 17.5519 8.75922 17.6132L8.99639 18.3247ZM18.2499 12C18.2499 15.4518 15.4517 18.25 11.9999 18.25V19.75C16.2801 19.75 19.7499 16.2802 19.7499 12H18.2499ZM11.9999 5.75C15.4517 5.75 18.2499 8.54822 18.2499 12H19.7499C19.7499 7.71979 16.2801 4.25 11.9999 4.25V5.75ZM5.74993 12C5.74993 8.54822 8.54815 5.75 11.9999 5.75V4.25C7.71972 4.25 4.24993 7.71979 4.24993 12H5.74993ZM6.52765 15.0221C6.03224 14.1271 5.74993 13.0977 5.74993 12H4.24993C4.24993 13.3582 4.59996 14.6369 5.21531 15.7485L6.52765 15.0221ZM5.72257 18.2038L6.583 15.6225L5.15997 15.1481L4.29954 17.7294L5.72257 18.2038ZM6.03879 18.52C5.84335 18.5851 5.65742 18.3992 5.72257 18.2038L4.29954 17.7294C3.84352 19.0975 5.14506 20.399 6.51313 19.943L6.03879 18.52ZM8.75922 17.6132L6.03879 18.52L6.51313 19.943L9.23356 19.0362L8.75922 17.6132ZM11.9999 18.25C11.0387 18.25 10.1302 18.0335 9.31859 17.6474L8.67419 19.002C9.68287 19.4818 10.8111 19.75 11.9999 19.75V18.25Z"
    fill="currentColor" />
  <circle cx="10" cy="12" r="1" fill="currentColor" />
  <circle cx="14" cy="12" r="1" fill="currentColor" />
</svg>