<svg width="24" height="24" viewBox="0 0 24 24" fill="none" xmlns="http://www.w3.org/2000/svg">
  <path
    d="M16.5721 5.35304C16.6834 5.28755 16.8132 5.25 16.9517 5.25C17.1807 5.25 17.3857 5.35263 17.5233 5.51441L20.5596 8.9303C20.8348 9.23989 20.8069 9.71394 20.4974 9.98913C20.1878 10.2643 19.7137 10.2364 19.4385 9.92684L17.7017 7.97291V17.5C17.7017 17.9142 17.3659 18.25 16.9517 18.25C16.5375 18.25 16.2017 17.9142 16.2017 17.5V7.97239L14.4644 9.92684C14.1892 10.2364 13.7152 10.2643 13.4056 9.98913C13.096 9.71394 13.0681 9.23989 13.3433 8.9303L16.3909 5.50173C16.4437 5.44235 16.5049 5.39239 16.5721 5.35304Z"
    fill="currentColor" />
  <path
    d="M6.29642 16.026L4.56056 14.0732C4.28538 13.7636 3.81132 13.7357 3.50174 14.0109C3.19215 14.2861 3.16426 14.7601 3.43945 15.0697L6.46173 18.4698C6.59919 18.6406 6.81003 18.75 7.04642 18.75H7.04763C7.26186 18.75 7.46586 18.6584 7.60818 18.4983L10.6558 15.0697C10.931 14.7601 10.9031 14.2861 10.5935 14.0109C10.2839 13.7357 9.80988 13.7636 9.53469 14.0732L7.79642 16.0287V6.5C7.79642 6.08579 7.46063 5.75 7.04642 5.75C6.6322 5.75 6.29642 6.08579 6.29642 6.5V16.026Z"
    fill="currentColor" />
</svg>