<svg width="16" height="16" viewBox="0 0 16 16" fill="none" xmlns="http://www.w3.org/2000/svg">
  <path
    d="M12.2071 2.79289C11.8166 2.40237 11.1834 2.40237 10.7929 2.79289L8.29289 5.29289C7.90237 5.68342 7.90237 6.31658 8.29289 6.70711C8.68342 7.09763 9.31658 7.09763 9.70711 6.70711L10.5 5.91421V11.5C10.5 12.0523 10.9477 12.5 11.5 12.5C12.0523 12.5 12.5 12.0523 12.5 11.5V5.91421L13.2929 6.70711C13.6834 7.09763 14.3166 7.09763 14.7071 6.70711C15.0976 6.31658 15.0976 5.68342 14.7071 5.29289L12.2071 2.79289Z"
    fill="currentColor" />
  <path
    d="M3.5 10.0858V4.5C3.5 3.94772 3.94772 3.5 4.5 3.5C5.05228 3.5 5.5 3.94772 5.5 4.5V10.0858L6.29289 9.29289C6.68342 8.90237 7.31658 8.90237 7.70711 9.29289C8.09763 9.68342 8.09763 10.3166 7.70711 10.7071L5.20711 13.2071C4.81658 13.5976 4.18342 13.5976 3.79289 13.2071L1.29289 10.7071C0.902369 10.3166 0.902369 9.68342 1.29289 9.29289C1.68342 8.90237 2.31658 8.90237 2.70711 9.29289L3.5 10.0858Z"
    fill="currentColor" />
</svg>