<svg width="24" height="24" viewBox="0 0 24 24" fill="none" xmlns="http://www.w3.org/2000/svg">
  <path fill-rule="evenodd" clip-rule="evenodd"
    d="M9.5 4.25C8.25736 4.25 7.25 5.25736 7.25 6.5V14.5C7.25 15.7426 8.25736 16.75 9.5 16.75H16.5C17.7426 16.75 18.75 15.7426 18.75 14.5V6.5C18.75 5.25736 17.7426 4.25 16.5 4.25H9.5ZM8.75 6.5C8.75 6.08579 9.08579 5.75 9.5 5.75H16.5C16.9142 5.75 17.25 6.08579 17.25 6.5V14.5C17.25 14.9142 16.9142 15.25 16.5 15.25H9.5C9.08579 15.25 8.75 14.9142 8.75 14.5V6.5Z"
    fill="currentColor" />
  <path
    d="M5.75 9C5.75 8.58579 5.41421 8.25 5 8.25C4.58579 8.25 4.25 8.58579 4.25 9V17.5C4.25 18.7426 5.25736 19.75 6.5 19.75H14C14.4142 19.75 14.75 19.4142 14.75 19C14.75 18.5858 14.4142 18.25 14 18.25H6.5C6.08579 18.25 5.75 17.9142 5.75 17.5V9Z"
    fill="currentColor" />
</svg>