<svg width="16" height="16" viewBox="0 0 16 16" fill="none" xmlns="http://www.w3.org/2000/svg">
  <path fill-rule="evenodd" clip-rule="evenodd"
    d="M7 2.25C6.0335 2.25 5.25 3.0335 5.25 4V9C5.25 9.9665 6.0335 10.75 7 10.75H11.5C12.4665 10.75 13.25 9.9665 13.25 9V4C13.25 3.0335 12.4665 2.25 11.5 2.25H7ZM6.75 4C6.75 3.86193 6.86193 3.75 7 3.75H11.5C11.6381 3.75 11.75 3.86193 11.75 4V9C11.75 9.13807 11.6381 9.25 11.5 9.25H7C6.86193 9.25 6.75 9.13807 6.75 9V4Z"
    fill="currentColor" />
  <path
    d="M4.25 6C4.25 5.58579 3.91421 5.25 3.5 5.25C3.08579 5.25 2.75 5.58579 2.75 6V11.5C2.75 12.4665 3.5335 13.25 4.5 13.25H9.5C9.91421 13.25 10.25 12.9142 10.25 12.5C10.25 12.0858 9.91421 11.75 9.5 11.75H4.5C4.36193 11.75 4.25 11.6381 4.25 11.5V6Z"
    fill="currentColor" />
</svg>