<svg width="16" height="16" viewBox="0 0 16 16" fill="none" xmlns="http://www.w3.org/2000/svg">
  <path fill-rule="evenodd" clip-rule="evenodd"
    d="M6.4757 2.37502C4.46664 2.37502 2.92837 4.16268 3.22799 6.14927L3.4038 7.31498C3.42745 7.47177 3.46257 7.62433 3.50823 7.77187L2.80353 8.19972C2.07959 8.63924 1.58627 9.37561 1.4552 10.2123L1.35777 10.8343C1.12815 12.3003 2.26153 13.625 3.74533 13.625H9.21372C10.6907 13.625 11.8222 12.3117 11.6038 10.851L11.5111 10.2308C11.3845 9.3842 10.8872 8.63801 10.1545 8.1953L9.44483 7.76647C9.48968 7.62061 9.52424 7.46986 9.5476 7.31498L9.72341 6.14927C10.023 4.16267 8.48476 2.37502 6.4757 2.37502ZM7.30648 8.22695L9.3788 9.47913C9.72921 9.69086 9.96704 10.0477 10.0276 10.4526L10.1203 11.0728C10.2031 11.6269 9.77396 12.125 9.21372 12.125H3.74533C3.18251 12.125 2.75261 11.6225 2.8397 11.0665L2.93713 10.4445C2.99981 10.0443 3.23575 9.69211 3.58199 9.4819L5.64697 8.22819C5.24881 7.98818 4.96061 7.5792 4.88703 7.09129L4.71122 5.92557C4.54843 4.84625 5.38417 3.87502 6.4757 3.87502C7.56723 3.87502 8.40297 4.84625 8.24019 5.92557L8.06437 7.09129C7.99091 7.57836 7.70358 7.98678 7.30648 8.22695Z"
    fill="currentColor" />
  <path
    d="M12.8802 13.625H11.9708C12.3447 13.1983 12.6204 12.6857 12.7653 12.125H12.8802C13.4405 12.125 13.8697 11.6269 13.7868 11.0728L13.6941 10.4526C13.6336 10.0477 13.3957 9.69086 13.0453 9.47913L12.5097 9.1555C12.2915 8.59686 11.9539 8.09214 11.5208 7.67719C11.6259 7.50188 11.6988 7.30409 11.7309 7.09129L11.9067 5.92557C12.0414 5.03216 11.492 4.21281 10.6797 3.95705C10.4427 3.37411 10.0871 2.84847 9.64096 2.41278C9.80408 2.38793 9.97144 2.37502 10.1422 2.37502C12.1513 2.37502 13.6895 4.16267 13.3899 6.14927L13.2141 7.31498C13.1908 7.46986 13.1562 7.62061 13.1113 7.76647L13.821 8.1953C14.5537 8.63801 15.051 9.3842 15.1776 10.2308L15.2703 10.851C15.4887 12.3117 14.3572 13.625 12.8802 13.625Z"
    fill="currentColor" />
</svg>