<svg width="24" height="24" viewBox="0 0 24 24" fill="none" xmlns="http://www.w3.org/2000/svg">
  <path fill-rule="evenodd" clip-rule="evenodd"
    d="M14.2739 4.92555C14.3782 4.52468 14.7877 4.28425 15.1886 4.38854C17.0337 4.86856 18.3534 6.6288 18.0409 8.6028L17.7279 10.5799C17.6256 11.2259 17.3436 11.8038 16.9396 12.2727L19.7014 13.8625C20.5138 14.3302 21.0788 15.1273 21.2232 16.0474L21.3882 17.0991C21.6137 18.5354 20.4482 19.75 19.0333 19.75C18.6191 19.75 18.2833 19.4142 18.2833 19C18.2833 18.5858 18.6191 18.25 19.0333 18.25C19.6132 18.25 19.9759 17.7749 19.9064 17.3317L19.7413 16.2799C19.6701 15.8265 19.3882 15.413 18.953 15.1625L15.2637 13.0388C15.0312 12.9049 14.8879 12.6572 14.8878 12.3889C14.8878 12.1207 15.031 11.8728 15.2634 11.7389C15.7889 11.4361 16.1536 10.9313 16.2464 10.3454L16.5593 8.36825C16.7393 7.23144 15.9847 6.14558 14.8109 5.84022C14.4101 5.73593 14.1697 5.32642 14.2739 4.92555Z"
    fill="currentColor" />
  <path fill-rule="evenodd" clip-rule="evenodd"
    d="M9.49299 5.75C7.96803 5.75 6.8812 7.02742 7.09245 8.36254L7.40545 10.3407C7.49841 10.9283 7.86429 11.4342 8.39124 11.7369C8.62369 11.8705 8.76717 12.118 8.76759 12.3861C8.76801 12.6542 8.62529 12.9021 8.39325 13.0364L4.71695 15.1639C4.28702 15.4127 4.00708 15.821 3.93333 16.2698L3.75987 17.3253C3.68666 17.7708 4.04986 18.25 4.63209 18.25H14.3675C14.9469 18.25 15.3102 17.7748 15.2406 17.3306L15.0755 16.2783C15.0043 15.8243 14.7222 15.4106 14.2871 15.16L10.5977 13.035C10.3653 12.9012 10.2221 12.6535 10.222 12.3853C10.222 12.1171 10.3651 11.8693 10.5974 11.7354C11.123 11.4324 11.4877 10.9273 11.5805 10.3407L11.8935 8.36254C12.1048 7.02742 11.0179 5.75 9.49299 5.75ZM5.61088 8.59696C5.24253 6.26892 7.13144 4.25 9.49299 4.25C11.8545 4.25 13.7435 6.26892 13.3751 8.59696L13.0621 10.5751C12.9598 11.2216 12.6777 11.7999 12.2735 12.2692L15.0357 13.8601C15.8482 14.3281 16.413 15.1256 16.5574 16.0459L16.7224 17.0982C16.9478 18.5346 15.7829 19.75 14.3675 19.75H4.63209C3.21032 19.75 2.04281 18.5238 2.27973 17.0821L2.45318 16.0266C2.60261 15.1172 3.16275 14.3303 3.96563 13.8656L6.7164 12.2737C6.31011 11.8036 6.02649 11.2237 5.92388 10.5751L5.61088 8.59696Z"
    fill="currentColor" />
</svg>