<svg width="24" height="24" viewBox="0 0 24 24" fill="none" xmlns="http://www.w3.org/2000/svg">
  <path
    d="M4 12C4 7.58172 7.58172 4 12 4C16.4183 4 20 7.58172 20 12C20 16.4183 16.4183 20 12 20C7.58172 20 4 16.4183 4 12Z"
    stroke="currentColor" stroke-width="1.5" />
  <path
    d="M15.1331 8.21424C15.544 8.04502 15.955 8.45599 15.7858 8.86696L14.0851 12.9972C13.882 13.4903 13.4904 13.882 12.9972 14.085L8.867 15.7857C8.45603 15.9549 8.04506 15.544 8.21428 15.133L9.91497 11.0028C10.118 10.5096 10.5097 10.118 11.0028 9.91493L15.1331 8.21424Z"
    stroke="currentColor" stroke-width="1.5" />
</svg>