<svg width="24" height="24" viewBox="0 0 24 24" fill="none" xmlns="http://www.w3.org/2000/svg">
  <path
    d="M16.6495 4.37513C16.8566 4.01641 16.7337 3.55771 16.375 3.35061C16.0163 3.1435 15.5576 3.26641 15.3505 3.62513L6.35048 19.2136C6.14337 19.5723 6.26628 20.031 6.625 20.2381C6.98372 20.4452 7.44241 20.3223 7.64952 19.9636L16.6495 4.37513Z"
    fill="currentColor" />
  <path
    d="M10 5.25013H12.1029L11.2369 6.75013H10C7.10051 6.75013 4.75 9.10063 4.75 12.0001C4.75 13.3769 5.27992 14.6298 6.14692 15.5662L5.36996 16.9119C4.06473 15.6811 3.25 13.9357 3.25 12.0001C3.25 8.2722 6.27208 5.25013 10 5.25013Z"
    fill="currentColor" />
  <path
    d="M14 17.2501H11.5255L10.6595 18.7501H14C17.7279 18.7501 20.75 15.728 20.75 12.0001C20.75 9.67459 19.574 7.62373 17.7842 6.40982L17.0316 7.71335C18.3739 8.66434 19.25 10.2299 19.25 12.0001C19.25 14.8996 16.8995 17.2501 14 17.2501Z"
    fill="currentColor" />
</svg>