<svg width="24" height="24" viewBox="0 0 24 24" fill="none" xmlns="http://www.w3.org/2000/svg">
  <path fill-rule="evenodd" clip-rule="evenodd"
    d="M17.841 6.55481L18.0808 6.8912C19.8555 9.38129 20.7634 12.2465 20.4329 15.5345L20.3642 16.2173L19.8026 16.6118C18.4424 17.5674 17.1142 18.1512 15.8168 18.5306L14.837 18.8171L14.211 18.0108C14.0251 17.7714 13.8514 17.5239 13.6898 17.2693C12.5701 17.4596 11.4316 17.4583 10.309 17.2661C10.1466 17.5218 9.97267 17.7691 9.78828 18.0075L9.16232 18.8169L8.18035 18.5294C6.88403 18.15 5.55742 17.5662 4.19784 16.6123L3.63469 16.2172L3.56671 15.5327C3.28533 12.6995 3.86217 9.80563 5.9087 6.90013L6.1487 6.55939L6.53007 6.39131C7.55214 5.94084 8.64463 5.61384 9.7849 5.42851L10.7935 5.26458L11.253 6.03825C11.7483 6.00929 12.245 6.00948 12.7428 6.03867L13.1991 5.26376L14.2119 5.42855C15.3502 5.61378 16.441 5.93945 17.4629 6.38859L17.841 6.55481ZM8.4586 15.152C8.80052 15.3022 9.14683 15.4302 9.49614 15.5358C10.0214 15.6947 10.5534 15.8031 11.0874 15.8611C11.6946 15.9271 12.3043 15.9278 12.9098 15.8635C13.4456 15.8065 13.9781 15.6985 14.5023 15.5394C14.8528 15.4331 15.1995 15.3039 15.5412 15.152C15.6138 15.2089 15.6878 15.2646 15.7625 15.3186C15.7837 15.3339 15.805 15.3491 15.8264 15.3642C15.829 15.366 15.8315 15.3678 15.8341 15.3696C15.782 15.3991 15.7295 15.428 15.6766 15.4564C15.482 15.5606 15.2819 15.6568 15.0772 15.7444C15.0549 15.7539 15.0326 15.7634 15.0103 15.7727C14.8875 15.8239 14.7631 15.872 14.6371 15.917C14.678 15.9938 14.72 16.0699 14.7632 16.1453C14.8408 16.2809 14.9222 16.4142 15.0074 16.545C15.0811 16.6582 15.1576 16.7696 15.2369 16.8791C15.2887 16.9505 15.3417 17.0211 15.3958 17.0909C15.7714 16.981 16.1492 16.8524 16.5295 16.6994C17.32 16.3817 18.1219 15.9594 18.9404 15.3844C19.2311 12.4924 18.4438 9.98497 16.8593 7.76179C15.953 7.36344 14.984 7.07392 13.9709 6.90908C13.8465 7.12041 13.7012 7.40464 13.601 7.63077C12.524 7.47861 11.457 7.47861 10.3999 7.63077C10.2997 7.40464 10.151 7.12041 10.0255 6.90908C9.01138 7.07392 8.04127 7.36449 7.13503 7.76391C5.30712 10.359 4.81161 12.8897 5.05936 15.3844C5.87713 15.9582 6.67787 16.38 7.46697 16.6976C7.84774 16.8508 8.22579 16.9798 8.60175 17.0898C8.65625 17.0194 8.70962 16.9481 8.76184 16.8759C8.83927 16.7689 8.91416 16.6601 8.98641 16.5495C9.07451 16.4146 9.15867 16.277 9.23872 16.1369C9.28042 16.064 9.321 15.9903 9.36044 15.9159C9.23452 15.871 9.1102 15.8228 8.9876 15.7717C8.96844 15.7637 8.94932 15.7556 8.93025 15.7475C8.72314 15.6591 8.52106 15.562 8.32458 15.457C8.2712 15.4284 8.21824 15.3993 8.16569 15.3696C8.16844 15.3677 8.17118 15.3658 8.17392 15.3639C8.19482 15.3493 8.21562 15.3346 8.2363 15.3197C8.312 15.2654 8.38627 15.2093 8.4586 15.152ZM10.9329 12.5051C10.945 11.7654 10.3779 11.1589 9.67426 11.1589C8.97063 11.1589 8.41566 11.7665 8.41566 12.5051C8.41566 13.2437 8.98275 13.8502 9.67426 13.8502C10.3779 13.8502 10.934 13.2437 10.9329 12.5051ZM13.0669 12.5051C13.0669 13.2437 13.634 13.8502 14.3255 13.8502C15.0291 13.8502 15.5841 13.2437 15.5841 12.5051C15.5962 11.7654 15.0291 11.1589 14.3255 11.1589C13.6219 11.1589 13.0669 11.7665 13.0669 12.5051Z"
    fill="currentColor" />
</svg>