<svg width="16" height="16" viewBox="0 0 16 16" fill="none" xmlns="http://www.w3.org/2000/svg">
  <path fill-rule="evenodd" clip-rule="evenodd"
    d="M9.71418 4.80649C10.5993 4.44205 11.4843 5.32712 11.1199 6.21219L10.0083 8.91184C9.79939 9.41912 9.39655 9.82196 8.88927 10.0308L6.18962 11.1425C5.30455 11.5069 4.41947 10.6218 4.78392 9.73675L5.89553 7.03711C6.10441 6.52983 6.50726 6.12699 7.01454 5.91811L9.71418 4.80649ZM9.34616 6.58021L7.58566 7.30512C7.44825 7.3617 7.33913 7.47082 7.28255 7.60823L6.55764 9.36874L8.31814 8.64382C8.45555 8.58724 8.56467 8.47812 8.62125 8.34071L9.34616 6.58021Z"
    fill="currentColor" />
  <path fill-rule="evenodd" clip-rule="evenodd"
    d="M8 1.25C4.27208 1.25 1.25 4.27208 1.25 8C1.25 11.7279 4.27208 14.75 8 14.75C11.7279 14.75 14.75 11.7279 14.75 8C14.75 4.27208 11.7279 1.25 8 1.25ZM2.75 8C2.75 5.10051 5.10051 2.75 8 2.75C10.8995 2.75 13.25 5.10051 13.25 8C13.25 10.8995 10.8995 13.25 8 13.25C5.10051 13.25 2.75 10.8995 2.75 8Z"
    fill="currentColor" />
</svg>