<svg width="24" height="24" viewBox="0 0 24 24" fill="none" xmlns="http://www.w3.org/2000/svg">
  <path fill-rule="evenodd" clip-rule="evenodd"
    d="M7.5 4.25C5.98122 4.25 4.75 5.48122 4.75 7V17C4.75 18.5188 5.98122 19.75 7.5 19.75H16.5C18.0188 19.75 19.25 18.5188 19.25 17V10.7675C19.25 10.0881 18.9985 9.43279 18.5441 8.92782L15.1533 5.16035C14.6318 4.58088 13.8889 4.25 13.1093 4.25H7.5ZM6.25 7C6.25 6.30964 6.80964 5.75 7.5 5.75H12.25V10.5C12.25 10.9142 12.5858 11.25 13 11.25H17.75V17C17.75 17.6904 17.1904 18.25 16.5 18.25H7.5C6.80964 18.25 6.25 17.6904 6.25 17V7ZM17.266 9.75L14.0384 6.16379C13.9538 6.06981 13.8564 5.99021 13.75 5.9267V9.75H17.266Z"
    fill="currentColor" />
</svg>