<svg width="24" height="24" viewBox="0 0 24 24" fill="none" xmlns="http://www.w3.org/2000/svg">
  <path
    d="M6.25 7C6.25 6.30964 6.80964 5.75 7.5 5.75H16.5C17.1904 5.75 17.75 6.30964 17.75 7V8.5C17.75 8.91421 18.0858 9.25 18.5 9.25C18.9142 9.25 19.25 8.91421 19.25 8.5V7C19.25 5.48122 18.0188 4.25 16.5 4.25H7.5C5.98122 4.25 4.75 5.48122 4.75 7V17C4.75 18.5188 5.98122 19.75 7.5 19.75H13C13.4142 19.75 13.75 19.4142 13.75 19C13.75 18.5858 13.4142 18.25 13 18.25H7.5C6.80964 18.25 6.25 17.6904 6.25 17V7Z"
    fill="currentColor" />
  <path
    d="M14.25 13C14.25 12.6005 14.4262 12.2975 14.7314 12.0685C15.0543 11.8262 15.5208 11.6742 16.0183 11.6621C16.5167 11.6499 16.9685 11.7794 17.2749 12.0044C17.5563 12.211 17.75 12.5186 17.75 13C17.75 13.4029 17.6433 13.6082 17.5329 13.7408C17.4011 13.8992 17.2062 14.0251 16.9015 14.185C16.8642 14.2046 16.8232 14.2255 16.7794 14.2479C16.5228 14.3791 16.17 14.5595 15.8956 14.8006C15.516 15.1341 15.25 15.5996 15.25 16.2441C15.25 16.6583 15.5858 16.9941 16 16.9941C16.4142 16.9941 16.75 16.6583 16.75 16.2441C16.75 16.0739 16.7965 16.0058 16.8856 15.9275C17.0082 15.8198 17.1646 15.7387 17.4255 15.6034C17.4786 15.5758 17.5361 15.546 17.5985 15.5132C17.9188 15.3451 18.3489 15.1052 18.6858 14.7004C19.0442 14.2698 19.25 13.7145 19.25 13C19.25 12.0284 18.8187 11.2769 18.1626 10.7953C17.5315 10.332 16.7333 10.1441 15.9817 10.1625C15.2292 10.1809 14.4457 10.4075 13.8311 10.8687C13.1988 11.3432 12.75 12.0688 12.75 13C12.75 13.4142 13.0858 13.75 13.5 13.75C13.9142 13.75 14.25 13.4142 14.25 13Z"
    fill="currentColor" />
  <path
    d="M16.75 18.8394C16.75 18.4252 16.4142 18.0894 16 18.0894C15.5858 18.0894 15.25 18.4252 15.25 18.8394V18.9113C15.25 19.3255 15.5858 19.6613 16 19.6613C16.4142 19.6613 16.75 19.3255 16.75 18.9113V18.8394Z"
    fill="currentColor" />
</svg>