<svg width="16" height="16" viewBox="0 0 16 16" fill="none" xmlns="http://www.w3.org/2000/svg">
  <path
    d="M4.5 1.75C3.25736 1.75 2.25 2.75736 2.25 4V12C2.25 13.2426 3.25736 14.25 4.5 14.25H8.5C8.91421 14.25 9.25 13.9142 9.25 13.5C9.25 13.0858 8.91421 12.75 8.5 12.75H4.5C4.08579 12.75 3.75 12.4142 3.75 12V4C3.75 3.58579 4.08579 3.25 4.5 3.25H11.5C11.9142 3.25 12.25 3.58579 12.25 4V5C12.25 5.41421 12.5858 5.75 13 5.75C13.4142 5.75 13.75 5.41421 13.75 5V4C13.75 2.75736 12.7426 1.75 11.5 1.75H4.5Z"
    fill="currentColor" />
  <path
    d="M9.75 8.94467C9.75 8.70984 9.85223 8.52571 10.0644 8.37235C10.2942 8.20623 10.6394 8.09453 11.0177 8.08563C11.397 8.07669 11.7281 8.17265 11.942 8.3239C12.1295 8.45653 12.25 8.64185 12.25 8.94467C12.25 9.21207 12.1792 9.32644 12.12 9.39494C12.0369 9.49112 11.9053 9.5771 11.6617 9.70026C11.634 9.71422 11.6029 9.72951 11.5691 9.74615C11.3656 9.84617 11.0634 9.99473 10.828 10.194C10.4941 10.4765 10.25 10.8829 10.25 11.4447C10.25 11.8589 10.5858 12.1947 11 12.1947C11.4142 12.1947 11.75 11.8589 11.75 11.4447C11.75 11.3787 11.7559 11.3738 11.7967 11.3392C11.8799 11.2688 11.9867 11.2152 12.1948 11.1111C12.2381 11.0894 12.2857 11.0656 12.3383 11.039C12.5947 10.9094 12.9631 10.7135 13.255 10.3756C13.5708 10.0101 13.75 9.53841 13.75 8.94467C13.75 8.12783 13.3705 7.49696 12.808 7.0992C12.2719 6.72005 11.603 6.57142 10.9823 6.58604C10.3606 6.60068 9.70581 6.78068 9.18562 7.15672C8.64777 7.54552 8.25 8.15404 8.25 8.94467C8.25 9.35888 8.58579 9.69467 9 9.69467C9.41421 9.69467 9.75 9.35888 9.75 8.94467Z"
    fill="currentColor" />
  <path
    d="M11.75 13.4446C11.75 13.0304 11.4142 12.6946 11 12.6946C10.5858 12.6946 10.25 13.0304 10.25 13.4446V13.5C10.25 13.9142 10.5858 14.25 11 14.25C11.4142 14.25 11.75 13.9142 11.75 13.5V13.4446Z"
    fill="currentColor" />
</svg>