<svg width="24" height="24" viewBox="0 0 24 24" fill="none" xmlns="http://www.w3.org/2000/svg">
  <path
    d="M15.541 10.5194C15.8279 10.2206 15.8182 9.74582 15.5194 9.45896C15.2206 9.1721 14.7458 9.18179 14.459 9.4806L11.1291 12.9492L9.50956 11.4497C9.20562 11.1683 8.7311 11.1865 8.44968 11.4904C8.16826 11.7944 8.18651 12.2689 8.49044 12.5503L10.6504 14.5503C10.9505 14.8282 11.4178 14.8144 11.701 14.5194L15.541 10.5194Z"
    fill="currentColor" />
  <path fill-rule="evenodd" clip-rule="evenodd"
    d="M4 12C4 7.58172 7.58172 4 12 4C16.4183 4 20 7.58172 20 12C20 16.4183 16.4183 20 12 20C7.58172 20 4 16.4183 4 12ZM12 18.5C8.41015 18.5 5.5 15.5899 5.5 12C5.5 8.41015 8.41015 5.5 12 5.5C15.5899 5.5 18.5 8.41015 18.5 12C18.5 15.5899 15.5899 18.5 12 18.5Z"
    fill="currentColor" />
</svg>