<svg width="16" height="16" viewBox="0 0 16 16" fill="none" xmlns="http://www.w3.org/2000/svg">
  <path fill-rule="evenodd" clip-rule="evenodd"
    d="M9.42903 3.40529C10.1124 2.72188 11.2205 2.72188 11.9039 3.40529L12.9721 4.47354C13.6504 5.15175 13.6563 6.24951 12.9854 6.935L7.78385 12.25H13.5004C13.9147 12.25 14.2504 12.5858 14.2504 13C14.2504 13.4142 13.9147 13.75 13.5004 13.75H5.58173C5.58112 13.75 5.58051 13.75 5.5799 13.75H3.6039C3.60338 13.75 3.60286 13.75 3.60233 13.75H3.50045C3.38031 13.75 3.26677 13.7218 3.16611 13.6715C2.61577 13.4661 2.25884 12.8853 2.37568 12.2677L2.6974 10.567C2.76277 10.2214 2.93076 9.90356 3.17946 9.65486L9.42903 3.40529ZM3.90563 12.25L5.5799 12.25C5.58013 12.25 5.58036 12.25 5.58059 12.25C5.64758 12.2498 5.71171 12.2228 5.75858 12.1749L11.9134 5.88584C12.0092 5.78791 12.0084 5.63109 11.9115 5.5342L10.8432 4.46595C10.7456 4.36832 10.5873 4.36832 10.4897 4.46595L4.24012 10.7155C4.20459 10.751 4.1806 10.7965 4.17126 10.8458L3.90563 12.25Z"
    fill="currentColor" />
</svg>