<svg width="24" height="24" viewBox="0 0 24 24" fill="none" xmlns="http://www.w3.org/2000/svg">
  <path fill-rule="evenodd" clip-rule="evenodd"
    d="M17.5497 5.4893C16.671 4.61062 15.2464 4.61062 14.3677 5.4893L5.54318 14.3138C5.18668 14.6703 4.96024 15.1362 4.90019 15.6368L4.60659 18.0845C4.49921 18.9797 5.20013 19.7666 6.10171 19.7631L8.87792 19.7524C8.90993 19.7523 8.94186 19.7515 8.9737 19.75H19.4997C19.9139 19.75 20.2497 19.4142 20.2497 19C20.2497 18.5858 19.9139 18.25 19.4997 18.25H11.2909L19.1609 10.2581C20.0281 9.37753 20.0227 7.96232 19.1488 7.0884L17.5497 5.4893ZM8.92951 18.25C9.10834 18.2356 9.27683 18.1574 9.40361 18.0287L18.0922 9.20564C18.3812 8.91211 18.3794 8.44037 18.0881 8.14907L16.489 6.54996C16.1961 6.25707 15.7212 6.25707 15.4283 6.54996L6.60384 15.3745C6.48501 15.4933 6.40953 15.6486 6.38951 15.8155L6.09591 18.2631L8.16118 18.2552C8.19021 18.2517 8.21974 18.25 8.24969 18.25H8.92951Z"
    fill="currentColor" />
</svg>