<svg width="24" height="24" viewBox="0 0 24 24" fill="none" xmlns="http://www.w3.org/2000/svg">
  <path
    d="M15.5304 4.96967C15.2375 4.67678 14.7626 4.67678 14.4697 4.96967C14.1768 5.26256 14.1768 5.73744 14.4697 6.03033L16.6894 8.25H5.50002C5.08581 8.25 4.75002 8.58579 4.75002 9C4.75002 9.41421 5.08581 9.75 5.50002 9.75H18.5C18.8034 9.75 19.0768 9.56727 19.1929 9.28701C19.309 9.00676 19.2449 8.68417 19.0304 8.46967L15.5304 4.96967Z"
    fill="currentColor" />
  <path
    d="M8.46969 19.0303C8.76258 19.3232 9.23746 19.3232 9.53035 19.0303C9.82324 18.7374 9.82324 18.2626 9.53035 17.9697L7.31068 15.75H18.5C18.9142 15.75 19.25 15.4142 19.25 15C19.25 14.5858 18.9142 14.25 18.5 14.25H5.50002C5.19668 14.25 4.9232 14.4327 4.80711 14.713C4.69103 14.9932 4.75519 15.3158 4.96969 15.5303L8.46969 19.0303Z"
    fill="currentColor" />
</svg>