<svg width="16" height="16" viewBox="0 0 16 16" fill="none" xmlns="http://www.w3.org/2000/svg">
  <path
    d="M11.2809 2.8753C10.9359 2.44404 10.3066 2.37412 9.87531 2.71913C9.44405 3.06414 9.37413 3.69343 9.71914 4.12469L10.4194 5H3.50001C2.94772 5 2.50001 5.44771 2.50001 6C2.50001 6.55228 2.94772 7 3.50001 7H12.5C12.8844 7 13.2348 6.77965 13.4013 6.43319C13.5678 6.08672 13.521 5.67547 13.2809 5.3753L11.2809 2.8753Z"
    fill="currentColor" />
  <path
    d="M4.71914 13.1247C5.06415 13.556 5.69344 13.6259 6.1247 13.2809C6.55597 12.9359 6.62589 12.3066 6.28088 11.8753L5.58063 11H12.5C13.0523 11 13.5 10.5523 13.5 10C13.5 9.44771 13.0523 9 12.5 9H3.50001C3.1156 9 2.76523 9.22034 2.59871 9.56681C2.43219 9.91328 2.479 10.3245 2.71914 10.6247L4.71914 13.1247Z"
    fill="currentColor" />
</svg>