<svg width="16" height="16" viewBox="0 0 16 16" fill="none" xmlns="http://www.w3.org/2000/svg">
  <path
    d="M11.0857 3.03148C10.8269 2.70803 10.3549 2.65559 10.0315 2.91435C9.70804 3.1731 9.6556 3.64507 9.91436 3.96852L10.9395 5.25H3.50001C3.08579 5.25 2.75001 5.58578 2.75001 6C2.75001 6.41421 3.08579 6.75 3.50001 6.75H12.5C12.7883 6.75 13.0511 6.58474 13.176 6.32489C13.3009 6.06504 13.2658 5.7566 13.0857 5.53148L11.0857 3.03148Z"
    fill="currentColor" />
  <path
    d="M4.91436 12.9685C5.17311 13.292 5.64508 13.3444 5.96853 13.0856C6.29197 12.8269 6.34442 12.3549 6.08566 12.0315L5.06048 10.75H12.5C12.9142 10.75 13.25 10.4142 13.25 10C13.25 9.58578 12.9142 9.25 12.5 9.25H3.50001C3.2117 9.25 2.94892 9.41526 2.82403 9.67511C2.69914 9.93495 2.73425 10.2434 2.91436 10.4685L4.91436 12.9685Z"
    fill="currentColor" />
</svg>