<svg width="16" height="16" viewBox="0 0 16 16" fill="none" xmlns="http://www.w3.org/2000/svg">
  <path fill-rule="evenodd" clip-rule="evenodd"
    d="M4 3.75C3.86193 3.75 3.75 3.86193 3.75 4V12C3.75 12.1381 3.86193 12.25 4 12.25H12C12.1381 12.25 12.25 12.1381 12.25 12V5.5C12.25 5.36193 12.1381 5.25 12 5.25H9.25C9.02742 5.25 8.81633 5.15113 8.67383 4.98014L7.72368 3.83995C7.67618 3.78296 7.60582 3.75 7.53163 3.75H4ZM2.25 4C2.25 3.0335 3.0335 2.25 4 2.25H7.53163C8.05099 2.25 8.54352 2.48069 8.87601 2.87968L9.60128 3.75H12C12.9665 3.75 13.75 4.5335 13.75 5.5V12C13.75 12.9665 12.9665 13.75 12 13.75H4C3.0335 13.75 2.25 12.9665 2.25 12V4Z"
    fill="currentColor" />
</svg>