<svg width="24" height="24" viewBox="0 0 24 24" fill="none" xmlns="http://www.w3.org/2000/svg">
  <path fill-rule="evenodd" clip-rule="evenodd"
    d="M7 6.75C6.58579 6.75 6.25 7.08579 6.25 7.5V16.5C6.25 16.9142 6.58579 17.25 7 17.25H17C17.4142 17.25 17.75 16.9142 17.75 16.5V9.5C17.75 9.08579 17.4142 8.75 17 8.75H14.3125C14.0962 8.75 13.8905 8.65664 13.7481 8.49388L12.4463 7.00612C12.3039 6.84336 12.0981 6.75 11.8818 6.75H7ZM4.75 7.5C4.75 6.25736 5.75736 5.25 7 5.25H11.8818C12.5307 5.25 13.1479 5.53008 13.5751 6.01836L14.6528 7.25H17C18.2426 7.25 19.25 8.25736 19.25 9.5V16.5C19.25 17.7426 18.2426 18.75 17 18.75H7C5.75736 18.75 4.75 17.7426 4.75 16.5V7.5Z"
    fill="currentColor" />
</svg>