<svg width="24" height="24" viewBox="0 0 24 24" fill="none" xmlns="http://www.w3.org/2000/svg">
  <path
    d="M11.9893 7.25C12.4035 7.25 12.7393 7.58579 12.7393 8V8.58333H13.8643C14.2785 8.58333 14.6143 8.91912 14.6143 9.33333C14.6143 9.74755 14.2785 10.0833 13.8643 10.0833H11.0726C10.7504 10.0833 10.4893 10.3445 10.4893 10.6667C10.4893 10.9888 10.7504 11.25 11.0726 11.25H12.9059C14.0565 11.25 14.9893 12.1827 14.9893 13.3333C14.9893 14.4839 14.0565 15.4167 12.9059 15.4167H12.7393V16C12.7393 16.4142 12.4035 16.75 11.9893 16.75C11.575 16.75 11.2393 16.4142 11.2393 16V15.4167H10.1143C9.70004 15.4167 9.36426 15.0809 9.36426 14.6667C9.36426 14.2525 9.70004 13.9167 10.1143 13.9167H12.9059C13.2281 13.9167 13.4893 13.6555 13.4893 13.3333C13.4893 13.0112 13.2281 12.75 12.9059 12.75H11.0726C9.922 12.75 8.98926 11.8173 8.98926 10.6667C8.98926 9.51607 9.922 8.58333 11.0726 8.58333H11.2393V8C11.2393 7.58579 11.575 7.25 11.9893 7.25Z"
    fill="currentColor" />
  <path fill-rule="evenodd" clip-rule="evenodd"
    d="M4 5.75C3.58579 5.75 3.25 5.41421 3.25 5C3.25 4.58579 3.58579 4.25 4 4.25H20C20.4142 4.25 20.75 4.58579 20.75 5C20.75 5.41421 20.4142 5.75 20 5.75H19.25V17C19.25 18.5188 18.0188 19.75 16.5 19.75H7.5C5.98122 19.75 4.75 18.5188 4.75 17V5.75H4ZM6.25 5.75V17C6.25 17.6904 6.80964 18.25 7.5 18.25H16.5C17.1904 18.25 17.75 17.6904 17.75 17V5.75H6.25Z"
    fill="currentColor" />
</svg>