<svg width="16" height="16" viewBox="0 0 16 16" fill="none" xmlns="http://www.w3.org/2000/svg">
  <path
    d="M8 4.25C8.41421 4.25 8.75 4.58579 8.75 5V5.25H9.25C9.66421 5.25 10 5.58579 10 6C10 6.41421 9.66421 6.75 9.25 6.75H7.38889C7.38124 6.75 7.35589 6.75181 7.32091 6.79117C7.2847 6.8319 7.25 6.90356 7.25 7C7.25 7.09644 7.2847 7.1681 7.32091 7.20883C7.35589 7.24819 7.38124 7.25 7.38889 7.25H8.61111C9.59685 7.25 10.25 8.11899 10.25 9C10.25 9.83895 9.65773 10.667 8.75 10.7442V11C8.75 11.4142 8.41421 11.75 8 11.75C7.58579 11.75 7.25 11.4142 7.25 11V10.75H6.75C6.33579 10.75 6 10.4142 6 10C6 9.58579 6.33579 9.25 6.75 9.25H8.61111C8.61876 9.25 8.64411 9.24819 8.67909 9.20883C8.7153 9.1681 8.75 9.09644 8.75 9C8.75 8.90356 8.7153 8.8319 8.67909 8.79117C8.64411 8.75181 8.61876 8.75 8.61111 8.75H7.38889C6.40315 8.75 5.75 7.88101 5.75 7C5.75 6.16105 6.34227 5.33301 7.25 5.25585V5C7.25 4.58579 7.58579 4.25 8 4.25Z"
    fill="currentColor" />
  <path fill-rule="evenodd" clip-rule="evenodd"
    d="M1.5 3.75C1.08579 3.75 0.75 3.41421 0.75 3C0.75 2.58579 1.08579 2.25 1.5 2.25H14.5C14.9142 2.25 15.25 2.58579 15.25 3C15.25 3.41421 14.9142 3.75 14.5 3.75H13.75V11.5C13.75 12.7426 12.7426 13.75 11.5 13.75H4.5C3.25736 13.75 2.25 12.7426 2.25 11.5V3.75H1.5ZM3.75 3.75V11.5C3.75 11.9142 4.08579 12.25 4.5 12.25H11.5C11.9142 12.25 12.25 11.9142 12.25 11.5V3.75H3.75Z"
    fill="currentColor" />
</svg>