<svg width="24" height="24" viewBox="0 0 24 24" fill="none" xmlns="http://www.w3.org/2000/svg">
  <path
    d="M16.3795 6.22998C16.4995 6.22998 16.5595 6.24998 16.5595 6.24998C17.0095 7.38998 16.7295 8.22998 16.6395 8.43998C17.1695 9.01998 17.4895 9.75998 17.4895 10.66C17.4895 13.84 15.5495 14.54 13.7095 14.75C14.0095 15.01 14.2695 15.51 14.2695 16.28C14.2695 17.39 14.2695 17.84 14.2695 17.84C14.2695 18.15 14.1395 18.44 13.9195 18.66C13.6995 18.88 13.4095 19 13.0995 19H11.3295C11.0195 19 10.7295 18.88 10.5095 18.66C10.2895 18.44 10.1695 18.15 10.1595 17.84V17.01C9.82955 17.08 9.52955 17.11 9.26955 17.11C7.72955 17.11 7.36955 16.03 7.36955 16.03C6.98955 15.07 6.44955 14.82 6.44955 14.82C5.72955 14.33 6.44955 14.32 6.49955 14.32C7.32955 14.38 7.76955 15.17 7.76955 15.17C8.17955 15.88 8.73955 16.08 9.22955 16.08C9.61955 16.08 9.96955 15.96 10.1795 15.86C10.2495 15.32 10.4695 14.96 10.7095 14.75C8.86955 14.55 6.92955 13.84 6.92955 10.66C6.92955 9.75998 7.24955 9.01998 7.77955 8.43998C7.69955 8.22998 7.41955 7.38998 7.86955 6.24998C7.86955 6.24998 7.92955 6.22998 8.04955 6.22998C8.34955 6.22998 9.02955 6.33998 10.1395 7.09998C10.8195 6.90998 11.5195 6.81998 12.2195 6.81998C12.9195 6.81998 13.6295 6.90998 14.2895 7.09998C15.4095 6.33998 16.0795 6.22998 16.3795 6.22998ZM16.3795 4.72998C15.6895 4.72998 14.8895 4.98998 14.0195 5.48998C13.4395 5.37998 12.8395 5.31998 12.2195 5.31998C11.6095 5.31998 10.9995 5.37998 10.4095 5.49998C9.53955 4.98998 8.74955 4.72998 8.04955 4.72998C7.74955 4.72998 7.53955 4.77998 7.40955 4.81998C6.97955 4.95998 6.63955 5.27998 6.46955 5.69998C6.08955 6.65998 6.06955 7.49998 6.15955 8.10998C5.67955 8.85998 5.42955 9.72998 5.42955 10.66C5.42955 11.39 5.51955 12.18 5.77955 12.93C5.16955 13.13 4.81955 13.58 4.68955 14C4.54955 14.44 4.48955 15.3 5.58955 16.06C5.61955 16.08 5.64955 16.1 5.68955 16.12C5.72955 16.16 5.83955 16.28 5.95955 16.56C6.21955 17.28 7.06955 18.4 8.76955 18.59C8.89955 19.02 9.12955 19.41 9.44955 19.73C9.94955 20.23 10.6195 20.5 11.3295 20.5H13.1095C13.8195 20.5 14.4895 20.23 14.9895 19.73C15.4895 19.23 15.7795 18.56 15.7795 17.85C15.7795 17.85 15.7795 17.39 15.7795 16.28C15.7795 16.12 15.7695 15.96 15.7595 15.81C18.3895 14.83 18.9995 12.56 18.9995 10.66C18.9995 9.72998 18.7495 8.85998 18.2695 8.09998C18.3595 7.48998 18.3395 6.64998 17.9595 5.68998C17.7895 5.26998 17.4495 4.94998 17.0195 4.80998C16.8995 4.77998 16.6795 4.72998 16.3795 4.72998Z"
    fill="currentColor" />
</svg>