<svg width="16" height="16" viewBox="0 0 16 16" fill="none" xmlns="http://www.w3.org/2000/svg">
  <path
    d="M8.75 3C8.75 2.58579 8.41421 2.25 8 2.25C7.58579 2.25 7.25 2.58579 7.25 3V8.76041L4.9948 6.5052C4.7019 6.21231 4.22703 6.21231 3.93414 6.5052C3.64124 6.7981 3.64124 7.27297 3.93414 7.56586L7.46967 11.1014C7.76256 11.3943 8.23744 11.3943 8.53033 11.1014L12.0659 7.56586C12.3588 7.27297 12.3588 6.7981 12.0659 6.5052C11.773 6.21231 11.2981 6.21231 11.0052 6.5052L8.75 8.76041V3Z"
    fill="currentColor" />
  <path
    d="M2.75 13C2.75 12.5858 3.08579 12.25 3.5 12.25H12.5C12.9142 12.25 13.25 12.5858 13.25 13C13.25 13.4142 12.9142 13.75 12.5 13.75H3.5C3.08579 13.75 2.75 13.4142 2.75 13Z"
    fill="currentColor" />
</svg>