<svg width="24" height="24" viewBox="0 0 24 24" fill="none" xmlns="http://www.w3.org/2000/svg">
  <path
    d="M18.2581 5.74229C16.0322 3.51636 12.4233 3.51636 10.1973 5.74229L9.24276 6.69686C8.94987 6.98975 8.94987 7.46463 9.24276 7.75752C9.53566 8.05041 10.0105 8.05041 10.3034 7.75752L11.258 6.80295C12.8981 5.16281 15.5573 5.16281 17.1975 6.80295C18.8376 8.4431 18.8376 11.1023 17.1975 12.7424L16.2429 13.697C15.95 13.9899 15.95 14.4648 16.2429 14.7577C16.5358 15.0506 17.0107 15.0506 17.3036 14.7577L18.2581 13.8031C20.4841 11.5772 20.4841 7.96822 18.2581 5.74229Z"
    fill="currentColor" />
  <path
    d="M7.75792 10.303C8.05081 10.0101 8.05081 9.53526 7.75792 9.24237C7.46502 8.94947 6.99015 8.94947 6.69726 9.24237L5.74269 10.1969C3.51676 12.4229 3.51676 16.0318 5.74269 18.2577C7.96862 20.4837 11.5776 20.4837 13.8035 18.2577L14.7581 17.3032C15.051 17.0103 15.051 16.5354 14.7581 16.2425C14.4652 15.9496 13.9903 15.9496 13.6974 16.2425L12.7428 17.1971C11.1027 18.8372 8.44349 18.8372 6.80335 17.1971C5.16321 15.5569 5.16321 12.8977 6.80335 11.2576L7.75792 10.303Z"
    fill="currentColor" />
  <path
    d="M13.5305 11.5303C13.8234 11.2374 13.8234 10.7626 13.5305 10.4697C13.2376 10.1768 12.7628 10.1768 12.4699 10.4697L10.3485 12.591C10.0557 12.8839 10.0557 13.3588 10.3485 13.6516C10.6414 13.9445 11.1163 13.9445 11.4092 13.6516L13.5305 11.5303Z"
    fill="currentColor" />
</svg>