<svg width="16" height="16" viewBox="0 0 16 16" fill="none" xmlns="http://www.w3.org/2000/svg">
  <path
    d="M13.0301 2.96955C11.2183 1.15783 8.28096 1.15783 6.46924 2.96955L5.71922 3.71957C5.42633 4.01247 5.42633 4.48734 5.71922 4.78023C6.01211 5.07313 6.48699 5.07313 6.77988 4.78023L7.5299 4.03021C8.75583 2.80428 10.7435 2.80428 11.9694 4.03021C13.1953 5.25615 13.1953 7.24377 11.9694 8.46971L11.2194 9.21973C10.9265 9.51262 10.9265 9.9875 11.2194 10.2804C11.5123 10.5733 11.9871 10.5733 12.28 10.2804L13.0301 9.53037C14.8418 7.71865 14.8418 4.78127 13.0301 2.96955Z"
    fill="currentColor" />
  <path
    d="M4.77982 6.78029C5.07272 6.4874 5.07272 6.01252 4.77982 5.71963C4.48693 5.42674 4.01206 5.42674 3.71916 5.71963L2.96914 6.46965C1.15742 8.28137 1.15742 11.2187 2.96914 13.0305C4.78086 14.8422 7.71824 14.8422 9.52996 13.0305L10.28 12.2804C10.5729 11.9876 10.5729 11.5127 10.28 11.2198C9.98708 10.9269 9.51221 10.9269 9.21932 11.2198L8.4693 11.9698C7.24336 13.1957 5.25573 13.1957 4.0298 11.9698C2.80387 10.7439 2.80387 8.75624 4.0298 7.53031L4.77982 6.78029Z"
    fill="currentColor" />
  <path
    d="M9.02998 8.03034C9.32287 7.73745 9.32287 7.26257 9.02998 6.96968C8.73708 6.67679 8.26221 6.67679 7.96932 6.96968L6.90866 8.03034C6.61576 8.32323 6.61576 8.79811 6.90866 9.091C7.20155 9.38389 7.67642 9.38389 7.96932 9.091L9.02998 8.03034Z"
    fill="currentColor" />
</svg>