<svg width="16" height="16" viewBox="0 0 16 16" fill="none" xmlns="http://www.w3.org/2000/svg">
  <path
    d="M5.25 9C5.25 8.58579 5.58579 8.25 6 8.25H8C8.41421 8.25 8.75 8.58579 8.75 9C8.75 9.41421 8.41421 9.75 8 9.75H6C5.58579 9.75 5.25 9.41421 5.25 9Z"
    fill="currentColor" />
  <path
    d="M6 5.25C5.58579 5.25 5.25 5.58579 5.25 6C5.25 6.41421 5.58579 6.75 6 6.75H10C10.4142 6.75 10.75 6.41421 10.75 6C10.75 5.58579 10.4142 5.25 10 5.25H6Z"
    fill="currentColor" />
  <path fill-rule="evenodd" clip-rule="evenodd"
    d="M2.25 4C2.25 2.75736 3.25736 1.75 4.5 1.75H11.5C12.7426 1.75 13.75 2.75736 13.75 4V12C13.75 13.2426 12.7426 14.25 11.5 14.25H4.5C3.25736 14.25 2.25 13.2426 2.25 12V4ZM4.5 3.25C4.08579 3.25 3.75 3.58579 3.75 4V12C3.75 12.4142 4.08579 12.75 4.5 12.75H11.5C11.9142 12.75 12.25 12.4142 12.25 12V4C12.25 3.58579 11.9142 3.25 11.5 3.25H4.5Z"
    fill="currentColor" />
</svg>