<svg width="24" height="24" viewBox="0 0 24 24" fill="none" xmlns="http://www.w3.org/2000/svg">
  <path
    d="M8.75 9C8.75 8.58579 9.08579 8.25 9.5 8.25H14.5C14.9142 8.25 15.25 8.58579 15.25 9C15.25 9.41421 14.9142 9.75 14.5 9.75H9.5C9.08579 9.75 8.75 9.41421 8.75 9Z"
    fill="currentColor" />
  <path
    d="M9.5 12.25C9.08579 12.25 8.75 12.5858 8.75 13C8.75 13.4142 9.08579 13.75 9.5 13.75H12C12.4142 13.75 12.75 13.4142 12.75 13C12.75 12.5858 12.4142 12.25 12 12.25H9.5Z"
    fill="currentColor" />
  <path fill-rule="evenodd" clip-rule="evenodd"
    d="M4.75 7C4.75 5.48122 5.98122 4.25 7.5 4.25H16.5C18.0188 4.25 19.25 5.48122 19.25 7V17C19.25 18.5188 18.0188 19.75 16.5 19.75H7.5C5.98122 19.75 4.75 18.5188 4.75 17V7ZM7.5 5.75C6.80964 5.75 6.25 6.30964 6.25 7V17C6.25 17.6904 6.80964 18.25 7.5 18.25H16.5C17.1904 18.25 17.75 17.6904 17.75 17V7C17.75 6.30964 17.1904 5.75 16.5 5.75H7.5Z"
    fill="currentColor" />
</svg>