<svg width="16" height="16" viewBox="0 0 16 16" fill="none" xmlns="http://www.w3.org/2000/svg">
  <path fill-rule="evenodd" clip-rule="evenodd"
    d="M8 2.25C5.92893 2.25 4.25 3.92893 4.25 6V7.26772C3.40193 7.38903 2.75 8.11838 2.75 9V12C2.75 12.9665 3.5335 13.75 4.5 13.75H11.5C12.4665 13.75 13.25 12.9665 13.25 12V9C13.25 8.11838 12.5981 7.38903 11.75 7.26772V6C11.75 3.92893 10.0711 2.25 8 2.25ZM10.25 7.25V6C10.25 4.75736 9.24264 3.75 8 3.75C6.75736 3.75 5.75 4.75736 5.75 6V7.25H10.25ZM4.5 8.75C4.36193 8.75 4.25 8.86193 4.25 9V12C4.25 12.1381 4.36193 12.25 4.5 12.25H11.5C11.6381 12.25 11.75 12.1381 11.75 12V9C11.75 8.86193 11.6381 8.75 11.5 8.75H4.5Z"
    fill="currentColor" />
</svg>