<svg width="24" height="24" viewBox="0 0 24 24" fill="none" xmlns="http://www.w3.org/2000/svg">
  <path fill-rule="evenodd" clip-rule="evenodd"
    d="M12 3.75C9.1005 3.75 6.75 6.1005 6.75 9V10.2637C5.62501 10.3881 4.75 11.3419 4.75 12.5V17.5C4.75 18.7426 5.75736 19.75 7 19.75H17C18.2426 19.75 19.25 18.7426 19.25 17.5V12.5C19.25 11.3419 18.375 10.3881 17.25 10.2637V9C17.25 6.10051 14.8995 3.75 12 3.75ZM15.75 10.25V9C15.75 6.92893 14.0711 5.25 12 5.25C9.92893 5.25 8.25 6.92893 8.25 9V10.25H15.75ZM7 11.75C6.58579 11.75 6.25 12.0858 6.25 12.5V17.5C6.25 17.9142 6.58579 18.25 7 18.25H17C17.4142 18.25 17.75 17.9142 17.75 17.5V12.5C17.75 12.0858 17.4142 11.75 17 11.75H7Z"
    fill="currentColor" />
</svg>