<svg width="24" height="24" viewBox="0 0 24 24" fill="none" xmlns="http://www.w3.org/2000/svg">
  <path
    d="M13 6.25C12.5858 6.25 12.25 6.58579 12.25 7C12.25 7.41421 12.5858 7.75 13 7.75H15.1899L12.4704 10.4697C12.1775 10.7626 12.1775 11.2374 12.4704 11.5303C12.7632 11.8232 13.2381 11.8232 13.531 11.5303L16.25 8.81121V11C16.25 11.4142 16.5858 11.75 17 11.75C17.4142 11.75 17.75 11.4142 17.75 11V7C17.75 6.58579 17.4142 6.25 17 6.25H13Z"
    fill="currentColor" />
  <path
    d="M7.75 15.1893V13C7.75 12.5858 7.41421 12.25 7 12.25C6.58579 12.25 6.25 12.5858 6.25 13V17C6.25 17.4142 6.58579 17.75 7 17.75H11C11.4142 17.75 11.75 17.4142 11.75 17C11.75 16.5858 11.4142 16.25 11 16.25H8.81063L11.5658 13.4947C11.8587 13.2018 11.8587 12.7269 11.5658 12.434C11.2729 12.1411 10.798 12.1411 10.5051 12.434L7.75 15.1893Z"
    fill="currentColor" />
</svg>