<svg width="16" height="16" viewBox="0 0 16 16" fill="none" xmlns="http://www.w3.org/2000/svg">
  <path fill-rule="evenodd" clip-rule="evenodd"
    d="M10.1902 4.75L9.07629 4.75C8.66207 4.75 8.32629 4.41422 8.32629 4C8.32629 3.58579 8.66207 3.25 9.07629 3.25L12.0007 3.25C12.1996 3.25 12.3904 3.32903 12.531 3.46971C12.6717 3.61038 12.7507 3.80117 12.7507 4.0001L12.7503 6.92444C12.7502 7.33866 12.4144 7.6744 12.0001 7.67434C11.5859 7.67428 11.2502 7.33845 11.2503 6.92424L11.2504 5.81107L9.46804 7.59366C9.17517 7.88658 8.70029 7.88661 8.40738 7.59373C8.11447 7.30086 8.11444 6.82598 8.40731 6.53307L10.1902 4.75ZM7.59328 8.40627C7.88619 8.69915 7.88622 9.17402 7.59334 9.46693L5.81051 11.25L6.92408 11.25C7.33829 11.25 7.67408 11.5858 7.67408 12C7.67408 12.4142 7.3383 12.75 6.92408 12.75L4 12.75C3.80109 12.75 3.61031 12.671 3.46966 12.5303C3.32901 12.3897 3.24999 12.1989 3.25 12L3.25011 9.07563C3.25013 8.66141 3.58593 8.32564 4.00014 8.32565C4.41436 8.32567 4.75013 8.66147 4.75012 9.07568L4.75007 10.1891L6.53262 8.40634C6.82549 8.11343 7.30036 8.1134 7.59328 8.40627Z"
    fill="currentColor" />
</svg>