<svg width="16" height="16" viewBox="0 0 16 16" fill="none" xmlns="http://www.w3.org/2000/svg">
  <path
    d="M12.5511 2.46218C13.0973 2.46913 13.538 2.91417 13.538 3.46216V6.3865C13.538 6.93882 13.0903 7.38656 12.5381 7.38656C11.9858 7.38656 11.5382 6.93882 11.5382 6.3865V5.87448L9.70782 7.70504C9.31732 8.09559 8.6842 8.09559 8.2937 7.70504C7.9032 7.31449 7.9032 6.68129 8.2937 6.29074L10.122 4.46222H9.61413C9.06188 4.46222 8.61419 4.01448 8.61419 3.46216C8.61419 2.90984 9.06188 2.4621 9.61413 2.4621H12.5284L12.5511 2.46218Z"
    fill="currentColor" />
  <path
    d="M5.87544 11.5378H6.38588C6.93813 11.5378 7.38582 11.9855 7.38582 12.5378C7.38582 13.0901 6.93813 13.5379 6.38588 13.5379H3.46192C2.93616 13.5379 2.50517 13.1321 2.46504 12.6165C2.46265 12.5863 2.46163 12.5559 2.46198 12.5256V9.61349C2.46198 9.06117 2.90967 8.61343 3.46192 8.61343C4.01417 8.61342 4.46186 9.06117 4.46186 9.61349V10.1229L6.2901 8.29444C6.6806 7.90389 7.31372 7.90389 7.70422 8.29444C8.09472 8.68499 8.09472 9.3182 7.70422 9.70875L5.87544 11.5378Z"
    fill="currentColor" />
</svg>