<svg width="24" height="24" viewBox="0 0 24 24" fill="none" xmlns="http://www.w3.org/2000/svg">
  <path
    d="M4.125 6C4.125 5.58579 4.46079 5.25 4.875 5.25H19.125C19.5392 5.25 19.875 5.58579 19.875 6C19.875 6.41421 19.5392 6.75 19.125 6.75H4.875C4.46079 6.75 4.125 6.41421 4.125 6Z"
    fill="currentColor" />
  <path
    d="M4.125 12C4.125 11.5858 4.46079 11.25 4.875 11.25H15.7762C16.1904 11.25 16.5262 11.5858 16.5262 12C16.5262 12.4142 16.1904 12.75 15.7762 12.75H4.875C4.46079 12.75 4.125 12.4142 4.125 12Z"
    fill="currentColor" />
  <path
    d="M4.875 17.25C4.46079 17.25 4.125 17.5858 4.125 18C4.125 18.4142 4.46079 18.75 4.875 18.75H12.4042C12.8184 18.75 13.1542 18.4142 13.1542 18C13.1542 17.5858 12.8184 17.25 12.4042 17.25H4.875Z"
    fill="currentColor" />
</svg>