<svg width="24" height="24" viewBox="0 0 24 24" fill="none" xmlns="http://www.w3.org/2000/svg">
  <path
    d="M3.875 6C3.875 5.44772 4.32272 5 4.875 5H19.125C19.6773 5 20.125 5.44772 20.125 6C20.125 6.55228 19.6773 7 19.125 7H4.875C4.32272 7 3.875 6.55228 3.875 6Z"
    fill="currentColor" />
  <path
    d="M3.875 12C3.875 11.4477 4.32272 11 4.875 11H15.7467C16.299 11 16.7467 11.4477 16.7467 12C16.7467 12.5523 16.299 13 15.7467 13H4.875C4.32272 13 3.875 12.5523 3.875 12Z"
    fill="currentColor" />
  <path
    d="M4.875 17C4.32272 17 3.875 17.4477 3.875 18C3.875 18.5523 4.32272 19 4.875 19H12.375C12.9273 19 13.375 18.5523 13.375 18C13.375 17.4477 12.9273 17 12.375 17H4.875Z"
    fill="currentColor" />
</svg>