<svg width="16" height="16" viewBox="0 0 16 16" fill="none" xmlns="http://www.w3.org/2000/svg">
  <path
    d="M2.25012 4C2.25012 3.44772 2.69783 3 3.25012 3H12.7501C13.3024 3 13.7501 3.44772 13.7501 4C13.7501 4.55228 13.3024 5 12.7501 5H3.25012C2.69783 5 2.25012 4.55228 2.25012 4Z"
    fill="currentColor" />
  <path
    d="M2.25 8.46672C2.25 7.91444 2.69772 7.46672 3.25 7.46672H10.25C10.8023 7.46672 11.25 7.91444 11.25 8.46672C11.25 9.01901 10.8023 9.46672 10.25 9.46672H3.25C2.69772 9.46672 2.25 9.01901 2.25 8.46672Z"
    fill="currentColor" />
  <path
    d="M3.25012 12C2.69783 12 2.25012 12.4477 2.25012 13C2.25012 13.5523 2.69783 14 3.25012 14H7.76573C8.31802 14 8.76573 13.5523 8.76573 13C8.76573 12.4477 8.31802 12 7.76573 12H3.25012Z"
    fill="currentColor" />
</svg>