<svg width="16" height="16" viewBox="0 0 16 16" fill="none" xmlns="http://www.w3.org/2000/svg">
  <path
    d="M2.5 4C2.5 3.58579 2.83579 3.25 3.25 3.25H12.75C13.1642 3.25 13.5 3.58579 13.5 4C13.5 4.41421 13.1642 4.75 12.75 4.75H3.25C2.83579 4.75 2.5 4.41421 2.5 4Z"
    fill="currentColor" />
  <path
    d="M2.5 8C2.5 7.58579 2.83579 7.25 3.25 7.25H10.4888C10.9031 7.25 11.2388 7.58579 11.2388 8C11.2388 8.41421 10.9031 8.75 10.4888 8.75H3.25C2.83579 8.75 2.5 8.41421 2.5 8Z"
    fill="currentColor" />
  <path
    d="M3.25 11.25C2.83579 11.25 2.5 11.5858 2.5 12C2.5 12.4142 2.83579 12.75 3.25 12.75H8.25C8.66421 12.75 9 12.4142 9 12C9 11.5858 8.66421 11.25 8.25 11.25H3.25Z"
    fill="currentColor" />
</svg>