<svg width="24" height="24" viewBox="0 0 24 24" fill="none" xmlns="http://www.w3.org/2000/svg">
  <path
    d="M13.7502 9.18961V7.03562C13.7502 6.62141 13.4144 6.28562 13.0002 6.28562C12.586 6.28562 12.2502 6.62141 12.2502 7.03562V11.0356C12.2502 11.4498 12.586 11.7856 13.0002 11.7856H17.0002C17.4144 11.7856 17.7502 11.4498 17.7502 11.0356C17.7502 10.6214 17.4144 10.2856 17.0002 10.2856H14.7755L18.0306 7.03035C18.3235 6.73745 18.3235 6.26257 18.0306 5.96967C17.7377 5.67677 17.2628 5.67678 16.9699 5.96968L13.7502 9.18961Z"
    fill="currentColor" />
  <path
    d="M10.2502 14.8114V17C10.2502 17.4142 10.586 17.75 11.0002 17.75C11.4144 17.75 11.7502 17.4142 11.7502 17V13C11.7502 12.5858 11.4144 12.25 11.0002 12.25H7.0002C6.58599 12.25 6.2502 12.5858 6.2502 13C6.2502 13.4142 6.58599 13.75 7.0002 13.75H9.19025L5.97065 16.9697C5.67776 17.2626 5.67775 17.7375 5.97064 18.0304C6.26352 18.3233 6.73838 18.3233 7.03127 18.0304L10.2502 14.8114Z"
    fill="currentColor" />
</svg>