<svg width="16" height="16" viewBox="0 0 16 16" fill="none" xmlns="http://www.w3.org/2000/svg">
  <path
    d="M11.4146 6H12.0167C12.569 6 13.0167 6.44772 13.0167 7.00001C13.0167 7.55229 12.569 8.00001 12.0167 8.00001L9.00035 8.00001C8.44807 8.00001 8.00035 7.55229 8.00035 7.00001V3.98366C8.00035 3.43137 8.44807 2.98365 9.00035 2.98365C9.55263 2.98365 10.0003 3.43137 10.0003 3.98366V4.58587L11.7928 2.79298C12.1833 2.40241 12.8165 2.40233 13.207 2.79281C13.5976 3.18329 13.5977 3.81646 13.2072 4.20703L11.4146 6Z"
    fill="currentColor" />
  <path
    d="M8.00035 9C8.00035 8.44771 7.55263 8 7.00035 8H3.98402C3.43174 8 2.98402 8.44771 2.98402 9C2.98402 9.55229 3.43174 10 3.98402 10H4.5858L2.7929 11.7929C2.40237 12.1834 2.40237 12.8166 2.79289 13.2071C3.18341 13.5976 3.81657 13.5976 4.2071 13.2071L6.00035 11.4139V12.0163C6.00035 12.5686 6.44807 13.0164 7.00035 13.0164C7.55263 13.0164 8.00035 12.5686 8.00035 12.0163L8.00035 9Z"
    fill="currentColor" />
</svg>