<svg width="16" height="16" viewBox="0 0 16 16" fill="none" xmlns="http://www.w3.org/2000/svg">
  <path fill-rule="evenodd" clip-rule="evenodd"
    d="M12.5295 3.46964C12.8224 3.76253 12.8224 4.2374 12.5295 4.5303L10.6498 6.41003L11.8562 6.41024C12.2705 6.41031 12.6062 6.74615 12.6061 7.16037C12.606 7.57458 12.2702 7.91031 11.856 7.91024L8.8393 7.90973C8.4251 7.90965 8.08938 7.57384 8.08942 7.15964L8.08978 4.1438C8.08983 3.72959 8.42565 3.39384 8.83986 3.39389C9.25408 3.39394 9.58983 3.72976 9.58978 4.14398L9.58964 5.34885L11.4688 3.46964C11.7617 3.17675 12.2366 3.17675 12.5295 3.46964ZM5.34906 9.59026L3.46967 11.4697C3.17678 11.7626 3.17678 12.2374 3.46967 12.5303C3.76257 12.8232 4.23744 12.8232 4.53033 12.5303L6.41204 10.6486V11.8566C6.41204 12.2708 6.74783 12.6066 7.16204 12.6066C7.57626 12.6066 7.91204 12.2708 7.91204 11.8566V8.84026C7.91204 8.42857 7.58033 8.09436 7.1696 8.0903C7.16709 8.09028 7.16457 8.09026 7.16204 8.09026H7.15334M5.34906 9.59026H4.14571C3.7315 9.59026 3.39571 9.25448 3.39571 8.84026C3.39571 8.42605 3.7315 8.09026 4.14571 8.09026H7.15334"
    fill="currentColor" />
</svg>