<svg width="24" height="24" viewBox="0 0 24 24" fill="none" xmlns="http://www.w3.org/2000/svg">
  <path fill-rule="evenodd" clip-rule="evenodd"
    d="M4.08713 4.87387C4.2976 4.73509 4.56372 4.71133 4.79544 4.81064L8.29544 6.31064C8.5712 6.42883 8.75 6.69998 8.75 7V8.99354L11.6283 7.34882C11.8588 7.21706 12.1419 7.21706 12.3725 7.34882L15.2503 8.99329V7.00001C15.2503 6.69999 15.4291 6.42884 15.7049 6.31065L19.2049 4.81065C19.4366 4.71134 19.7027 4.7351 19.9132 4.87388C20.1236 5.01266 20.2503 5.2479 20.2503 5.50001V18.5C20.2503 18.7521 20.1236 18.9874 19.9132 19.1261C19.7027 19.2649 19.4366 19.2887 19.2049 19.1894L15.7049 17.6894C15.4291 17.5712 15.2503 17.3 15.2503 17V15.0067L12.3725 16.6512C12.1419 16.7829 11.8588 16.7829 11.6283 16.6512L8.75 15.0065V17C8.75 17.3 8.5712 17.5712 8.29544 17.6894L4.79544 19.1894C4.56372 19.2887 4.2976 19.2649 4.08713 19.1261C3.87666 18.9874 3.75 18.7521 3.75 18.5V5.5C3.75 5.2479 3.87666 5.01265 4.08713 4.87387ZM9.25037 13.5648L12.0004 15.1362L14.7504 13.5648V10.4352L12.0004 8.86381L9.25037 10.4352V13.5648ZM5.25 6.63741V17.3626L7.25 16.5055V7.49455L5.25 6.63741ZM16.7503 7.49456V16.5055L18.7503 17.3626V6.63741L16.7503 7.49456Z"
    fill="currentColor" />
</svg>