<svg width="24" height="24" viewBox="0 0 24 24" fill="none" xmlns="http://www.w3.org/2000/svg">
  <path fill-rule="evenodd" clip-rule="evenodd"
    d="M11.9927 4C9.89996 4 8.29763 5.7659 8.60972 7.7283L8.9468 9.84779C9.08788 10.7349 9.64043 11.4785 10.4038 11.9149L6.4447 14.1944C5.78088 14.5766 5.32854 15.2169 5.20836 15.9445L5.02156 17.0754C4.85457 18.0864 5.6788 19 6.75787 19H11.2272H12.7564H17.2422C18.3163 19 19.1392 18.0943 18.9803 17.0869L18.8026 15.9594C18.6865 15.2232 18.2305 14.5743 17.5587 14.1893L13.5855 11.9126C14.3468 11.476 14.8977 10.7334 15.0386 9.84779L15.3757 7.7283C15.6878 5.76589 14.0854 4 11.9927 4Z"
    stroke="currentColor" stroke-width="1.5" stroke-linejoin="round" />
</svg>