<svg width="24" height="24" viewBox="0 0 24 24" fill="none" xmlns="http://www.w3.org/2000/svg">
  <path fill-rule="evenodd" clip-rule="evenodd"
    d="M9.5 12.25C8.25736 12.25 7.25 11.2426 7.25 10C7.25 8.75736 8.25736 7.75 9.5 7.75C10.7426 7.75 11.75 8.75736 11.75 10C11.75 11.2426 10.7426 12.25 9.5 12.25ZM8.75 10C8.75 10.4142 9.08579 10.75 9.5 10.75C9.91421 10.75 10.25 10.4142 10.25 10C10.25 9.58579 9.91421 9.25 9.5 9.25C9.08579 9.25 8.75 9.58579 8.75 10Z"
    fill="currentColor" />
  <path fill-rule="evenodd" clip-rule="evenodd"
    d="M3.75 7C3.75 5.48122 4.98122 4.25 6.5 4.25H17.5C19.0188 4.25 20.25 5.48122 20.25 7V17C20.25 18.5188 19.0188 19.75 17.5 19.75H6.5C4.98122 19.75 3.75 18.5188 3.75 17V7ZM18.75 7V10.2533C14.1778 10.3742 10.4327 13.8126 9.83302 18.25H6.5C5.80964 18.25 5.25 17.6904 5.25 17V7C5.25 6.30964 5.80964 5.75 6.5 5.75H17.5C18.1904 5.75 18.75 6.30964 18.75 7ZM17.4998 18.25H11.3494C11.9339 14.6442 15.0074 11.8723 18.7498 11.7539V17C18.7498 17.6904 18.1902 18.25 17.4998 18.25Z"
    fill="currentColor" />
</svg>