<svg width="16" height="16" viewBox="0 0 16 16" fill="none" xmlns="http://www.w3.org/2000/svg">
  <path fill-rule="evenodd" clip-rule="evenodd"
    d="M12.7053 3.85048C13.064 4.05759 13.1869 4.51628 12.9798 4.875L9.97977 10.0712C9.77266 10.4299 9.31397 10.5528 8.95525 10.3457L5.27464 8.22067L2.64964 12.7673C2.44254 13.126 1.98384 13.2489 1.62513 13.0418C1.26641 12.8347 1.1435 12.376 1.35061 12.0173L4.35061 6.82116C4.55771 6.46244 5.01641 6.33953 5.37512 6.54664L9.05573 8.67164L11.6807 4.125C11.8878 3.76628 12.3465 3.64338 12.7053 3.85048Z"
    fill="currentColor" />
  <path fill-rule="evenodd" clip-rule="evenodd"
    d="M12.8861 2.47652C13.2862 2.36931 13.6974 2.60675 13.8046 3.00685L14.8399 6.87055C14.9471 7.27065 14.7097 7.6819 14.3096 7.78911C13.9095 7.89632 13.4982 7.65888 13.391 7.25878L12.5499 4.11952L9.41061 4.96068C9.01051 5.06789 8.59926 4.83045 8.49206 4.43035C8.38485 4.03025 8.62229 3.619 9.02239 3.51179L12.8861 2.47652Z"
    fill="currentColor" />
</svg>