<svg width="24" height="24" viewBox="0 0 24 24" fill="none" xmlns="http://www.w3.org/2000/svg">
  <path fill-rule="evenodd" clip-rule="evenodd"
    d="M6 4C4.89543 4 4 4.89543 4 6V9C4 10.1046 4.89543 11 6 11H9C10.1046 11 11 10.1046 11 9V6C11 4.89543 10.1046 4 9 4H6ZM6 6H9V9H6V6Z"
    fill="currentColor" />
  <path fill-rule="evenodd" clip-rule="evenodd"
    d="M15 4C13.8954 4 13 4.89543 13 6V9C13 10.1046 13.8954 11 15 11H18C19.1046 11 20 10.1046 20 9V6C20 4.89543 19.1046 4 18 4H15ZM15 6H18V9H15V6Z"
    fill="currentColor" />
  <path fill-rule="evenodd" clip-rule="evenodd"
    d="M4 15C4 13.8954 4.89543 13 6 13H9C10.1046 13 11 13.8954 11 15V18C11 19.1046 10.1046 20 9 20H6C4.89543 20 4 19.1046 4 18V15ZM9 15H6V18H9V15Z"
    fill="currentColor" />
  <path
    d="M13 14.25C13 13.5596 13.5596 13 14.25 13C14.9404 13 15.5 13.5596 15.5 14.25C15.5 14.9404 14.9404 15.5 14.25 15.5C13.5596 15.5 13 14.9404 13 14.25Z"
    fill="currentColor" />
  <path
    d="M13 18.75C13 18.0596 13.5596 17.5 14.25 17.5C14.9404 17.5 15.5 18.0596 15.5 18.75C15.5 19.4404 14.9404 20 14.25 20C13.5596 20 13 19.4404 13 18.75Z"
    fill="currentColor" />
  <path
    d="M17.5 14.25C17.5 13.5596 18.0596 13 18.75 13C19.4404 13 20 13.5596 20 14.25C20 14.9404 19.4404 15.5 18.75 15.5C18.0596 15.5 17.5 14.9404 17.5 14.25Z"
    fill="currentColor" />
  <path
    d="M17.5 18.75C17.5 18.0596 18.0596 17.5 18.75 17.5C19.4404 17.5 20 18.0596 20 18.75C20 19.4404 19.4404 20 18.75 20C18.0596 20 17.5 19.4404 17.5 18.75Z"
    fill="currentColor" />
  <path
    d="M15.2302 16.5855C15.2302 15.8951 15.7898 15.3355 16.4802 15.3355C17.1705 15.3355 17.7302 15.8951 17.7302 16.5855C17.7302 17.2758 17.1705 17.8355 16.4802 17.8355C15.7898 17.8355 15.2302 17.2758 15.2302 16.5855Z"
    fill="currentColor" />
</svg>