<svg width="16" height="16" viewBox="0 0 16 16" fill="none" xmlns="http://www.w3.org/2000/svg">
  <path fill-rule="evenodd" clip-rule="evenodd"
    d="M4 2C2.89543 2 2 2.89543 2 4V5.5C2 6.60457 2.89543 7.5 4 7.5H5.5C6.60457 7.5 7.5 6.60457 7.5 5.5V4C7.5 2.89543 6.60457 2 5.5 2H4ZM4 4H5.5V5.5H4V4Z"
    fill="currentColor" />
  <path
    d="M9.5 9C10.0523 9 10.5 9.44772 10.5 10V13.5C10.5 14.0523 10.0523 14.5 9.5 14.5C8.94772 14.5 8.5 14.0523 8.5 13.5V10C8.5 9.44772 8.94772 9 9.5 9Z"
    fill="currentColor" />
  <path
    d="M13 9C13.5523 9 14 9.44772 14 10V13.5C14 14.0523 13.5523 14.5 13 14.5C12.4477 14.5 12 14.0523 12 13.5V10C12 9.44772 12.4477 9 13 9Z"
    fill="currentColor" />
  <path fill-rule="evenodd" clip-rule="evenodd"
    d="M2 11C2 9.89543 2.89543 9 4 9H5.5C6.60457 9 7.5 9.89543 7.5 11V12.5C7.5 13.6046 6.60457 14.5 5.5 14.5H4C2.89543 14.5 2 13.6046 2 12.5V11ZM5.5 11H4V12.5H5.5V11Z"
    fill="currentColor" />
  <path fill-rule="evenodd" clip-rule="evenodd"
    d="M10.5 2C9.39543 2 8.5 2.89543 8.5 4V5.5C8.5 6.60457 9.39543 7.5 10.5 7.5H12C13.1046 7.5 14 6.60457 14 5.5V4C14 2.89543 13.1046 2 12 2H10.5ZM10.5 4H12V5.5H10.5V4Z"
    fill="currentColor" />
</svg>