<svg width="24" height="24" viewBox="0 0 24 24" fill="none" xmlns="http://www.w3.org/2000/svg">
  <path fill-rule="evenodd" clip-rule="evenodd"
    d="M6.5 4.75C5.5335 4.75 4.75 5.5335 4.75 6.5V9.5C4.75 10.4665 5.5335 11.25 6.5 11.25H9.5C10.4665 11.25 11.25 10.4665 11.25 9.5V6.5C11.25 5.5335 10.4665 4.75 9.5 4.75H6.5ZM6.25 6.5C6.25 6.36193 6.36193 6.25 6.5 6.25H9.5C9.63807 6.25 9.75 6.36193 9.75 6.5V9.5C9.75 9.63807 9.63807 9.75 9.5 9.75H6.5C6.36193 9.75 6.25 9.63807 6.25 9.5V6.5Z"
    fill="currentColor" />
  <path fill-rule="evenodd" clip-rule="evenodd"
    d="M14.5 4.75C13.5335 4.75 12.75 5.5335 12.75 6.5V9.5C12.75 10.4665 13.5335 11.25 14.5 11.25H17.5C18.4665 11.25 19.25 10.4665 19.25 9.5V6.5C19.25 5.5335 18.4665 4.75 17.5 4.75H14.5ZM14.25 6.5C14.25 6.36193 14.3619 6.25 14.5 6.25H17.5C17.6381 6.25 17.75 6.36193 17.75 6.5V9.5C17.75 9.63807 17.6381 9.75 17.5 9.75H14.5C14.3619 9.75 14.25 9.63807 14.25 9.5V6.5Z"
    fill="currentColor" />
  <path fill-rule="evenodd" clip-rule="evenodd"
    d="M4.75 14.5C4.75 13.5335 5.5335 12.75 6.5 12.75H9.5C10.4665 12.75 11.25 13.5335 11.25 14.5V17.5C11.25 18.4665 10.4665 19.25 9.5 19.25H6.5C5.5335 19.25 4.75 18.4665 4.75 17.5V14.5ZM6.5 14.25C6.36193 14.25 6.25 14.3619 6.25 14.5V17.5C6.25 17.6381 6.36193 17.75 6.5 17.75H9.5C9.63807 17.75 9.75 17.6381 9.75 17.5V14.5C9.75 14.3619 9.63807 14.25 9.5 14.25H6.5Z"
    fill="currentColor" />
  <path
    d="M14 13C13.4477 13 13 13.4477 13 14C13 14.5523 13.4477 15 14 15C14.5523 15 15 14.5523 15 14C15 13.4477 14.5523 13 14 13Z"
    fill="currentColor" />
  <path
    d="M15 16C15 15.4477 15.4477 15 16 15C16.5523 15 17 15.4477 17 16C17 16.5523 16.5523 17 16 17C15.4477 17 15 16.5523 15 16Z"
    fill="currentColor" />
  <path
    d="M18 13C17.4477 13 17 13.4477 17 14C17 14.5523 17.4477 15 18 15C18.5523 15 19 14.5523 19 14C19 13.4477 18.5523 13 18 13Z"
    fill="currentColor" />
  <path
    d="M17 18C17 17.4477 17.4477 17 18 17C18.5523 17 19 17.4477 19 18C19 18.5523 18.5523 19 18 19C17.4477 19 17 18.5523 17 18Z"
    fill="currentColor" />
  <path
    d="M14 17C13.4477 17 13 17.4477 13 18C13 18.5523 13.4477 19 14 19C14.5523 19 15 18.5523 15 18C15 17.4477 14.5523 17 14 17Z"
    fill="currentColor" />
</svg>