<svg width="16" height="16" viewBox="0 0 16 16" fill="none" xmlns="http://www.w3.org/2000/svg">
  <path fill-rule="evenodd" clip-rule="evenodd"
    d="M2.25 4C2.25 3.0335 3.0335 2.25 4 2.25H5.5C6.4665 2.25 7.25 3.0335 7.25 4V5.5C7.25 6.4665 6.4665 7.25 5.5 7.25H4C3.0335 7.25 2.25 6.4665 2.25 5.5V4ZM4 3.75C3.86193 3.75 3.75 3.86193 3.75 4V5.5C3.75 5.63807 3.86193 5.75 4 5.75H5.5C5.63807 5.75 5.75 5.63807 5.75 5.5V4C5.75 3.86193 5.63807 3.75 5.5 3.75H4Z"
    fill="currentColor" />
  <path fill-rule="evenodd" clip-rule="evenodd"
    d="M2.25 10.5C2.25 9.5335 3.0335 8.75 4 8.75H5.5C6.4665 8.75 7.25 9.5335 7.25 10.5V12C7.25 12.9665 6.4665 13.75 5.5 13.75H4C3.0335 13.75 2.25 12.9665 2.25 12V10.5ZM4 10.25C3.86193 10.25 3.75 10.3619 3.75 10.5V12C3.75 12.1381 3.86193 12.25 4 12.25H5.5C5.63807 12.25 5.75 12.1381 5.75 12V10.5C5.75 10.3619 5.63807 10.25 5.5 10.25H4Z"
    fill="currentColor" />
  <path fill-rule="evenodd" clip-rule="evenodd"
    d="M10.5 2.25C9.5335 2.25 8.75 3.0335 8.75 4V5.5C8.75 6.4665 9.5335 7.25 10.5 7.25H12C12.9665 7.25 13.75 6.4665 13.75 5.5V4C13.75 3.0335 12.9665 2.25 12 2.25H10.5ZM10.25 4C10.25 3.86193 10.3619 3.75 10.5 3.75H12C12.1381 3.75 12.25 3.86193 12.25 4V5.5C12.25 5.63807 12.1381 5.75 12 5.75H10.5C10.3619 5.75 10.25 5.63807 10.25 5.5V4Z"
    fill="currentColor" />
  <path
    d="M13 8.75C13.4142 8.75 13.75 9.08579 13.75 9.5V13C13.75 13.4142 13.4142 13.75 13 13.75C12.5858 13.75 12.25 13.4142 12.25 13V9.5C12.25 9.08579 12.5858 8.75 13 8.75Z"
    fill="currentColor" />
  <path
    d="M10.25 9.5C10.25 9.08579 9.91421 8.75 9.5 8.75C9.08579 8.75 8.75 9.08579 8.75 9.5V13C8.75 13.4142 9.08579 13.75 9.5 13.75C9.91421 13.75 10.25 13.4142 10.25 13V9.5Z"
    fill="currentColor" />
</svg>