<svg width="24" height="24" viewBox="0 0 24 24" fill="none" xmlns="http://www.w3.org/2000/svg">
  <path fill-rule="evenodd" clip-rule="evenodd"
    d="M17.2789 8.77751C17.4222 8.73552 17.559 8.6698 17.6839 8.58185C17.9519 8.39321 18.148 8.11405 18.2387 7.79224C18.3295 7.47042 18.3092 7.12598 18.1813 6.81794C18.0535 6.5099 17.826 6.25745 17.538 6.10384C17.2499 5.95023 16.9191 5.90504 16.6024 5.976C16.4428 6.01175 16.2919 6.07584 16.1556 6.16427C16.0466 6.23507 15.947 6.32148 15.86 6.42143C15.8399 6.44451 15.8205 6.46831 15.8018 6.49281L13.5952 5.82833C13.5039 5.80259 13.4103 5.78654 13.3159 5.7804C13.3025 5.77953 13.2891 5.77885 13.2756 5.77838C13.2728 5.77828 13.2699 5.77819 13.267 5.7781C13.2624 5.77797 13.2577 5.77786 13.2531 5.77777C12.9658 5.77847 12.6879 5.88383 12.4683 6.07535C12.4602 6.08239 12.4522 6.08953 12.4444 6.09677C12.2405 6.28408 12.1029 6.53673 12.0538 6.81461C12.0532 6.81808 12.0526 6.82156 12.052 6.82504L11.6051 9.55517C11.4498 9.55984 11.2949 9.56917 11.1406 9.58308C9.97538 9.68814 8.84438 10.055 7.82739 10.6602C7.52887 10.4161 7.16045 10.2815 6.77996 10.2774C6.40769 10.2683 6.04243 10.383 5.73793 10.6047C5.43343 10.8264 5.20578 11.1433 5.0885 11.5089C4.97121 11.8744 4.97049 12.2693 5.08643 12.6353C5.20237 13.0013 5.42885 13.3191 5.73253 13.542C5.72561 13.6575 5.72561 13.7732 5.73253 13.8887C5.73253 15.9775 7.86484 17.7244 10.7322 18.1323C11.1465 18.1912 11.5762 18.2222 12.0171 18.2222C12.4579 18.2222 12.8877 18.1912 13.302 18.1323C16.1693 17.7244 18.3017 15.9775 18.3017 13.8887C18.3086 13.7732 18.3086 13.6575 18.3017 13.542C18.5204 13.3724 18.6975 13.152 18.8188 12.8985C18.9401 12.6451 19.0021 12.3658 18.9999 12.0831C18.9999 11.6042 18.816 11.1449 18.4886 10.8063C18.1993 10.507 17.8189 10.3237 17.4148 10.2851C17.3616 10.28 17.3081 10.2774 17.2542 10.2774C17.1169 10.2789 16.9811 10.2974 16.8496 10.3319C16.6169 10.393 16.3976 10.5042 16.2068 10.6602C15.561 10.2711 14.8677 9.9793 14.1478 9.79136C13.8098 9.70312 13.4659 9.63777 13.1184 9.59601C12.9684 9.57798 12.8177 9.56435 12.6665 9.55517L13.0994 6.99116C13.1046 6.94904 13.1245 6.91033 13.1554 6.88237C13.1585 6.87956 13.1617 6.87687 13.165 6.87431C13.1852 6.85852 13.2087 6.84776 13.2334 6.84273C13.2407 6.84125 13.2481 6.84026 13.2556 6.8398C13.2594 6.83956 13.2632 6.83946 13.267 6.83949H13.3159L15.5085 7.53285C15.5248 7.69962 15.5689 7.86086 15.6376 8.0099C15.7064 8.15895 15.7999 8.2958 15.915 8.41379C16.1374 8.64184 16.4274 8.78568 16.7379 8.82275C16.7487 8.82404 16.7595 8.8252 16.7703 8.82623C16.9284 8.84125 17.0865 8.82818 17.2383 8.78876C17.2436 8.78738 17.2489 8.78596 17.2542 8.78451C17.2625 8.78226 17.2707 8.77992 17.2789 8.77751ZM19.0662 9.34043C19.3529 9.01148 19.5634 8.62132 19.6824 8.19934C19.8645 7.55381 19.8243 6.86334 19.5667 6.24293C19.3089 5.62177 18.8453 5.10101 18.2437 4.78025C17.641 4.45884 16.9436 4.36237 16.2745 4.51229C15.9887 4.57631 15.7179 4.683 15.4695 4.82619L14.0149 4.38818L14.002 4.38455C13.7673 4.3184 13.5249 4.28253 13.2807 4.27803L13.2651 4.27774L13.2494 4.27778C12.5953 4.27936 11.97 4.51964 11.4825 4.94478C10.9961 5.3689 10.6784 5.9483 10.5728 6.5762L10.3105 8.1784C9.45158 8.32179 8.61576 8.58536 7.82639 8.96168C7.50162 8.84579 7.15753 8.78255 6.80642 8.77763C6.10395 8.76268 5.42014 8.98063 4.85505 9.39204C4.28808 9.80483 3.87268 10.3884 3.66021 11.0506C3.44788 11.7124 3.44658 12.4257 3.65646 13.0883C3.78223 13.4853 3.98086 13.8544 4.2414 14.1757C4.34658 15.8712 5.37572 17.2615 6.71246 18.1858C8.12926 19.1653 10.0071 19.7222 12.0171 19.7222C14.0271 19.7222 15.9049 19.1653 17.3217 18.1858C18.6637 17.2579 19.6956 15.8604 19.794 14.156C19.9414 13.9674 20.0681 13.7628 20.1718 13.5461C20.3913 13.0874 20.503 12.5846 20.4999 12.0773C20.4985 11.2187 20.1685 10.3858 19.567 9.76366C19.4137 9.60505 19.2458 9.46345 19.0662 9.34043ZM9.92716 13.8249C10.0071 13.7952 10.0836 13.7554 10.155 13.7061C10.3273 13.5871 10.4615 13.4179 10.5408 13.2199C10.6201 13.0219 10.6408 12.8041 10.6004 12.594C10.56 12.3838 10.4602 12.1908 10.3137 12.0392C10.1673 11.8877 9.98062 11.7845 9.77744 11.7427C9.57426 11.7009 9.36366 11.7224 9.17226 11.8044C8.98087 11.8864 8.81729 12.0253 8.70219 12.2034C8.5871 12.3816 8.52567 12.591 8.52567 12.8053C8.52567 13.0926 8.63602 13.3682 8.83245 13.5714C9.02889 13.7746 9.2953 13.8887 9.5731 13.8887C9.62997 13.8887 9.68648 13.8839 9.74212 13.8745C9.80519 13.8638 9.86712 13.8472 9.92716 13.8249ZM10.1621 15.3187C10.1118 15.3433 10.0677 15.3803 10.034 15.4271L9.83146 15.7232C9.80381 15.765 9.7846 15.8121 9.775 15.8618C9.7654 15.9114 9.7656 15.9626 9.7756 16.0121C9.78784 16.061 9.80966 16.1067 9.83969 16.1464C9.86631 16.1817 9.8989 16.2116 9.93582 16.2347C9.94053 16.2377 9.94532 16.2405 9.95017 16.2432C9.9704 16.2544 9.99071 16.2654 10.0111 16.2762C10.1677 16.3594 10.3286 16.4325 10.4929 16.4954C10.6248 16.5459 10.7589 16.5898 10.8947 16.6269C10.9325 16.6372 10.9703 16.647 11.0083 16.6563C11.3377 16.7367 11.6762 16.7777 12.0171 16.7777C12.358 16.7777 12.6965 16.7367 13.0259 16.6563C13.059 16.6482 13.0921 16.6397 13.1251 16.6308C13.2462 16.5981 13.366 16.5601 13.4841 16.5168C13.6683 16.4493 13.8484 16.369 14.0231 16.2762C14.0372 16.2687 14.0513 16.2612 14.0653 16.2535C14.0716 16.2501 14.0778 16.2467 14.084 16.2432C14.1269 16.2191 14.1645 16.1862 14.1945 16.1464C14.2245 16.1067 14.2463 16.061 14.2586 16.0121C14.2731 15.9189 14.2531 15.8235 14.2027 15.7449L14.0002 15.4488C13.953 15.3754 13.881 15.3229 13.7984 15.3015C13.7238 15.2823 13.6454 15.2896 13.5757 15.3218C13.5731 15.323 13.5704 15.3243 13.5678 15.3256C13.5629 15.328 13.5581 15.3305 13.5533 15.3332C13.4635 15.3779 13.3721 15.4186 13.2794 15.4552C13.1282 15.5149 12.9734 15.5637 12.8162 15.6014C12.555 15.664 12.2869 15.6959 12.0171 15.6959C11.7473 15.6959 11.4792 15.664 11.218 15.6014C11.0607 15.5637 10.906 15.5149 10.7548 15.4552C10.662 15.4186 10.5706 15.3779 10.4809 15.3332C10.4762 15.3304 10.4715 15.3277 10.4667 15.3251C10.4641 15.3237 10.4615 15.3223 10.4589 15.321C10.405 15.2937 10.3453 15.2815 10.2856 15.2856C10.2704 15.2866 10.2552 15.2887 10.2401 15.2919C10.213 15.2976 10.1868 15.3067 10.1621 15.3187ZM13.8792 13.7061C14.0514 13.8252 14.2539 13.8887 14.4611 13.8887C14.7389 13.8887 15.0053 13.7746 15.2017 13.5714C15.3982 13.3682 15.5085 13.0926 15.5085 12.8053C15.5085 12.591 15.4471 12.3816 15.332 12.2034C15.2169 12.0253 15.0533 11.8864 14.8619 11.8044C14.6705 11.7224 14.4599 11.7009 14.2567 11.7427C14.0536 11.7845 13.8669 11.8877 13.7204 12.0392C13.574 12.1908 13.4742 12.3838 13.4338 12.594C13.3934 12.8041 13.4141 13.0219 13.4934 13.2199C13.5727 13.4179 13.7069 13.5871 13.8792 13.7061Z"
    fill="currentColor" />
</svg>