<svg width="16" height="16" viewBox="0 0 16 16" fill="none" xmlns="http://www.w3.org/2000/svg">
  <path fill-rule="evenodd" clip-rule="evenodd"
    d="M7.17193 1.43937C7.35796 1.1646 7.66818 1 8 1C11.866 1 15 4.13401 15 8C15 10.7382 13.4276 13.1074 11.1411 14.2571C10.6477 14.5053 10.0465 14.3064 9.79843 13.813C9.55032 13.3196 9.74918 12.7184 10.2426 12.4703C11.88 11.647 13 9.95338 13 8C13 5.79027 11.5665 3.91533 9.57878 3.25437L9.92848 4.12861C10.1336 4.64139 9.88417 5.22336 9.37139 5.42848C8.85861 5.63359 8.27664 5.38417 8.07152 4.87139L7.07152 2.37139C6.94829 2.0633 6.9859 1.71414 7.17193 1.43937ZM6.16614 2.19811C6.41727 2.68999 6.22209 3.29233 5.7302 3.54345C4.10753 4.37189 3 6.05747 3 8C3 10.2097 4.43346 12.0847 6.42122 12.7456L6.07152 11.8714C5.86641 11.3586 6.11583 10.7766 6.62861 10.5715C7.14139 10.3664 7.72336 10.6158 7.92848 11.1286L8.92848 13.6286C9.05171 13.9367 9.0141 14.2859 8.82807 14.5606C8.64204 14.8354 8.33182 15 8 15C4.13401 15 1 11.866 1 8C1 5.27702 2.55499 2.91895 4.82079 1.76217C5.31268 1.51104 5.91501 1.70622 6.16614 2.19811Z"
    fill="currentColor" />
</svg>