<svg width="16" height="16" viewBox="0 0 16 16" fill="none" xmlns="http://www.w3.org/2000/svg">
  <path fill-rule="evenodd" clip-rule="evenodd"
    d="M7.37895 1.57953C7.51847 1.37345 7.75113 1.25 8 1.25C11.7279 1.25 14.75 4.27208 14.75 8C14.75 10.6401 13.2342 12.9248 11.0288 14.0338C10.6587 14.2199 10.2079 14.0707 10.0218 13.7007C9.8357 13.3306 9.98485 12.8798 10.3549 12.6937C12.0735 11.8295 13.25 10.0515 13.25 8C13.25 5.4988 11.5009 3.40612 9.15913 2.87839L9.69636 4.22146C9.85019 4.60604 9.66313 5.04252 9.27854 5.19636C8.89396 5.35019 8.45748 5.16313 8.30364 4.77854L7.30364 2.27854C7.21122 2.04747 7.23943 1.78561 7.37895 1.57953ZM5.94348 2.31178C6.13182 2.6807 5.98544 3.13245 5.61653 3.32079C3.91346 4.19028 2.75 5.95992 2.75 8C2.75 10.5012 4.4991 12.5939 6.84087 13.1216L6.30364 11.7785C6.14981 11.394 6.33687 10.9575 6.72146 10.8036C7.10604 10.6498 7.54252 10.8369 7.69636 11.2215L8.69636 13.7215C8.78878 13.9525 8.76057 14.2144 8.62105 14.4205C8.48153 14.6266 8.24887 14.75 8 14.75C4.27208 14.75 1.25 11.7279 1.25 8C1.25 5.37457 2.74906 3.10057 4.93447 1.98483C5.30338 1.79649 5.75513 1.94287 5.94348 2.31178Z"
    fill="currentColor" />
</svg>