<svg width="24" height="24" viewBox="0 0 24 24" fill="none" xmlns="http://www.w3.org/2000/svg">
  <path fill-rule="evenodd" clip-rule="evenodd"
    d="M11.3789 4.57953C11.5185 4.37345 11.7511 4.25 12 4.25C16.2802 4.25 19.75 7.71979 19.75 12C19.75 15.0311 18.0098 17.6544 15.4774 18.9277C15.1074 19.1138 14.6565 18.9647 14.4704 18.5946C14.2843 18.2246 14.4335 17.7737 14.8035 17.5876C16.8491 16.559 18.25 14.4424 18.25 12C18.25 8.94107 16.0525 6.39541 13.15 5.85558L13.863 7.63812C14.0169 8.02271 13.8298 8.45919 13.4452 8.61302C13.0606 8.76686 12.6241 8.5798 12.4703 8.19521L11.3036 5.27854C11.2112 5.04747 11.2394 4.78561 11.3789 4.57953ZM9.4894 5.42059C9.67774 5.7895 9.53136 6.24125 9.16244 6.4296C7.13534 7.46451 5.75 9.57112 5.75 12C5.75 15.0589 7.94752 17.6046 10.85 18.1444L10.137 16.3619C9.98314 15.9773 10.1702 15.5408 10.5548 15.387C10.9394 15.2331 11.3759 15.4202 11.5297 15.8048L12.6964 18.7215C12.7888 18.9525 12.7606 19.2144 12.621 19.4205C12.4815 19.6266 12.2489 19.75 12 19.75C7.71979 19.75 4.25 16.2802 4.25 12C4.25 8.98578 5.97093 6.37481 8.48038 5.09363C8.8493 4.90529 9.30105 5.05167 9.4894 5.42059Z"
    fill="currentColor" />
</svg>