<svg width="24" height="24" viewBox="0 0 24 24" fill="none" xmlns="http://www.w3.org/2000/svg">
  <path fill-rule="evenodd" clip-rule="evenodd"
    d="M8.14438 4.72123C8.43642 5.01498 8.43502 5.48985 8.14127 5.78188L7.4057 6.51316H13.35C16.7424 6.51316 19.5 9.24833 19.5 12.6316C19.5 16.0148 16.7424 18.75 13.35 18.75H10.65C7.2576 18.75 4.5 16.0148 4.5 12.6316V10.8759L5.25 10.875L6 10.875V12.6316C6 15.1781 8.07772 17.25 10.65 17.25H13.35C15.9223 17.25 18 15.1781 18 12.6316C18 10.085 15.9223 8.01316 13.35 8.01316H5.5875C5.28375 8.01316 5.01 7.82995 4.89417 7.54915C4.77834 7.26836 4.84332 6.94543 5.05873 6.73127L7.08373 4.71812C7.37748 4.42608 7.85235 4.42748 8.14438 4.72123ZM5.25 10.875L6 10.875C6 10.4608 5.66421 10.125 5.25 10.125C4.83579 10.125 4.5 10.4617 4.5 10.8759L5.25 10.875Z"
    fill="currentColor" />
</svg>