<svg width="16" height="16" viewBox="0 0 16 16" fill="none" xmlns="http://www.w3.org/2000/svg">
  <path fill-rule="evenodd" clip-rule="evenodd"
    d="M5.59156 2.74573C5.89187 3.03102 5.90404 3.50573 5.61875 3.80604L5.47198 3.96053H8.9C11.3382 3.96053 13.25 6.02963 13.25 8.5C13.25 10.9704 11.3382 13.0395 8.9 13.0395H7.1C4.66177 13.0395 2.75 10.9704 2.75 8.5V7.26043L3.5 7.26006L4.25 7.26007V8.5C4.25 10.2154 5.56177 11.5395 7.1 11.5395H8.9C10.4382 11.5395 11.75 10.2154 11.75 8.5C11.75 6.78463 10.4382 5.46053 8.9 5.46053H3.725C3.42515 5.46053 3.15412 5.28193 3.03583 5.0064C2.91754 4.73087 2.97473 4.41136 3.18125 4.19397L4.53125 2.77291C4.81654 2.47261 5.29126 2.46044 5.59156 2.74573ZM3.5 7.26006L4.25 7.26007C4.25 6.84586 3.91421 6.51006 3.5 6.51006C3.08579 6.51006 2.75 6.84622 2.75 7.26043L3.5 7.26006Z"
    fill="currentColor" />
</svg>