<svg width="16" height="16" viewBox="0 0 16 16" fill="none" xmlns="http://www.w3.org/2000/svg">
  <path fill-rule="evenodd" clip-rule="evenodd"
    d="M6.23447 1.82136C6.60927 2.227 6.58428 2.85967 6.17864 3.23447L5.80582 3.57894H9C11.8091 3.57894 14 5.96073 14 8.78947C14 11.6182 11.8091 14 9 14H7C4.19086 14 2 11.6182 2 8.78947V7.67936L3 7.67836L4 7.67837V8.78947C4 10.6116 5.39086 12 7 12H9C10.6091 12 12 10.6115 12 8.78947C12 6.9674 10.6091 5.57894 9 5.57894H3.25C2.83834 5.57894 2.46874 5.32667 2.31874 4.94331C2.16875 4.55995 2.26901 4.12384 2.57136 3.84447L4.82136 1.76552C5.227 1.39072 5.85967 1.41572 6.23447 1.82136ZM3 7.67836L4 7.67837C4 7.12608 3.55228 6.67836 3 6.67836C2.44772 6.67836 2 7.12608 2 7.67836H3Z"
    fill="currentColor" />
</svg>