<svg width="16" height="16" viewBox="0 0 16 16" fill="none" xmlns="http://www.w3.org/2000/svg">
  <path fill-rule="evenodd" clip-rule="evenodd"
    d="M8 1C4.68629 1 2 3.68629 2 7C2 10.3137 4.68629 13 8 13C9.16664 13 10.2555 12.667 11.1768 12.091L13.2929 14.2071C13.6834 14.5976 14.3166 14.5976 14.7071 14.2071C15.0976 13.8166 15.0976 13.1834 14.7071 12.7929L12.6752 10.761C13.5039 9.73209 14 8.42398 14 7C14 3.68629 11.3137 1 8 1ZM4 7C4 4.79086 5.79086 3 8 3C10.2091 3 12 4.79086 12 7C12 9.20914 10.2091 11 8 11C5.79086 11 4 9.20914 4 7Z"
    fill="currentColor" />
</svg>