<svg width="16" height="16" viewBox="0 0 16 16" fill="none" xmlns="http://www.w3.org/2000/svg">
  <path fill-rule="evenodd" clip-rule="evenodd"
    d="M7 2.25C4.37665 2.25 2.25 4.37665 2.25 7C2.25 9.62335 4.37665 11.75 7 11.75C8.04101 11.75 9.00381 11.4151 9.78654 10.8472L12.0662 13.1269C12.3591 13.4198 12.834 13.4198 13.1269 13.1269C13.4198 12.834 13.4198 12.3591 13.1269 12.0662L10.8472 9.78654C11.4151 9.00381 11.75 8.04101 11.75 7C11.75 4.37665 9.62335 2.25 7 2.25ZM3.75 7C3.75 5.20507 5.20507 3.75 7 3.75C8.79493 3.75 10.25 5.20507 10.25 7C10.25 8.79493 8.79493 10.25 7 10.25C5.20507 10.25 3.75 8.79493 3.75 7Z"
    fill="currentColor" />
</svg>