<svg width="24" height="24" viewBox="0 0 24 24" fill="none" xmlns="http://www.w3.org/2000/svg">
  <path fill-rule="evenodd" clip-rule="evenodd"
    d="M11.9999 9C10.3431 9 8.99991 10.3431 8.99991 12C8.99991 13.6569 10.3431 15 11.9999 15C13.6568 15 14.9999 13.6569 14.9999 12C14.9999 10.3431 13.6568 9 11.9999 9ZM10.4999 12C10.4999 11.1716 11.1715 10.5 11.9999 10.5C12.8283 10.5 13.4999 11.1716 13.4999 12C13.4999 12.8284 12.8283 13.5 11.9999 13.5C11.1715 13.5 10.4999 12.8284 10.4999 12Z"
    fill="currentColor" />
  <path fill-rule="evenodd" clip-rule="evenodd"
    d="M8.8704 4.25C8.06297 4.25 7.31745 4.68264 6.91685 5.38369L3.77399 10.8837C3.37872 11.5754 3.37872 12.4246 3.77399 13.1163L6.91685 18.6163C7.31745 19.3174 8.06297 19.75 8.8704 19.75H15.1294C15.9369 19.75 16.6824 19.3174 17.083 18.6163L20.2258 13.1163C20.6211 12.4246 20.6211 11.5754 20.2258 10.8837L17.083 5.38369C16.6824 4.68264 15.9369 4.25 15.1294 4.25H8.8704ZM8.21921 6.1279C8.35275 5.89421 8.60125 5.75 8.8704 5.75L15.1294 5.75C15.3986 5.75 15.6471 5.89421 15.7806 6.1279L18.9235 11.6279C19.0552 11.8585 19.0552 12.1415 18.9235 12.3721L15.7806 17.8721C15.6471 18.1058 15.3986 18.25 15.1294 18.25H8.8704C8.60125 18.25 8.35275 18.1058 8.21921 17.8721L5.07636 12.3721C4.9446 12.1415 4.9446 11.8585 5.07636 11.6279L8.21921 6.1279Z"
    fill="currentColor" />
</svg>