<svg width="16" height="16" viewBox="0 0 16 16" fill="none" xmlns="http://www.w3.org/2000/svg">
  <path fill-rule="evenodd" clip-rule="evenodd"
    d="M5.74959 8C5.74959 6.75736 6.75695 5.75 7.99959 5.75C9.24224 5.75 10.2496 6.75736 10.2496 8C10.2496 9.24264 9.24224 10.25 7.99959 10.25C6.75695 10.25 5.74959 9.24264 5.74959 8ZM7.99959 7.25C7.58538 7.25 7.24959 7.58579 7.24959 8C7.24959 8.41421 7.58538 8.75 7.99959 8.75C8.41381 8.75 8.74959 8.41421 8.74959 8C8.74959 7.58579 8.41381 7.25 7.99959 7.25Z"
    fill="currentColor" />
  <path fill-rule="evenodd" clip-rule="evenodd"
    d="M5.32022 1.75C4.70132 1.75 4.12845 2.0769 3.8136 2.60972L1.15451 7.10972C0.830007 7.65888 0.830006 8.34111 1.15451 8.89028L3.8136 13.3903C4.12845 13.9231 4.70132 14.25 5.32022 14.25H10.679C11.2979 14.25 11.8707 13.9231 12.1856 13.3903L14.8447 8.89028C15.1692 8.34112 15.1692 7.65889 14.8447 7.10972L12.1856 2.60972C11.8707 2.0769 11.2979 1.75 10.679 1.75H5.32022ZM5.10499 3.37282C5.14997 3.2967 5.23181 3.25 5.32022 3.25L10.679 3.25C10.7674 3.25 10.8492 3.2967 10.8942 3.37282L13.5533 7.87282C13.5996 7.95127 13.5996 8.04873 13.5533 8.12718L10.8942 12.6272C10.8492 12.7033 10.7674 12.75 10.679 12.75H5.32022C5.23181 12.75 5.14997 12.7033 5.10499 12.6272L2.4459 8.12718C2.39954 8.04873 2.39954 7.95127 2.4459 7.87282L5.10499 3.37282Z"
    fill="currentColor" />
</svg>