<svg width="16" height="16" viewBox="0 0 16 16" fill="none" xmlns="http://www.w3.org/2000/svg">
  <path
    d="M12.0659 6.39919C12.3588 6.1063 12.3588 5.63143 12.0659 5.33853L8.53033 1.803C8.23744 1.5101 7.76256 1.5101 7.46967 1.803L3.93414 5.33853C3.64124 5.63142 3.64124 6.1063 3.93414 6.39919C4.22703 6.69208 4.7019 6.69208 4.9948 6.39919L7.25 4.14399V9C7.25 9.41421 7.58579 9.75 8 9.75C8.41421 9.75 8.75 9.41421 8.75 9V4.14399L11.0052 6.39919C11.2981 6.69209 11.773 6.69209 12.0659 6.39919Z"
    fill="currentColor" />
  <path
    d="M3 8.25C3.41421 8.25 3.75 8.58579 3.75 9V12C3.75 12.1381 3.86193 12.25 4 12.25H12C12.1381 12.25 12.25 12.1381 12.25 12V9C12.25 8.58579 12.5858 8.25 13 8.25C13.4142 8.25 13.75 8.58579 13.75 9V12C13.75 12.9665 12.9665 13.75 12 13.75H4C3.0335 13.75 2.25 12.9665 2.25 12V9C2.25 8.58579 2.58579 8.25 3 8.25Z"
    fill="currentColor" />
</svg>