<svg width="16" height="16" viewBox="0 0 16 16" fill="none" xmlns="http://www.w3.org/2000/svg">
  <path
    d="M12.9497 6.9142C13.3403 6.52367 13.3403 5.89051 12.9497 5.49998L8.70711 1.25734C8.31658 0.866816 7.68342 0.866816 7.29289 1.25734L3.05025 5.49998C2.65973 5.8905 2.65973 6.52367 3.05025 6.91419C3.44078 7.30472 4.07394 7.30472 4.46447 6.91419L7 4.37866V9C7 9.55229 7.44772 10 8 10C8.55228 10 9 9.55229 9 9V4.37866L11.5355 6.9142C11.9261 7.30472 12.5592 7.30472 12.9497 6.9142Z"
    fill="currentColor" />
  <path
    d="M3 8C3.55228 8 4 8.44772 4 9V11.5C4 11.7761 4.22386 12 4.5 12H11.5C11.7761 12 12 11.7761 12 11.5V9C12 8.44772 12.4477 8 13 8C13.5523 8 14 8.44772 14 9V11.5C14 12.8807 12.8807 14 11.5 14H4.5C3.11929 14 2 12.8807 2 11.5V9C2 8.44772 2.44772 8 3 8Z"
    fill="currentColor" />
</svg>