<svg width="24" height="24" viewBox="0 0 24 24" fill="none" xmlns="http://www.w3.org/2000/svg">
  <path
    d="M17.8336 10.3336C18.1265 10.0407 18.1265 9.56586 17.8336 9.27297L12.5303 3.96967C12.2374 3.67678 11.7626 3.67678 11.4697 3.96967L6.16637 9.27297C5.87348 9.56586 5.87348 10.0407 6.16637 10.3336C6.45926 10.6265 6.93414 10.6265 7.22703 10.3336L11.25 6.31066V14.5C11.25 14.9142 11.5858 15.25 12 15.25C12.4142 15.25 12.75 14.9142 12.75 14.5V6.31066L16.773 10.3336C17.0659 10.6265 17.5407 10.6265 17.8336 10.3336Z"
    fill="currentColor" />
  <path
    d="M5 12.75C5.41421 12.75 5.75 13.0858 5.75 13.5V17.5C5.75 17.9142 6.08579 18.25 6.5 18.25H17.5C17.9142 18.25 18.25 17.9142 18.25 17.5V13.5C18.25 13.0858 18.5858 12.75 19 12.75C19.4142 12.75 19.75 13.0858 19.75 13.5V17.5C19.75 18.7426 18.7426 19.75 17.5 19.75H6.5C5.25736 19.75 4.25 18.7426 4.25 17.5V13.5C4.25 13.0858 4.58579 12.75 5 12.75Z"
    fill="currentColor" />
</svg>