<svg width="24" height="24" viewBox="0 0 24 24" fill="none" xmlns="http://www.w3.org/2000/svg">
  <path fill-rule="evenodd" clip-rule="evenodd"
    d="M2.5 4.25C2.08579 4.25 1.75 4.58579 1.75 5C1.75 5.41421 2.08579 5.75 2.5 5.75H3.97484C4.6052 5.75 5.13693 6.21936 5.21517 6.84484L5.30568 7.56833L6.11276 15.2355C6.2333 16.3807 7.19894 17.25 8.35039 17.25H14.75C17.7876 17.25 20.25 14.7876 20.25 11.75C20.25 8.71243 17.7876 6.25 14.75 6.25H6.62086C6.29113 5.08314 5.22053 4.25 3.97484 4.25H2.5ZM6.97877 9.13395C6.99201 9.06084 6.99453 8.98452 6.98482 8.9069L6.8401 7.75H14.75C16.9591 7.75 18.75 9.54086 18.75 11.75C18.75 13.9591 16.9591 15.75 14.75 15.75H8.35039C7.96657 15.75 7.64469 15.4602 7.60451 15.0785L6.97877 9.13395Z"
    fill="currentColor" />
  <path
    d="M8 20C8.55228 20 9 19.5523 9 19C9 18.4477 8.55228 18 8 18C7.44772 18 7 18.4477 7 19C7 19.5523 7.44772 20 8 20Z"
    fill="currentColor" />
  <path
    d="M18 19C18 19.5523 17.5523 20 17 20C16.4477 20 16 19.5523 16 19C16 18.4477 16.4477 18 17 18C17.5523 18 18 18.4477 18 19Z"
    fill="currentColor" />
</svg>