<svg width="16" height="16" viewBox="0 0 16 16" fill="none" xmlns="http://www.w3.org/2000/svg">
  <path fill-rule="evenodd" clip-rule="evenodd"
    d="M1.42773 2.25C1.01352 2.25 0.677734 2.58579 0.677734 3C0.677734 3.41421 1.01352 3.75 1.42773 3.75H2.70373C2.96595 3.75 3.19094 3.92388 3.26301 4.16728L3.81509 9.67455C3.90475 10.569 4.65746 11.25 5.55636 11.25H9.75C11.9591 11.25 13.75 9.45913 13.75 7.24999C13.75 5.04085 11.9591 3.24999 9.75 3.24999H4.48358C4.11594 2.64678 3.45231 2.25 2.70373 2.25H1.42773ZM4.88757 5.33482C4.89195 5.28699 4.89177 5.23803 4.88664 5.18845L4.84129 4.74999H9.75C11.1307 4.74999 12.25 5.86928 12.25 7.24999C12.25 8.6307 11.1307 9.74999 9.75 9.74999H5.55636C5.42795 9.74999 5.32042 9.6527 5.30761 9.52493L4.88757 5.33482Z"
    fill="currentColor" />
  <path
    d="M5 14C5.55228 14 6 13.5523 6 13C6 12.4477 5.55229 12 5 12C4.44772 12 4 12.4477 4 13C4 13.5523 4.44772 14 5 14Z"
    fill="currentColor" />
  <path
    d="M11 14C11.5523 14 12 13.5523 12 13C12 12.4477 11.5523 12 11 12C10.4477 12 10 12.4477 10 13C10 13.5523 10.4477 14 11 14Z"
    fill="currentColor" />
</svg>