<svg width="16" height="16" viewBox="0 0 16 16" fill="none" xmlns="http://www.w3.org/2000/svg">
  <path
    d="M9.66609 5.25206L9.83714 5.68448L10.3005 5.72354L12.9848 5.9498C13.6391 6.00497 13.9116 6.81494 13.4237 7.25443L11.3226 9.14687L10.9958 9.44119L11.0931 9.87008L11.7104 12.591C11.8589 13.2457 11.1385 13.7508 10.5737 13.388L8.40482 11.9951L7.99953 11.7348L7.59425 11.9951L5.42536 13.388C4.86053 13.7508 4.14015 13.2457 4.28866 12.591L4.90595 9.87008L5.00325 9.44119L4.67647 9.14687L2.57537 7.25443C2.08742 6.81493 2.35992 6.00497 3.01431 5.9498L5.69855 5.72354L6.16192 5.68448L6.33297 5.25206L7.30212 2.80205C7.55218 2.16989 8.44689 2.16988 8.69695 2.80205L9.66609 5.25206Z"
    stroke="currentColor" stroke-width="1.5" />
</svg>