<svg width="24" height="24" viewBox="0 0 24 24" fill="none" xmlns="http://www.w3.org/2000/svg">
  <path
    d="M14.3664 8.16947L14.542 8.59315L14.9991 8.62993L19.3557 8.98047C20.0199 9.03392 20.2897 9.86234 19.7845 10.2968L16.4611 13.1541L16.1147 13.4518L16.2203 13.8962L17.2339 18.1607C17.3882 18.8101 16.6812 19.3224 16.1122 18.9736L12.392 16.6929L12 16.4526L11.608 16.6929L7.8878 18.9736C7.3188 19.3224 6.61182 18.8101 6.76614 18.1607L7.77968 13.8962L7.88529 13.4518L7.53895 13.1541L4.21555 10.2968C3.71025 9.86234 3.98012 9.03392 4.64434 8.98047L9.00089 8.62993L9.45802 8.59315L9.6336 8.16947L11.3071 4.13103C11.5629 3.51387 12.4371 3.51386 12.6929 4.13103L14.3664 8.16947Z"
    stroke="currentColor" stroke-width="1.5" />
</svg>