<svg width="24" height="24" viewBox="0 0 24 24" fill="none" xmlns="http://www.w3.org/2000/svg">
  <path
    d="M10.5 6.1611C7.35482 6.84777 5 9.64889 5 13C5 16.866 8.13401 20 12 20C15.3511 20 18.1523 17.6452 18.8389 14.5H17.293C16.6401 16.8085 14.5176 18.5 12 18.5C8.96243 18.5 6.5 16.0376 6.5 13C6.5 10.4825 8.1915 8.35997 10.5 7.70704V6.1611Z"
    fill="currentColor" />
  <path fill-rule="evenodd" clip-rule="evenodd"
    d="M20.8756 11.5C20.2433 7.73125 17.2688 4.75672 13.5 4.12444C13.0122 4.0426 12.5111 4 12 4V13H21C21 12.4889 20.9574 11.9878 20.8756 11.5ZM19.35 11.5C18.7535 8.56131 16.4387 6.24655 13.5 5.65003V11.5H19.35Z"
    fill="currentColor" />
</svg>