<svg width="16" height="16" viewBox="0 0 16 16" fill="none" xmlns="http://www.w3.org/2000/svg">
  <path fill-rule="evenodd" clip-rule="evenodd"
    d="M8 1.25C7.58579 1.25 7.25 1.58579 7.25 2V8C7.25 8.41421 7.58579 8.75 8 8.75H14C14.4142 8.75 14.75 8.41421 14.75 8C14.75 4.27208 11.7279 1.25 8 1.25ZM8.75 7.25V2.80317C11.0493 3.13205 12.8679 4.95073 13.1968 7.25H8.75Z"
    fill="currentColor" />
  <path
    d="M2.25 8C2.25 5.62283 3.69254 3.58258 5.75 2.70689L5.75 4.39378C4.54892 5.14474 3.75 6.47907 3.75 8C3.75 10.3472 5.65279 12.25 8 12.25C9.52093 12.25 10.8553 11.4511 11.6062 10.25H13.2931C12.4174 12.3075 10.3772 13.75 8 13.75C4.82436 13.75 2.25 11.1756 2.25 8Z"
    fill="currentColor" />
</svg>