<svg width="16" height="16" viewBox="0 0 16 16" fill="none" xmlns="http://www.w3.org/2000/svg">
  <path
    d="M8.75 2.5C8.75 2.08579 8.41421 1.75 8 1.75C7.58579 1.75 7.25 2.08579 7.25 2.5L7.25 13.5C7.25 13.9142 7.58579 14.25 8 14.25C8.41421 14.25 8.75 13.9142 8.75 13.5L8.75 2.5Z"
    fill="currentColor" />
  <path
    d="M3.5 4.25C3.91421 4.25 4.25 4.58579 4.25 5V11C4.25 11.4142 3.91421 11.75 3.5 11.75C3.08579 11.75 2.75 11.4142 2.75 11V5C2.75 4.58579 3.08579 4.25 3.5 4.25Z"
    fill="currentColor" />
  <path
    d="M12.5 5.75C12.9142 5.75 13.25 6.08579 13.25 6.5V9.5C13.25 9.91421 12.9142 10.25 12.5 10.25C12.0858 10.25 11.75 9.91421 11.75 9.5V6.5C11.75 6.08579 12.0858 5.75 12.5 5.75Z"
    fill="currentColor" />
</svg>