<svg width="24" height="24" viewBox="0 0 24 24" fill="none" xmlns="http://www.w3.org/2000/svg">
  <path
    d="M12.75 4.75C12.75 4.33579 12.4142 4 12 4C11.5858 4 11.25 4.33579 11.25 4.75L11.25 19.25C11.25 19.6642 11.5858 20 12 20C12.4142 20 12.75 19.6642 12.75 19.25L12.75 4.75Z"
    fill="currentColor" />
  <path
    d="M5.5 7.25C5.91421 7.25 6.25 7.58579 6.25 8V16C6.25 16.4142 5.91421 16.75 5.5 16.75C5.08579 16.75 4.75 16.4142 4.75 16V8C4.75 7.58579 5.08579 7.25 5.5 7.25Z"
    fill="currentColor" />
  <path
    d="M18.5 9.25C18.9142 9.25 19.25 9.58579 19.25 10V14C19.25 14.4142 18.9142 14.75 18.5 14.75C18.0858 14.75 17.75 14.4142 17.75 14V10C17.75 9.58579 18.0858 9.25 18.5 9.25Z"
    fill="currentColor" />
</svg>