<svg width="16" height="16" viewBox="0 0 16 16" fill="none" xmlns="http://www.w3.org/2000/svg">
  <path
    d="M9 2.5C9 1.94772 8.55229 1.5 8 1.5C7.44772 1.5 7 1.94772 7 2.5L7 13.5C7 14.0523 7.44772 14.5 8 14.5C8.55228 14.5 9 14.0523 9 13.5L9 2.5Z"
    fill="currentColor" />
  <path
    d="M3.5 4C4.05228 4 4.5 4.44772 4.5 5V11C4.5 11.5523 4.05228 12 3.5 12C2.94772 12 2.5 11.5523 2.5 11V5C2.5 4.44772 2.94772 4 3.5 4Z"
    fill="currentColor" />
  <path
    d="M12.5 5.5C13.0523 5.5 13.5 5.94772 13.5 6.5V9.5C13.5 10.0523 13.0523 10.5 12.5 10.5C11.9477 10.5 11.5 10.0523 11.5 9.5V6.5C11.5 5.94772 11.9477 5.5 12.5 5.5Z"
    fill="currentColor" />
</svg>