<svg width="24" height="24" viewBox="0 0 24 24" fill="none" xmlns="http://www.w3.org/2000/svg">
  <path fill-rule="evenodd" clip-rule="evenodd"
    d="M15.7027 6.10251L16.2477 7.50001C15.5225 7.80023 14.7772 8.10477 14.0232 8.41238C13.9226 8.45343 13.8218 8.49454 13.7209 8.5357C13.3873 8.67176 13.0524 8.8084 12.717 8.94549C10.6294 9.79886 8.52642 10.67 6.64624 11.5332C6.58725 11.5603 6.52848 11.5873 6.46994 11.6144C6.34703 11.6712 6.22511 11.728 6.10427 11.7848C6.07717 11.7975 6.05013 11.8102 6.02315 11.8229C5.91903 11.8611 5.82852 11.8993 5.75009 11.9372C4.87738 12.3593 5.49955 12.7491 5.49955 12.7491C4.70305 14.0202 4.70229 14.0197 4.70152 14.0192L4.69997 14.0183L4.6968 14.0163L4.69017 14.012L4.67576 14.0027C4.66566 13.9961 4.65453 13.9887 4.64249 13.9804C4.61853 13.9639 4.5903 13.9437 4.55907 13.9199C4.49828 13.8734 4.41752 13.8064 4.3316 13.7185C4.18634 13.5701 3.88829 13.2229 3.80558 12.6895C3.70628 12.0491 3.96374 11.4876 4.34669 11.1037C4.65933 10.7903 5.05548 10.5865 5.43953 10.4398C7.79258 9.33367 10.5542 8.20724 13.1846 7.13434C14.0341 6.78784 14.8699 6.44693 15.6739 6.11409L15.6882 6.10815L15.7027 6.10251ZM5.49955 12.7491L4.70305 14.0202L4.86952 14.1245L7.05919 14.8002L7.06928 14.8033C7.75772 15.0104 8.35004 15.0159 8.81914 14.9323C8.93116 14.9124 9.03393 14.8877 9.12723 14.8607C9.2944 15.3272 9.59912 15.6373 9.77981 15.794C10.2516 16.2088 11.0701 16.7768 11.7095 17.208C12.0462 17.4351 12.3611 17.6427 12.597 17.7976C12.6526 17.8341 12.7006 17.8657 12.7416 17.8927C12.8842 17.9864 12.9425 18.0247 12.9462 18.0262C13.1263 18.1643 13.4527 18.3777 13.8286 18.5539C14.161 18.7097 14.9093 19.0236 15.7108 18.8453C16.6485 18.6363 17.095 17.9298 17.2745 17.5207C17.3693 17.3049 17.4214 17.1082 17.4506 16.9696C17.4657 16.8981 17.4759 16.8361 17.4828 16.7872C17.4849 16.7721 17.4867 16.7581 17.4883 16.7453L18.2253 11.9104L18.2273 11.8954C18.3324 11.0978 18.4529 10.3273 18.5531 9.68965C18.5597 9.64753 18.5663 9.60544 18.5729 9.5635C18.6571 9.02884 18.7375 8.51753 18.7588 8.23668C18.8003 7.74173 18.7247 7.12272 18.2876 6.60757C17.8496 6.09144 17.2792 5.95201 16.9206 5.92075C16.5645 5.8897 16.2543 5.94673 16.0757 5.98878C15.9773 6.01194 15.8942 6.0366 15.8324 6.05662C15.8012 6.06675 15.7744 6.07603 15.7528 6.08381L15.7239 6.0944L15.7123 6.09878L15.7073 6.10073L15.7049 6.10164L15.7038 6.10208C15.7032 6.10229 15.7027 6.10251 16.2477 7.50001C16.2477 7.50001 17.3562 7.06771 17.2635 8.11748C17.2486 8.32814 17.1752 8.79548 17.0788 9.40867C16.9775 10.0538 16.8508 10.8604 16.7402 11.6994L16.0011 16.5473C16.0011 16.5473 15.9395 17.2575 15.3851 17.3811C14.831 17.5043 13.9995 16.9488 13.8454 16.8252C13.8199 16.8061 13.7061 16.7313 13.5348 16.6189C12.8781 16.1879 11.3766 15.2024 10.766 14.6638C10.6167 14.5354 10.4527 14.3185 10.5293 14.0537C10.5633 13.936 10.645 13.8087 10.7969 13.6756L14.03 10.5877C14.2419 10.3754 14.4537 10.0006 14.3058 9.91723C14.2201 9.8689 14.0135 9.91846 13.6161 10.1543C13.6118 10.1568 13.6076 10.1593 13.6033 10.1619C13.5427 10.1981 13.4777 10.2386 13.4081 10.2836C13.3516 10.3202 13.2921 10.3597 13.2294 10.4025L8.9179 13.3358C8.9179 13.3358 8.42512 13.6448 7.50148 13.3669L5.49955 12.7491ZM9.09354 13.6159L8.9179 13.3358C8.98137 13.437 9.03979 13.5301 9.09354 13.6159C9.09354 13.6159 9.09355 13.6159 9.09354 13.6159Z"
    fill="currentColor" />
</svg>