<svg width="16" height="16" viewBox="0 0 16 16" fill="none" xmlns="http://www.w3.org/2000/svg">
  <path
    d="M8.75 5.99997C8.75 5.58576 8.41421 5.24997 8 5.24997C7.58579 5.24997 7.25 5.58576 7.25 5.99997V7.90906C7.25 8.14901 7.36481 8.37447 7.55886 8.51561L9.05886 9.60655C9.39385 9.85018 9.86291 9.77612 10.1065 9.44114C10.3502 9.10615 10.2761 8.63709 9.94114 8.39345L8.75 7.52715V5.99997Z"
    fill="currentColor" />
  <path fill-rule="evenodd" clip-rule="evenodd"
    d="M8 1.25C4.27208 1.25 1.25 4.27208 1.25 8C1.25 11.7279 4.27208 14.75 8 14.75C11.7279 14.75 14.75 11.7279 14.75 8C14.75 4.27208 11.7279 1.25 8 1.25ZM2.75 8C2.75 5.10051 5.10051 2.75 8 2.75C10.8995 2.75 13.25 5.10051 13.25 8C13.25 10.8995 10.8995 13.25 8 13.25C5.10051 13.25 2.75 10.8995 2.75 8Z"
    fill="currentColor" />
</svg>