<svg width="24" height="24" viewBox="0 0 24 24" fill="none" xmlns="http://www.w3.org/2000/svg">
  <path fill-rule="evenodd" clip-rule="evenodd"
    d="M12.75 4.5C12.75 4.08579 12.4142 3.75 12 3.75C11.5858 3.75 11.25 4.08579 11.25 4.5V5.25H4.5C4.08579 5.25 3.75 5.58579 3.75 6C3.75 6.41421 4.08579 6.75 4.5 6.75H5.32704L6.52084 17.7429C6.64485 18.8848 7.60907 19.75 8.75769 19.75H15.2423C16.3909 19.75 17.3552 18.8848 17.4792 17.7429L18.673 6.75H19.5C19.9142 6.75 20.25 6.41421 20.25 6C20.25 5.58579 19.9142 5.25 19.5 5.25H12.75V4.5ZM6.83586 6.75L8.01207 17.581C8.05341 17.9616 8.37481 18.25 8.75769 18.25H15.2423C15.6252 18.25 15.9466 17.9616 15.9879 17.581L17.1641 6.75H6.83586Z"
    fill="currentColor" />
</svg>