<svg width="16" height="16" viewBox="0 0 16 16" fill="none" xmlns="http://www.w3.org/2000/svg">
  <path fill-rule="evenodd" clip-rule="evenodd"
    d="M8.75 3C8.75 2.58579 8.41421 2.25 8 2.25C7.58579 2.25 7.25 2.58579 7.25 3V3.25H3C2.58579 3.25 2.25 3.58579 2.25 4C2.25 4.41421 2.58579 4.75 3 4.75H3.04272C3.00497 4.85653 2.99082 4.97324 3.00579 5.09303L3.8963 12.2171C4.00576 13.0928 4.75022 13.75 5.63278 13.75H10.3672C11.2498 13.75 11.9942 13.0928 12.1037 12.2171L12.9942 5.09303C13.0092 4.97324 12.995 4.85653 12.9573 4.75H13C13.4142 4.75 13.75 4.41421 13.75 4C13.75 3.58579 13.4142 3.25 13 3.25H8.75V3ZM4.45727 4.75C4.47485 4.79987 4.48738 4.85237 4.49421 4.90697L5.38471 12.031C5.40035 12.1561 5.5067 12.25 5.63278 12.25H10.3672C10.4933 12.25 10.5996 12.1561 10.6153 12.031L11.5058 4.90697C11.5126 4.85237 11.5252 4.79987 11.5427 4.75H4.45727Z"
    fill="currentColor" />
</svg>