<svg width="24" height="24" viewBox="0 0 24 24" fill="none" xmlns="http://www.w3.org/2000/svg">
  <path fill-rule="evenodd" clip-rule="evenodd"
    d="M18.8126 8.58165C18.6009 8.85972 18.272 9.18336 17.9396 9.45114C17.8976 9.48505 17.8554 9.51806 17.8135 9.54997C17.7423 9.60406 17.6717 9.65498 17.6028 9.70173C17.5915 9.70939 17.5802 9.71694 17.569 9.72438C17.5715 9.82917 17.5719 9.93364 17.5703 10.0378C17.5054 14.325 14.0259 18 9.3945 18C8.79467 18 8.20994 17.9381 7.64687 17.8207C6.69155 17.6214 5.79859 17.2621 5.00013 16.7736C5.62862 16.8125 6.53747 16.7743 7.4205 16.5216C7.48311 16.5037 7.5456 16.4847 7.60784 16.4646C8.17274 16.282 8.71797 16.0065 9.16192 15.6014C8.4861 15.5718 7.95123 15.3651 7.54198 15.0895C7.50862 15.067 7.47609 15.0441 7.4444 15.0208C7.36771 14.9644 7.29585 14.9056 7.22872 14.8454C6.76781 14.4317 6.52943 13.9471 6.4756 13.6602C6.62678 13.716 7.34778 13.783 7.7548 13.6268C7.60445 13.5907 7.46345 13.548 7.33127 13.4997C7.07556 13.4062 6.85285 13.2915 6.65925 13.1625C6.3496 12.9563 6.11445 12.7136 5.93794 12.4629C5.9357 12.4597 5.93348 12.4565 5.93127 12.4534C5.84428 12.3287 5.77173 12.2021 5.71167 12.0771C5.47703 11.5888 5.43307 11.1249 5.46387 10.8935C5.84763 11.1501 6.49886 11.2394 6.7547 11.217C6.66667 11.1568 6.58416 11.0951 6.5069 11.0323C6.22481 10.8029 6.0125 10.5577 5.85589 10.3072C5.70622 10.0678 5.60743 9.82355 5.54722 9.58366C5.50427 9.41248 5.48095 9.24352 5.47283 9.0801C5.43679 8.3557 5.6991 7.74029 5.87089 7.52434C6.16042 7.90802 6.48049 8.25612 6.82925 8.56706C7.82465 9.45451 9.05372 10.0393 10.4733 10.2846C10.9076 10.3596 11.3596 10.4029 11.8283 10.4134C11.7805 10.2126 11.7552 10.0037 11.7552 9.78905C11.7552 9.55156 11.7861 9.321 11.8444 9.10089C12.1638 7.89334 13.3044 7 14.6625 7C15.3949 7 16.0641 7.25985 16.5753 7.68869C16.6497 7.75103 16.7206 7.81694 16.788 7.88614C16.8132 7.88049 16.8389 7.87451 16.8652 7.8682C16.8805 7.86452 16.896 7.86073 16.9117 7.85684C17.0086 7.83272 17.1117 7.80455 17.2179 7.77322C17.2424 7.76599 17.267 7.75859 17.2918 7.75103C17.6712 7.63539 18.08 7.4829 18.3835 7.33283C18.4659 7.2921 18.5406 7.25155 18.6047 7.21197C18.5757 7.31154 18.5382 7.40881 18.494 7.50308C18.4222 7.6562 18.3329 7.80142 18.234 7.93575C17.9892 8.26843 17.6862 8.5343 17.4477 8.68809C17.4457 8.68936 17.4437 8.69061 17.4418 8.69186C17.4128 8.71039 17.3849 8.72724 17.3581 8.74234C17.3846 8.7385 17.4147 8.73394 17.4477 8.72868C17.455 8.72751 17.4624 8.72631 17.4701 8.72507C17.4705 8.725 17.4709 8.72493 17.4714 8.72486C17.8742 8.65937 18.6675 8.49879 19.0001 8.28296C18.96 8.37156 18.8952 8.47314 18.8126 8.58165ZM18.8721 10.3837C19.0412 10.242 19.2044 10.0928 19.3537 9.94413C19.6383 9.66072 20.001 9.25414 20.1956 8.82476C20.4258 8.31668 20.309 7.72153 19.9112 7.33818C19.9544 6.89162 19.7658 6.44638 19.3998 6.16771C18.9678 5.83879 18.3779 5.80982 17.9158 6.09483C17.7659 6.18729 17.4386 6.32203 17.0943 6.43664C16.4037 5.96286 15.5629 5.6875 14.6625 5.6875C12.6643 5.6875 10.9257 7.06049 10.528 8.96023C8.99553 8.6572 7.78588 7.88311 6.91856 6.73375C6.67409 6.40978 6.29348 6.21713 5.88765 6.21195C5.48182 6.20676 5.09642 6.38962 4.84375 6.70725C4.46056 7.18894 4.12498 8.10033 4.15944 9.08603C4.17199 9.44513 4.23366 9.8173 4.35757 10.1873C4.2561 10.3462 4.1885 10.5275 4.16284 10.7204C4.08674 11.2922 4.22022 12.145 4.68286 12.9356C4.8156 13.1624 4.97547 13.3843 5.16473 13.5941C5.15959 13.6961 5.16631 13.7994 5.18561 13.9023C5.26943 14.349 5.53305 14.9232 5.98809 15.4505C5.64937 15.4793 5.33545 15.4793 5.08121 15.4636C4.47944 15.4263 3.92968 15.8039 3.74838 16.3789C3.56707 16.9539 3.80085 17.5785 4.31515 17.8931C5.78699 18.7936 7.53125 19.3125 9.3945 19.3125C14.6425 19.3125 18.6297 15.2296 18.8721 10.3837Z"
    fill="currentColor" />
</svg>