<svg width="24" height="24" viewBox="0 0 24 24" fill="none" xmlns="http://www.w3.org/2000/svg">
  <path
    d="M8 6.25C7.58579 6.25 7.25 6.58579 7.25 7C7.25 7.41421 7.58579 7.75 8 7.75L15.1893 7.75L6.46967 16.4697C6.17678 16.7626 6.17678 17.2374 6.46967 17.5303C6.76256 17.8232 7.23744 17.8232 7.53033 17.5303L16.25 8.81066V16C16.25 16.4142 16.5858 16.75 17 16.75C17.4142 16.75 17.75 16.4142 17.75 16L17.75 7C17.75 6.79874 17.6707 6.616 17.5417 6.48129C17.5342 6.47346 17.5265 6.46579 17.5187 6.4583C17.4502 6.39264 17.3723 6.3425 17.2894 6.30789C17.2004 6.2706 17.1026 6.25 17 6.25H8Z"
    fill="currentColor" />
</svg>