<svg width="16" height="16" viewBox="0 0 16 16" fill="none" xmlns="http://www.w3.org/2000/svg">
  <path fill-rule="evenodd" clip-rule="evenodd"
    d="M10.1893 4.75L6 4.75C5.58579 4.75 5.25 4.41421 5.25 4C5.25 3.58579 5.58579 3.25 6 3.25L12 3.25C12.1989 3.25 12.3897 3.32902 12.5303 3.46967C12.671 3.61032 12.75 3.80109 12.75 4V10C12.75 10.4142 12.4142 10.75 12 10.75C11.5858 10.75 11.25 10.4142 11.25 10V5.81066L4.53033 12.5303C4.23744 12.8232 3.76256 12.8232 3.46967 12.5303C3.17678 12.2374 3.17678 11.7626 3.46967 11.4697L10.1893 4.75Z"
    fill="currentColor" />
</svg>