<svg width="16" height="16" viewBox="0 0 16 16" fill="none" xmlns="http://www.w3.org/2000/svg">
  <path fill-rule="evenodd" clip-rule="evenodd"
    d="M8 0.714287C8.55228 0.714287 9 1.162 9 1.71429V2.42857H11.4286C11.9809 2.42857 12.4286 2.87629 12.4286 3.42857C12.4286 3.98086 11.9809 4.42857 11.4286 4.42857H6.28571C5.57563 4.42857 5 5.00421 5 5.71429C5 6.42437 5.57563 7 6.28571 7H7.42758L9.71429 7C11.5289 7 13 8.47107 13 10.2857C13 12.1004 11.5289 13.5714 9.71429 13.5714H9V14.2857C9 14.838 8.55228 15.2857 8 15.2857C7.44772 15.2857 7 14.838 7 14.2857V13.5714H4.57143C4.01914 13.5714 3.57143 13.1237 3.57143 12.5714C3.57143 12.0191 4.01914 11.5714 4.57143 11.5714L8 11.5714L9.71429 11.5714C10.4244 11.5714 11 10.9958 11 10.2857C11 9.57563 10.4244 9 9.71429 9H8.57242L6.28571 9C4.47107 9 3 7.52894 3 5.71429C3 3.89964 4.47106 2.42857 6.28571 2.42857H7V1.71429C7 1.162 7.44772 0.714287 8 0.714287Z"
    fill="currentColor" />
</svg>