<svg width="16" height="16" viewBox="0 0 16 16" fill="none" xmlns="http://www.w3.org/2000/svg">
  <path fill-rule="evenodd" clip-rule="evenodd"
    d="M8 0.964279C8.41421 0.964279 8.75 1.30007 8.75 1.71428V2.67856H11.4286C11.8428 2.67856 12.1786 3.01435 12.1786 3.42857C12.1786 3.84278 11.8428 4.17857 11.4286 4.17857H6.28571C5.43756 4.17857 4.75 4.86613 4.75 5.71428C4.75 6.56243 5.43756 7.24999 6.28571 7.24999H7.42772C7.428 7.24999 7.42743 7.24999 7.42772 7.24999L9.71429 7.24999C11.3909 7.24999 12.75 8.60913 12.75 10.2857C12.75 11.9623 11.3909 13.3214 9.71429 13.3214H8.75V14.2857C8.75 14.6999 8.41421 15.0357 8 15.0357C7.58579 15.0357 7.25 14.6999 7.25 14.2857V13.3214H4.57143C4.15722 13.3214 3.82143 12.9856 3.82143 12.5714C3.82143 12.1572 4.15722 11.8214 4.57143 11.8214H7.99879C7.99919 11.8214 7.9996 11.8214 8 11.8214C8.0004 11.8214 8.00081 11.8214 8.00121 11.8214H9.71429C10.5624 11.8214 11.25 11.1339 11.25 10.2857C11.25 9.43756 10.5624 8.74999 9.71429 8.74999H8.57228C8.572 8.74999 8.57257 8.74999 8.57228 8.74999L6.28571 8.74999C4.60914 8.74999 3.25 7.39086 3.25 5.71428C3.25 4.0377 4.60914 2.67856 6.28571 2.67856H7.25V1.71428C7.25 1.30007 7.58579 0.964279 8 0.964279Z"
    fill="currentColor" />
</svg>