<svg width="103" height="24" viewBox="0 0 103 24" fill="none" xmlns="http://www.w3.org/2000/svg">
<path d="M28.8108 16.2905V13.4143L35.3969 3.99368H39.3778V13.2059H41.0868V16.2905H39.3778V19H35.8138V16.2905H28.8108ZM36.0639 7.912L32.5624 13.2059H36.0639V7.912ZM48.4807 19.1459C47.4108 19.1459 46.4521 18.9722 45.6045 18.6248C44.7569 18.2775 44.0761 17.7634 43.562 17.0825C43.0618 16.4017 42.7978 15.5819 42.77 14.6232H46.5632C46.6188 15.1651 46.8064 15.5819 47.126 15.8737C47.4456 16.1516 47.8624 16.2905 48.3765 16.2905C48.9045 16.2905 49.3213 16.1724 49.627 15.9362C49.9327 15.6861 50.0856 15.3457 50.0856 14.9149C50.0856 14.5537 49.9605 14.2549 49.7104 14.0187C49.4742 13.7825 49.1755 13.588 48.8142 13.4352C48.4668 13.2823 47.9666 13.1086 47.3136 12.9141C46.3687 12.6223 45.5976 12.3305 45.0001 12.0387C44.4026 11.7469 43.8885 11.3162 43.4578 10.7465C43.027 10.1768 42.8117 9.43347 42.8117 8.51642C42.8117 7.15474 43.3049 6.09179 44.2915 5.32758C45.278 4.54947 46.5632 4.16042 48.1472 4.16042C49.759 4.16042 51.0582 4.54947 52.0447 5.32758C53.0312 6.09179 53.5592 7.16168 53.6287 8.53726H49.7729C49.7451 8.06484 49.5715 7.69663 49.2519 7.43263C48.9323 7.15473 48.5224 7.01579 48.0222 7.01579C47.5915 7.01579 47.2441 7.13389 46.9801 7.3701C46.7161 7.59242 46.5841 7.91895 46.5841 8.34968C46.5841 8.8221 46.8064 9.19031 47.251 9.45431C47.6957 9.71831 48.3904 10.0032 49.3352 10.3088C50.2801 10.6284 51.0443 10.9341 51.6279 11.2259C52.2253 11.5177 52.7395 11.9415 53.1702 12.4973C53.6009 13.0531 53.8163 13.7686 53.8163 14.644C53.8163 15.4777 53.6009 16.2349 53.1702 16.9158C52.7533 17.5966 52.142 18.1385 51.3361 18.5415C50.5302 18.9444 49.5784 19.1459 48.4807 19.1459ZM76.1431 4.36884L72.329 19H68.0147L65.6803 9.37095L63.2627 19H58.9483L55.2384 4.36884H59.0526L61.1576 15.0192L63.7629 4.36884H67.6812L70.1822 15.0192L72.3081 4.36884H76.1431ZM85.4595 16.4156H79.9989L79.1235 19H75.3928L80.6867 4.36884H84.8134L90.1073 19H86.3349L85.4595 16.4156ZM84.5425 13.6644L82.7292 8.308L80.9368 13.6644H84.5425ZM102.869 9.07916C102.869 9.92674 102.674 10.7048 102.285 11.4135C101.896 12.1082 101.299 12.6709 100.493 13.1017C99.6871 13.5324 98.6867 13.7478 97.4918 13.7478H95.2825V19H91.7185V4.36884H97.4918C98.6589 4.36884 99.6454 4.57031 100.451 4.97326C101.257 5.37621 101.862 5.932 102.265 6.64063C102.668 7.34926 102.869 8.1621 102.869 9.07916ZM97.2208 10.9133C97.9016 10.9133 98.4088 10.7535 98.7423 10.4339C99.0758 10.1143 99.2425 9.66274 99.2425 9.07916C99.2425 8.49558 99.0758 8.044 98.7423 7.72442C98.4088 7.40484 97.9016 7.24505 97.2208 7.24505H95.2825V10.9133H97.2208Z" fill="currentColor"/>
<path d="M0 12C0 5.37259 5.37259 0 12 0C18.6274 0 24 5.37259 24 12C24 18.6274 18.6274 24 12 24C5.37259 24 0 18.6274 0 12Z" fill="#22306D"/>
<circle cx="12" cy="12" r="12" fill="#22306D"/>
<path fill-rule="evenodd" clip-rule="evenodd" d="M6.16388 12.0231C6.16388 9.97664 7.81506 8.32257 9.84585 8.32257C11.8696 8.32257 13.5164 9.96525 13.5278 12.0019H11.9615L9.80094 9.63361L7.60177 12.0442H9.11912C9.12487 13.4519 9.70441 14.7249 10.6359 15.6384C10.3817 15.6942 10.1174 15.7236 9.84585 15.7236C7.81506 15.7236 6.16388 14.0695 6.16388 12.0231ZM10.4725 12.0442C10.4838 14.0809 12.1306 15.7236 14.1544 15.7236C16.1852 15.7236 17.8364 14.0695 17.8364 12.0231C17.8364 9.97664 16.1852 8.32257 14.1544 8.32257C13.8829 8.32257 13.6186 8.35201 13.3644 8.40781C14.2958 9.32133 14.8754 10.5943 14.8811 12.0019H16.3561L14.157 14.4126L11.9964 12.0442H10.4725ZM11.9998 16.5923C11.3461 16.9033 10.6153 17.0769 9.84585 17.0769C7.06222 17.0769 4.81055 14.8115 4.81055 12.0231C4.81055 9.23464 7.06222 6.96924 9.84585 6.96924C10.6171 6.96924 11.3474 7.14312 12.0004 7.45385C12.6542 7.14292 13.3849 6.96924 14.1544 6.96924C16.938 6.96924 19.1897 9.23464 19.1897 12.0231C19.1897 14.8115 16.938 17.0769 14.1544 17.0769C13.3832 17.0769 12.6528 16.9031 11.9998 16.5923Z" fill="#F36EAE"/>
</svg>
