<svg width="520" height="520" viewBox="0 0 520 520" fill="none" xmlns="http://www.w3.org/2000/svg">
<path d="M0 260C0 116.406 116.406 0 260 0C403.594 0 520 116.406 520 260C520 403.594 403.594 520 260 520C116.406 520 0 403.594 0 260Z" fill="#22306D"/>
<circle cx="260" cy="260" r="260" fill="#22306D"/>
<path fill-rule="evenodd" clip-rule="evenodd" d="M133.548 260.5C133.548 216.16 169.324 180.322 213.325 180.322C257.173 180.322 292.854 215.914 293.099 260.042H259.164L212.352 208.728L164.703 260.958H197.579C197.704 291.457 210.26 319.038 230.442 338.831C224.934 340.04 219.208 340.678 213.325 340.678C169.324 340.678 133.548 304.84 133.548 260.5ZM226.901 260.958C227.147 305.086 262.827 340.678 306.676 340.678C350.677 340.678 386.452 304.84 386.452 260.5C386.452 216.16 350.677 180.322 306.676 180.322C300.793 180.322 295.067 180.96 289.559 182.169C309.741 201.962 322.297 229.543 322.422 260.042H354.381L306.733 312.272L259.92 260.958H226.901ZM259.994 359.5C245.829 366.237 229.996 370 213.325 370C153.013 370 104.226 320.916 104.226 260.5C104.226 200.084 153.013 151 213.325 151C230.034 151 245.859 154.768 260.007 161.5C274.171 154.763 290.005 151 306.676 151C366.988 151 415.774 200.084 415.774 260.5C415.774 320.916 366.988 370 306.676 370C289.967 370 274.142 366.232 259.994 359.5Z" fill="#F36EAE"/>
</svg>
