<svg width="79" height="24" viewBox="0 0 79 24" fill="none" xmlns="http://www.w3.org/2000/svg">
<path d="M32.8298 16.2488H37.4985V19H29.2658V4.36884H32.8298V16.2488ZM48.3064 16.4156H42.8458L41.9704 19H38.2397L43.5336 4.36884H47.6603L52.9542 19H49.1818L48.3064 16.4156ZM47.3894 13.6644L45.5761 8.308L43.7837 13.6644H47.3894ZM63.0481 19L58.1294 12.5389V19H54.5654V4.36884H58.1294V10.7882L63.0064 4.36884H67.1957L61.5267 11.5385L67.4041 19H63.0481ZM72.6619 7.22421V10.1838H77.4347V12.9349H72.6619V16.1446H78.06V19H69.0979V4.36884H78.06V7.22421H72.6619Z" fill="currentColor"/>
<path d="M0.5 12C0.5 5.37259 5.87259 0 12.5 0C19.1274 0 24.5 5.37259 24.5 12C24.5 18.6274 19.1274 24 12.5 24C5.87259 24 0.5 18.6274 0.5 12Z" fill="#A8D9FC"/>
<circle cx="12.5" cy="12" r="12" fill="#B2DEFD"/>
<path fill-rule="evenodd" clip-rule="evenodd" d="M18.2848 12.5077C18.305 12.3104 18.3153 12.1103 18.3153 11.9077C18.3153 8.69592 15.7117 6.09229 12.5 6.09229C9.28821 6.09229 6.68457 8.69592 6.68457 11.9077C6.68457 12.1103 6.69493 12.3104 6.71515 12.5077H18.2848Z" fill="#3154D0"/>
<path d="M7.51514 13.8H17.4844" stroke="#3154D0" stroke-width="0.738462" stroke-linecap="round"/>
<path d="M8.80762 15.4615H16.1922" stroke="#3154D0" stroke-width="0.738462" stroke-linecap="round"/>
<path d="M11.0693 17.123H13.9309" stroke="#3154D0" stroke-width="0.738462" stroke-linecap="round"/>
</svg>
