<svg width="520" height="520" viewBox="0 0 520 520" fill="none" xmlns="http://www.w3.org/2000/svg">
<path d="M0 260C0 116.406 116.406 0 260 0C403.594 0 520 116.406 520 260C520 403.594 403.594 520 260 520C116.406 520 0 403.594 0 260Z" fill="#A8D9FC"/>
<circle cx="260" cy="260" r="260" fill="#B2DEFD"/>
<path fill-rule="evenodd" clip-rule="evenodd" d="M385.338 271C385.776 266.726 386 262.389 386 258C386 188.412 329.588 132 260 132C190.412 132 134 188.412 134 258C134 262.389 134.224 266.726 134.662 271H385.338Z" fill="#3154D0"/>
<path d="M152 299H368" stroke="#3154D0" stroke-width="16" stroke-linecap="round"/>
<path d="M180 335H340" stroke="#3154D0" stroke-width="16" stroke-linecap="round"/>
<path d="M229 371H291" stroke="#3154D0" stroke-width="16" stroke-linecap="round"/>
</svg>
