<svg width="75" height="24" viewBox="0 0 75 24" fill="none" xmlns="http://www.w3.org/2000/svg">
<path d="M32.3298 16.2488H36.9985V19H28.7658V4.36884H32.3298V16.2488ZM42.2624 7.22421V10.1838H47.0353V12.9349H42.2624V16.1446H47.6605V19H38.6984V4.36884H47.6605V7.22421H42.2624ZM59.0823 16.4156H53.6217L52.7463 19H49.0156L54.3095 4.36884H58.4362L63.7301 19H59.9577L59.0823 16.4156ZM58.1653 13.6644L56.352 8.308L54.5596 13.6644H58.1653ZM74.8661 4.36884V7.22421H68.9053V10.3088H73.3655V13.0808H68.9053V19H65.3413V4.36884H74.8661Z" fill="currentColor"/>
<circle cx="12" cy="12" r="12" fill="#9EEDB1"/>
<path fill-rule="evenodd" clip-rule="evenodd" d="M11.9998 5.9353C10.6985 8.5611 8.56085 10.6988 5.93506 12C8.56085 13.3012 10.6985 15.4389 11.9998 18.0647C13.301 15.4389 15.4387 13.3013 18.0645 12C15.4387 10.6988 13.301 8.5611 11.9998 5.9353Z" fill="#09795E"/>
</svg>
