<svg width="10" height="9" viewBox="0 0 10 9" fill="none" xmlns="http://www.w3.org/2000/svg">
  <path fill-rule="evenodd" clip-rule="evenodd"
    d="M0.240773 1.03542C0.302376 0.984309 0.373376 0.944094 0.450779 0.917733C0.540605 0.887098 0.634739 0.87662 0.726794 0.885219C0.804347 0.892337 0.878058 0.912761 0.945598 0.944194C1.04775 0.99151 1.13924 1.06542 1.20881 1.164L4.65687 6.04874L8.09845 1.17318C8.11139 1.1542 8.1253 1.13594 8.14008 1.11844C8.19739 1.0504 8.26603 0.99645 8.34124 0.957383C8.41758 0.917584 8.50261 0.892154 8.59272 0.884703C8.7075 0.875007 8.82525 0.894915 8.93368 0.946539C8.96879 0.96322 9.00219 0.982895 9.03357 1.00521C9.13388 1.07643 9.2085 1.17038 9.25542 1.27513C9.2828 1.33601 9.30127 1.40176 9.30922 1.47071C9.31268 1.50038 9.31416 1.53032 9.31361 1.56029V8.18752C9.31413 8.21545 9.31287 8.24334 9.30989 8.27103C9.30126 8.35267 9.27786 8.42991 9.24241 8.50003C9.20326 8.57773 9.14836 8.64866 9.07861 8.70766C8.96261 8.80611 8.81242 8.8655 8.64836 8.8655C8.51494 8.8655 8.3907 8.82624 8.28656 8.75861C8.24528 8.73189 8.20657 8.70029 8.17135 8.66396C8.14379 8.63562 8.11874 8.60484 8.09656 8.57196L6.60583 6.4601L7.42014 5.30651L7.9831 6.10405V3.64376L5.20036 7.58598C5.0757 7.76257 4.87302 7.86758 4.65687 7.86758C4.44071 7.86758 4.23803 7.76257 4.11337 7.58598L1.33052 3.64361V6.1042L1.89364 5.30646L2.70793 6.46005L1.21411 8.5763C1.2033 8.59205 1.19183 8.60732 1.17974 8.62205C1.12685 8.68667 1.0639 8.73897 0.994777 8.77831C0.897633 8.83379 0.785154 8.8655 0.665258 8.8655C0.484774 8.8655 0.32107 8.79362 0.201224 8.67694C0.163437 8.64025 0.130773 8.5998 0.103398 8.55659C0.0379198 8.45358 0 8.33134 0 8.20025V1.54767C0 1.4297 0.0307015 1.3189 0.0845708 1.22284C0.123638 1.15284 0.175944 1.08904 0.240773 1.03542ZM5.18101 4.4412L4.65706 3.69894L4.13316 4.44113L3.31885 3.28754L4.11356 2.16171C4.23822 1.98511 4.44091 1.88009 4.65706 1.88009C4.87321 1.88009 5.07589 1.98511 5.20055 2.16171L5.9953 3.28759L5.18101 4.4412Z"
    fill="currentColor" />
</svg>