<svg width="24" height="24" viewBox="0 0 24 24" fill="none" xmlns="http://www.w3.org/2000/svg">
  <path
    d="M10.2353 3.01885C11.3273 2.38838 12.6727 2.38838 13.7647 3.01885L18.8955 5.98115C19.9876 6.61162 20.6603 7.77677 20.6603 9.03771V14.9623C20.6603 16.2232 19.9876 17.3884 18.8955 18.0189L13.7647 20.9811C12.6727 21.6116 11.3273 21.6116 10.2353 20.9811L5.10445 18.0189C4.01245 17.3884 3.33975 16.2232 3.33975 14.9623V9.03771C3.33975 7.77677 4.01245 6.61162 5.10445 5.98115L10.2353 3.01885Z"
    fill="#585AD8" />
  <path
    d="M7.74485 7.91773C7.66744 7.94409 7.59644 7.98431 7.53484 8.03542C7.47001 8.08904 7.41771 8.15284 7.37864 8.22284C7.32477 8.3189 7.29407 8.4297 7.29407 8.54767V15.2002C7.29407 15.3313 7.33199 15.4536 7.39747 15.5566C7.42484 15.5998 7.4575 15.6402 7.49529 15.6769C7.61514 15.7936 7.77884 15.8655 7.95933 15.8655C8.07922 15.8655 8.1917 15.8338 8.28884 15.7783C8.35796 15.739 8.42091 15.6867 8.4738 15.6221C8.48589 15.6073 8.49737 15.592 8.50818 15.5763L10.002 13.46L9.18771 12.3065L8.62458 13.1042V10.6436L11.4074 14.586C11.5321 14.7626 11.7348 14.8676 11.9509 14.8676C12.1671 14.8676 12.3698 14.7626 12.4944 14.586L15.2772 10.6438V13.1041L14.7142 12.3065L13.8999 13.4601L15.3906 15.572C15.4128 15.6048 15.4379 15.6356 15.4654 15.664C15.5006 15.7003 15.5393 15.7319 15.5806 15.7586C15.6848 15.8262 15.809 15.8655 15.9424 15.8655C16.1065 15.8655 16.2567 15.8061 16.3727 15.7077C16.4424 15.6487 16.4973 15.5777 16.5365 15.5C16.5719 15.4299 16.5953 15.3527 16.604 15.271C16.6069 15.2433 16.6082 15.2154 16.6077 15.1875V8.56029C16.6082 8.53032 16.6068 8.50038 16.6033 8.47071C16.5953 8.40176 16.5769 8.33601 16.5495 8.27513C16.5026 8.17038 16.4279 8.07643 16.3276 8.00521C16.2963 7.9829 16.2629 7.96322 16.2278 7.94654C16.1193 7.89491 16.0016 7.87501 15.8868 7.8847C15.7967 7.89215 15.7116 7.91758 15.6353 7.95738C15.5601 7.99645 15.4915 8.0504 15.4341 8.11844C15.4194 8.13594 15.4055 8.1542 15.3925 8.17318L11.9509 13.0487L8.50287 8.164C8.43331 8.06542 8.34182 7.99151 8.23967 7.94419C8.17213 7.91276 8.09841 7.89234 8.02086 7.88522C7.92881 7.87662 7.83467 7.8871 7.74485 7.91773Z"
    fill="white" />
  <path
    d="M11.9509 10.6982L12.4749 11.4405L13.2892 10.2869L12.4944 9.16101C12.3698 8.98442 12.1671 8.87939 11.9509 8.87939C11.7348 8.87939 11.5321 8.98442 11.4074 9.16101L10.6127 10.2868L11.427 11.4404L11.9509 10.6982Z"
    fill="white" />
</svg>