<svg width="91" height="24" viewBox="0 0 91 24" fill="none" xmlns="http://www.w3.org/2000/svg">
<path d="M36.2273 19L33.1844 13.4768H32.3298V19H28.7658V4.36884H34.7475C35.9008 4.36884 36.8804 4.57031 37.6863 4.97326C38.5061 5.37621 39.1174 5.932 39.5204 6.64063C39.9233 7.33537 40.1248 8.11347 40.1248 8.97495C40.1248 9.94758 39.8469 10.816 39.2911 11.5802C38.7492 12.3444 37.9433 12.8863 36.8734 13.2059L40.2498 19H36.2273ZM32.3298 10.9549H34.5391C35.1922 10.9549 35.6785 10.7952 35.9981 10.4756C36.3315 10.156 36.4983 9.70442 36.4983 9.12084C36.4983 8.56505 36.3315 8.12737 35.9981 7.80779C35.6785 7.48821 35.1922 7.32842 34.5391 7.32842H32.3298V10.9549ZM45.9261 4.36884V19H42.3621V4.36884H45.9261ZM61.5977 19H58.0337L52.0729 9.97537V19H48.5089V4.36884H52.0729L58.0337 13.4352V4.36884H61.5977V19ZM73.8936 8.99579C73.6296 8.50947 73.2475 8.14126 72.7472 7.89116C72.2609 7.62716 71.6843 7.49516 71.0174 7.49516C69.8641 7.49516 68.9401 7.87726 68.2454 8.64147C67.5506 9.39179 67.2032 10.3992 67.2032 11.6636C67.2032 13.0114 67.5645 14.0674 68.287 14.8316C69.0235 15.5819 70.0308 15.9571 71.3091 15.9571C72.1845 15.9571 72.9209 15.7347 73.5184 15.2901C74.1298 14.8455 74.5744 14.2063 74.8523 13.3726H70.3296V10.7465H78.0828V14.0604C77.8188 14.9497 77.3672 15.7764 76.7281 16.5406C76.1028 17.3048 75.3039 17.9232 74.3312 18.3956C73.3586 18.868 72.2609 19.1042 71.0382 19.1042C69.5931 19.1042 68.3009 18.7916 67.1616 18.1663C66.0361 17.5272 65.1538 16.6448 64.5146 15.5194C63.8894 14.3939 63.5767 13.1086 63.5767 11.6636C63.5767 10.2185 63.8894 8.93326 64.5146 7.80779C65.1538 6.66842 66.0361 5.7861 67.1616 5.16084C68.287 4.52168 69.5723 4.2021 71.0174 4.2021C72.7681 4.2021 74.2409 4.62589 75.4359 5.47347C76.6447 6.32105 77.4437 7.49516 77.8327 8.99579H73.8936ZM85.3509 19.1459C84.281 19.1459 83.3222 18.9722 82.4747 18.6248C81.6271 18.2775 80.9462 17.7634 80.4321 17.0825C79.9319 16.4017 79.6679 15.5819 79.6401 14.6232H83.4334C83.489 15.1651 83.6765 15.5819 83.9961 15.8737C84.3157 16.1516 84.7325 16.2905 85.2467 16.2905C85.7747 16.2905 86.1915 16.1724 86.4972 15.9362C86.8029 15.6861 86.9557 15.3457 86.9557 14.9149C86.9557 14.5537 86.8307 14.2549 86.5805 14.0187C86.3443 13.7825 86.0456 13.588 85.6843 13.4352C85.337 13.2823 84.8368 13.1086 84.1837 12.9141C83.2389 12.6223 82.4677 12.3305 81.8702 12.0387C81.2728 11.7469 80.7587 11.3162 80.3279 10.7465C79.8972 10.1768 79.6818 9.43347 79.6818 8.51642C79.6818 7.15474 80.1751 6.09179 81.1616 5.32758C82.1481 4.54947 83.4334 4.16042 85.0174 4.16042C86.6292 4.16042 87.9283 4.54947 88.9149 5.32758C89.9014 6.09179 90.4294 7.16168 90.4989 8.53726H86.6431C86.6153 8.06484 86.4416 7.69663 86.122 7.43263C85.8024 7.15473 85.3925 7.01579 84.8923 7.01579C84.4616 7.01579 84.1142 7.13389 83.8502 7.3701C83.5862 7.59242 83.4542 7.91895 83.4542 8.34968C83.4542 8.8221 83.6765 9.19031 84.1212 9.45431C84.5658 9.71831 85.2605 10.0032 86.2054 10.3088C87.1502 10.6284 87.9144 10.9341 88.498 11.2259C89.0955 11.5177 89.6096 11.9415 90.0403 12.4973C90.4711 13.0531 90.6864 13.7686 90.6864 14.644C90.6864 15.4777 90.4711 16.2349 90.0403 16.9158C89.6235 17.5966 89.0121 18.1385 88.2062 18.5415C87.4003 18.9444 86.4485 19.1459 85.3509 19.1459Z" fill="currentColor"/>
<circle cx="12" cy="12" r="12" fill="#FFC54D"/>
<path fill-rule="evenodd" clip-rule="evenodd" d="M6.61419 11.0177L8.37033 7.99406C9.98362 5.21296 14.0169 5.21296 15.6301 7.98988L17.3863 11.0177C18.9996 13.7988 16.983 17.2742 13.7564 17.2742H10.2441C7.01751 17.2742 5.0009 13.7988 6.61419 11.0177ZM9.67909 12.9192L9.92323 12.5015C10.1499 12.1181 10.7138 12.1181 10.9376 12.5015L11.1817 12.9192C11.4085 13.3026 11.1265 13.7832 10.676 13.7832H10.1848C9.73431 13.7832 9.45529 13.3026 9.67909 12.9192ZM9.10829 10.8909C9.90214 9.51657 11.883 9.51657 12.6768 10.8909L12.6773 10.8917L13.3829 12.1207L13.3831 12.1211C14.1763 13.4949 13.1849 15.214 11.6004 15.214H10.1847C8.60026 15.214 7.60883 13.4949 8.40202 12.1211L8.40226 12.1207L9.1078 10.8917L9.10829 10.8909ZM9.74798 11.2598L9.74773 11.2602L9.0422 12.4892L9.04171 12.49C8.53191 13.3726 9.16973 14.4755 10.1847 14.4755H11.6004C12.6154 14.4755 13.2532 13.3726 12.7434 12.49L12.7429 12.4892L12.0374 11.2602L12.0372 11.2598C11.5275 10.3782 10.2576 10.3782 9.74798 11.2598ZM14.3712 9.22094L14.3709 9.22042C13.0624 6.93849 9.77091 6.94072 8.45506 9.21989L8.45503 9.21995L7.17664 11.4332L7.1766 11.4333C5.86042 13.7132 7.50316 16.5639 10.1365 16.5639H12.6892C15.3225 16.5639 16.9653 13.7132 15.6491 11.4333L15.649 11.4332L14.3712 9.22094ZM9.09456 9.58917C10.1273 7.80034 12.7069 7.80242 13.7305 9.58818L13.7312 9.58923L15.0095 11.8025L15.0096 11.8026C16.0419 13.591 14.7531 15.8254 12.6892 15.8254H10.1365C8.0726 15.8254 6.78373 13.591 7.8161 11.8026L7.81614 11.8025L9.09452 9.58923L9.09456 9.58917Z" fill="#552822"/>
</svg>
