<svg width="520" height="520" viewBox="0 0 520 520" fill="none" xmlns="http://www.w3.org/2000/svg">
<circle cx="260" cy="260" r="260" fill="#FFC54D"/>
<path fill-rule="evenodd" clip-rule="evenodd" d="M143.302 238.717L181.352 173.204C216.307 112.947 303.693 112.947 338.648 173.114L376.698 238.717C411.652 298.974 367.959 374.273 298.05 374.273H221.95C152.041 374.273 108.348 298.974 143.302 238.717ZM209.708 279.916L214.998 270.866C219.91 262.56 232.127 262.56 236.976 270.866L242.266 279.916C247.178 288.222 241.069 298.636 231.308 298.636H220.666C210.905 298.636 204.859 288.222 209.708 279.916ZM197.341 235.968C214.541 206.192 257.459 206.192 274.659 235.968L274.665 235.978L274.67 235.987L289.956 262.614L289.962 262.624C307.147 292.391 285.666 329.636 251.336 329.636H220.664C186.334 329.636 164.853 292.391 182.038 262.624L182.044 262.614L197.33 235.987L197.335 235.978L197.341 235.968ZM211.201 243.963L211.195 243.971L195.909 270.599L195.904 270.608L195.898 270.617C184.853 289.739 198.672 313.636 220.664 313.636H251.336C273.328 313.636 287.147 289.739 276.102 270.617L276.096 270.608L276.091 270.599L260.805 243.971L260.801 243.964C249.759 224.861 222.243 224.86 211.201 243.963ZM311.371 199.787L311.363 199.774C283.011 150.334 211.697 150.383 183.188 199.764L183.187 199.766L155.489 247.72L155.488 247.722C126.97 297.118 162.563 358.884 219.619 358.884H274.927C331.982 358.884 367.575 297.118 339.058 247.722L339.057 247.72L311.371 199.787ZM197.044 207.765C219.419 169.007 275.311 169.052 297.49 207.744L297.496 207.755L297.503 207.767L325.201 255.721L325.202 255.723C347.57 294.47 319.644 342.884 274.927 342.884H219.619C174.901 342.884 146.975 294.47 169.344 255.723L169.344 255.721L197.043 207.767L197.044 207.765Z" fill="#552822"/>
</svg>
