<svg width="87" height="24" viewBox="0 0 87 24" fill="none" xmlns="http://www.w3.org/2000/svg">
<path d="M49.6889 4.36884L45.8748 19H41.5604L39.2261 9.37095L36.8084 19H32.4941L28.7842 4.36884H32.5983L34.7034 15.0192L37.3087 4.36884H41.227L43.728 15.0192L45.8539 4.36884H49.6889ZM58.2948 16.4156H52.8341L51.9588 19H48.228L53.5219 4.36884H57.6487L62.9426 19H59.1701L58.2948 16.4156ZM57.3777 13.6644L55.5645 8.308L53.772 13.6644H57.3777ZM75.9992 4.36884L70.8095 19H66.3493L61.1596 4.36884H64.9529L68.5794 15.4152L72.2268 4.36884H75.9992ZM81.0528 7.22421V10.1838H85.8256V12.9349H81.0528V16.1446H86.4509V19H77.4888V4.36884H86.4509V7.22421H81.0528Z" fill="currentColor"/>
<circle cx="12" cy="12" r="12" fill="#355CE8"/>
<path d="M6.54953 12.5537L5.74385 16.9349C5.70697 17.1354 5.84238 17.298 6.0463 17.298H7.60222C7.80614 17.298 8.00135 17.1354 8.03823 16.9349L8.84391 12.5537C8.89924 12.2528 9.19205 12.009 9.49793 12.009H10.6094C10.9153 12.009 11.2081 11.7651 11.2634 11.4643L12.0657 7.10154C12.1026 6.90099 11.9672 6.7384 11.7633 6.7384L10.2073 6.7384C10.0034 6.7384 9.8082 6.90099 9.77132 7.10155L8.96904 11.4643C8.91372 11.7651 8.62091 12.009 8.31503 12.009H7.20355C6.89766 12.009 6.60485 12.2528 6.54953 12.5537Z" fill="#93FFED"/>
<path d="M9.64427 12.5537L8.83859 16.9349C8.80171 17.1354 8.93712 17.298 9.14104 17.298H10.697C10.9009 17.298 11.0961 17.1354 11.133 16.9349L11.9387 12.5537C11.994 12.2528 12.2868 12.009 12.5927 12.009H13.7042C14.01 12.009 14.3028 11.7651 14.3582 11.4643L15.1604 7.10154C15.1973 6.90099 15.0619 6.7384 14.858 6.7384L13.3021 6.7384C13.0982 6.7384 12.9029 6.90099 12.8661 7.10155L12.0638 11.4643C12.0085 11.7651 11.7156 12.009 11.4098 12.009H10.2983C9.9924 12.009 9.69959 12.2528 9.64427 12.5537Z" fill="#93FFED"/>
<path d="M12.739 12.5537L11.9333 16.9349C11.8964 17.1354 12.0319 17.298 12.2358 17.298H13.7917C13.9956 17.298 14.1908 17.1354 14.2277 16.9349L15.0334 12.5537C15.0887 12.2528 15.3815 12.009 15.6874 12.009H16.7989C17.1048 12.009 17.3976 11.7651 17.4529 11.4643L18.2552 7.10154C18.2921 6.90099 18.1567 6.7384 17.9527 6.7384L16.3968 6.7384C16.1929 6.7384 15.9977 6.90099 15.9608 7.10155L15.1585 11.4643C15.1032 11.7651 14.8104 12.009 14.5045 12.009H13.393C13.0871 12.009 12.7943 12.2528 12.739 12.5537Z" fill="#93FFED"/>
</svg>
