<svg width="520" height="520" viewBox="0 0 520 520" fill="none" xmlns="http://www.w3.org/2000/svg">
<circle cx="260" cy="260" r="260" fill="#355CE8"/>
<path d="M141.903 271.998L124.447 366.924C123.648 371.269 126.582 374.792 131 374.792H164.712C169.13 374.792 173.359 371.269 174.159 366.924L191.615 271.998C192.814 265.479 199.158 260.195 205.785 260.195H229.867C236.495 260.195 242.839 254.911 244.038 248.393L261.42 153.868C262.22 149.523 259.286 146 254.867 146L221.156 146C216.737 146 212.508 149.523 211.709 153.868L194.326 248.393C193.127 254.911 186.783 260.195 180.156 260.195H156.074C149.446 260.195 143.102 265.479 141.903 271.998Z" fill="#93FFED"/>
<path d="M208.956 271.998L191.5 366.924C190.7 371.269 193.634 374.792 198.053 374.792H231.764C236.183 374.792 240.412 371.269 241.211 366.924L258.668 271.998C259.866 265.479 266.211 260.195 272.838 260.195H296.92C303.547 260.195 309.892 254.911 311.09 248.393L328.473 153.868C329.272 149.523 326.338 146 321.92 146L288.208 146C283.79 146 279.561 149.523 278.761 153.868L261.379 248.393C260.18 254.911 253.836 260.195 247.208 260.195H223.126C216.499 260.195 210.155 265.479 208.956 271.998Z" fill="#93FFED"/>
<path d="M276.009 271.998L258.552 366.924C257.753 371.269 260.687 374.792 265.105 374.792H298.817C303.235 374.792 307.465 371.269 308.264 366.924L325.72 271.998C326.919 265.479 333.263 260.195 339.891 260.195H363.973C370.6 260.195 376.944 254.911 378.143 248.393L395.526 153.868C396.325 149.523 393.391 146 388.973 146L355.261 146C350.843 146 346.613 149.523 345.814 153.868L328.431 248.393C327.233 254.911 320.888 260.195 314.261 260.195H290.179C283.552 260.195 277.207 265.479 276.009 271.998Z" fill="#93FFED"/>
</svg>
