<svg width="24" height="24" viewBox="0 0 24 24" fill="none" xmlns="http://www.w3.org/2000/svg">
  <path fill-rule="evenodd" clip-rule="evenodd"
    d="M15 8.87868V2.5C15 1.67157 15.6716 1 16.5 1C17.3284 1 18 1.67157 18 2.5V8.87868L20.4393 6.43934C21.0251 5.85355 21.9749 5.85355 22.5607 6.43934C23.1464 7.02513 23.1464 7.97487 22.5607 8.56066L17.5607 13.5607C16.9749 14.1464 16.0251 14.1464 15.4393 13.5607L10.4393 8.56066C9.85355 7.97487 9.85355 7.02513 10.4393 6.43934C11.0251 5.85355 11.9749 5.85355 12.5607 6.43934L15 8.87868ZM9 15.1213L11.4393 17.5607C12.0251 18.1464 12.9749 18.1464 13.5607 17.5607C14.1464 16.9749 14.1464 16.0251 13.5607 15.4393L8.56066 10.4393C7.97487 9.85355 7.02513 9.85355 6.43934 10.4393L1.43934 15.4393C0.853553 16.0251 0.853553 16.9749 1.43934 17.5607C2.02513 18.1464 2.97487 18.1464 3.56066 17.5607L6 15.1213V21.5C6 22.3284 6.67157 23 7.5 23C8.32843 23 9 22.3284 9 21.5V15.1213Z"
    fill="currentColor" />
</svg>